M48
;DRILL file {KiCad 4.0.6} date 04/09/17 13:59:18
;FORMAT={-:-/ absolute / metric / decimal}
FMAT,2
METRIC,TZ
T1C0.500
T2C0.635
T3C0.813
T4C1.000
T5C1.001
T6C3.500
%
G90
G05
M71
T2
X72.898Y-124.46
X77.216Y-127.
X78.994Y-114.808
X80.518Y-97.028
X87.122Y-113.538
X96.774Y-102.108
X101.6Y-105.664
X102.87Y-113.665
X108.712Y-114.935
X118.11Y-112.268
X126.746Y-85.09
X135.128Y-48.006
X135.128Y-80.01
X135.382Y-58.674
X135.382Y-69.342
X135.636Y-91.186
X136.652Y-44.958
X136.652Y-55.626
X136.652Y-66.294
X136.652Y-76.962
X136.652Y-88.138
X144.018Y-74.93
X144.018Y-85.344
X144.272Y-53.34
X144.272Y-64.262
X144.272Y-96.52
T3
X66.548Y-84.074
X67.056Y-99.314
X69.088Y-84.074
X69.596Y-99.314
X71.374Y-134.366
X71.628Y-84.074
X71.882Y-40.386
X71.882Y-45.466
X72.136Y-99.314
X73.025Y-109.093
X73.025Y-111.633
X73.025Y-114.173
X73.025Y-116.713
X73.914Y-134.366
X74.168Y-84.074
X74.422Y-40.386
X74.422Y-45.466
X74.676Y-99.314
X76.454Y-134.366
X76.708Y-84.074
X77.216Y-99.314
X78.105Y-111.379
X78.994Y-134.366
X79.248Y-84.074
X79.756Y-99.314
X80.645Y-111.379
X80.772Y-120.65
X81.502Y-40.386
X81.502Y-45.466
X81.788Y-84.074
X82.296Y-99.314
X83.185Y-111.379
X83.312Y-120.65
X84.042Y-40.386
X84.042Y-45.466
X84.328Y-84.074
X84.836Y-99.314
X84.836Y-134.366
X85.725Y-111.379
X85.852Y-120.65
X86.868Y-84.074
X87.376Y-99.314
X87.376Y-134.366
X88.265Y-111.379
X88.392Y-120.65
X89.408Y-84.074
X89.916Y-99.314
X89.916Y-134.366
X90.805Y-111.379
X90.932Y-120.65
X91.122Y-40.386
X91.122Y-45.466
X91.948Y-84.074
X92.456Y-99.314
X92.456Y-134.366
X93.345Y-111.379
X93.662Y-40.386
X93.662Y-45.466
X94.488Y-84.074
X94.996Y-99.314
X95.885Y-111.379
X97.028Y-84.074
X97.536Y-99.314
X97.536Y-134.366
X98.425Y-111.379
X100.076Y-84.074
X100.076Y-86.614
X100.076Y-89.154
X100.076Y-91.694
X100.076Y-94.234
X100.076Y-96.774
X100.076Y-99.314
X100.076Y-134.366
X100.742Y-40.386
X100.742Y-45.466
X100.965Y-111.379
X102.616Y-134.366
X103.282Y-40.386
X103.282Y-45.466
X105.156Y-134.366
X109.982Y-88.138
X109.982Y-90.678
X109.982Y-93.218
X109.982Y-95.758
X109.982Y-98.298
X109.982Y-100.838
X109.982Y-103.378
X109.982Y-105.918
X110.236Y-134.366
X112.776Y-134.366
X115.316Y-134.366
X117.602Y-100.584
X117.602Y-103.124
X117.602Y-105.664
X117.856Y-134.366
X122.936Y-134.366
X124.46Y-86.36
X124.46Y-88.9
X124.46Y-91.44
X124.46Y-93.98
X124.46Y-96.52
X125.476Y-134.366
X128.016Y-134.366
X130.048Y-86.614
X130.048Y-89.154
X130.048Y-91.694
X130.048Y-94.234
X130.048Y-96.774
X130.048Y-99.314
X130.048Y-101.854
X130.048Y-104.394
X130.048Y-106.934
X130.556Y-134.366
X137.922Y-134.366
X140.462Y-134.366
X145.542Y-134.366
X148.082Y-134.366
X150.622Y-134.366
X153.162Y-134.366
X160.02Y-54.61
X160.02Y-57.15
X160.02Y-76.2
X160.02Y-78.74
X160.02Y-90.17
X160.02Y-92.71
T5
X152.654Y-41.148
X157.226Y-76.708
X157.48Y-54.864
X157.988Y-66.04
T6
X66.548Y-41.402
X66.548Y-133.35
X158.496Y-41.402
X158.496Y-133.35
T1
X67.5Y-64.1G85X68.5Y-64.1
G05
X70.Y-61.6G85X71.Y-61.6
G05
X72.5Y-64.1G85X73.5Y-64.1
G05
X77.5Y-64.1G85X78.5Y-64.1
G05
X80.Y-61.6G85X81.Y-61.6
G05
X82.5Y-64.1G85X83.5Y-64.1
G05
X87.5Y-64.1G85X88.5Y-64.1
G05
X90.Y-61.6G85X91.Y-61.6
G05
X92.5Y-64.1G85X93.5Y-64.1
G05
X97.5Y-64.1G85X98.5Y-64.1
G05
X100.Y-61.6G85X101.Y-61.6
G05
X102.5Y-64.1G85X103.5Y-64.1
G05
T4
X148.Y-108.35G85X148.Y-109.85
G05
X148.Y-120.35G85X148.Y-121.85
G05
X150.75Y-104.6G85X152.25Y-104.6
G05
X150.75Y-116.6G85X152.25Y-116.6
G05
X154.5Y-108.35G85X154.5Y-109.85
G05
X154.5Y-120.35G85X154.5Y-121.85
G05
T0
M30
