G04 #@! TF.FileFunction,Soldermask,Top*
%FSLAX46Y46*%
G04 Gerber Fmt 4.6, Leading zero omitted, Abs format (unit mm)*
G04 Created by KiCad (PCBNEW 4.0.6) date 04/09/17 13:57:39*
%MOMM*%
%LPD*%
G01*
G04 APERTURE LIST*
%ADD10C,0.150000*%
%ADD11R,1.905000X1.905000*%
%ADD12C,1.905000*%
%ADD13R,2.032000X2.540000*%
%ADD14R,2.540000X2.032000*%
%ADD15R,1.397000X1.905000*%
%ADD16R,1.651000X1.016000*%
%ADD17R,1.508760X1.107440*%
%ADD18C,6.507480*%
%ADD19R,2.308000X3.708000*%
%ADD20R,3.708000X2.308000*%
%ADD21R,2.508000X1.508000*%
G04 APERTURE END LIST*
D10*
D11*
X160020000Y-57150000D03*
D12*
X160020000Y-54610000D03*
D13*
X138557000Y-55626000D03*
X141859000Y-55626000D03*
X138557000Y-44958000D03*
X141859000Y-44958000D03*
X141859000Y-91186000D03*
X138557000Y-91186000D03*
X141859000Y-80010000D03*
X138557000Y-80010000D03*
X141859000Y-69342000D03*
X138557000Y-69342000D03*
X141859000Y-58674000D03*
X138557000Y-58674000D03*
X141859000Y-48006000D03*
X138557000Y-48006000D03*
X156083000Y-93726000D03*
X152781000Y-93726000D03*
X156083000Y-82550000D03*
X152781000Y-82550000D03*
X156083000Y-71882000D03*
X152781000Y-71882000D03*
X156083000Y-61214000D03*
X152781000Y-61214000D03*
X156083000Y-50546000D03*
X152781000Y-50546000D03*
D14*
X81756000Y-53975000D03*
X81756000Y-57277000D03*
D13*
X84931000Y-51054000D03*
X81629000Y-51054000D03*
D14*
X120904000Y-100203000D03*
X120904000Y-103505000D03*
D13*
X138557000Y-66294000D03*
X141859000Y-66294000D03*
X138557000Y-76962000D03*
X141859000Y-76962000D03*
X138557000Y-88138000D03*
X141859000Y-88138000D03*
X147955000Y-50546000D03*
X144653000Y-50546000D03*
X147955000Y-61214000D03*
X144653000Y-61214000D03*
X147955000Y-71882000D03*
X144653000Y-71882000D03*
X147955000Y-82550000D03*
X144653000Y-82550000D03*
X147955000Y-93726000D03*
X144653000Y-93726000D03*
X95059000Y-51054000D03*
X91757000Y-51054000D03*
D14*
X91884000Y-53975000D03*
X91884000Y-57277000D03*
D13*
X105187000Y-51054000D03*
X101885000Y-51054000D03*
D14*
X102012000Y-53975000D03*
X102012000Y-57277000D03*
D13*
X74803000Y-51054000D03*
X71501000Y-51054000D03*
D14*
X71628000Y-53975000D03*
X71628000Y-57277000D03*
X133604000Y-99187000D03*
X133604000Y-102489000D03*
X80518000Y-125349000D03*
X80518000Y-128651000D03*
X83058000Y-125349000D03*
X83058000Y-128651000D03*
X85598000Y-125349000D03*
X85598000Y-128651000D03*
D15*
X141160500Y-50546000D03*
X139255500Y-50546000D03*
X141160500Y-61214000D03*
X139255500Y-61214000D03*
X141160500Y-71882000D03*
X139255500Y-71882000D03*
X141160500Y-82550000D03*
X139255500Y-82550000D03*
X141160500Y-93726000D03*
X139255500Y-93726000D03*
D11*
X130048000Y-106934000D03*
D12*
X130048000Y-104394000D03*
X130048000Y-101854000D03*
X130048000Y-99314000D03*
X130048000Y-96774000D03*
X130048000Y-94234000D03*
X130048000Y-91694000D03*
X130048000Y-89154000D03*
X130048000Y-86614000D03*
D11*
X100076000Y-99314000D03*
D12*
X100076000Y-96774000D03*
X100076000Y-94234000D03*
X100076000Y-91694000D03*
X100076000Y-89154000D03*
X100076000Y-86614000D03*
X100076000Y-84074000D03*
D11*
X124460000Y-96520000D03*
D12*
X124460000Y-93980000D03*
X124460000Y-91440000D03*
X124460000Y-88900000D03*
X124460000Y-86360000D03*
D11*
X80772000Y-120650000D03*
D12*
X83312000Y-120650000D03*
X85852000Y-120650000D03*
X88392000Y-120650000D03*
X90932000Y-120650000D03*
D11*
X117856000Y-134366000D03*
D12*
X115316000Y-134366000D03*
X112776000Y-134366000D03*
X110236000Y-134366000D03*
D11*
X130556000Y-134366000D03*
D12*
X128016000Y-134366000D03*
X125476000Y-134366000D03*
X122936000Y-134366000D03*
D11*
X105156000Y-134366000D03*
D12*
X102616000Y-134366000D03*
X100076000Y-134366000D03*
X97536000Y-134366000D03*
D11*
X92456000Y-134366000D03*
D12*
X89916000Y-134366000D03*
X87376000Y-134366000D03*
X84836000Y-134366000D03*
D11*
X78994000Y-134366000D03*
D12*
X76454000Y-134366000D03*
X73914000Y-134366000D03*
X71374000Y-134366000D03*
D11*
X109982000Y-105918000D03*
D12*
X109982000Y-103378000D03*
X109982000Y-100838000D03*
X109982000Y-98298000D03*
D11*
X109982000Y-95758000D03*
D12*
X109982000Y-93218000D03*
X109982000Y-90678000D03*
X109982000Y-88138000D03*
D11*
X153162000Y-134366000D03*
D12*
X150622000Y-134366000D03*
X148082000Y-134366000D03*
X145542000Y-134366000D03*
D11*
X73025000Y-109093000D03*
D12*
X73025000Y-111633000D03*
X73025000Y-114173000D03*
X73025000Y-116713000D03*
D11*
X117602000Y-105664000D03*
D12*
X117602000Y-103124000D03*
X117602000Y-100584000D03*
D11*
X71882000Y-40386000D03*
D12*
X74422000Y-40386000D03*
D11*
X137922000Y-134366000D03*
D12*
X140462000Y-134366000D03*
D11*
X81502000Y-40386000D03*
D12*
X84042000Y-40386000D03*
D11*
X160020000Y-90170000D03*
D12*
X160020000Y-92710000D03*
D11*
X91122000Y-40386000D03*
D12*
X93662000Y-40386000D03*
D11*
X160020000Y-78740000D03*
D12*
X160020000Y-76200000D03*
D11*
X100742000Y-40386000D03*
D12*
X103282000Y-40386000D03*
D11*
X67056000Y-99314000D03*
D12*
X69596000Y-99314000D03*
X72136000Y-99314000D03*
X74676000Y-99314000D03*
X77216000Y-99314000D03*
X79756000Y-99314000D03*
X82296000Y-99314000D03*
X84836000Y-99314000D03*
X87376000Y-99314000D03*
X89916000Y-99314000D03*
X92456000Y-99314000D03*
X94996000Y-99314000D03*
X97536000Y-99314000D03*
D11*
X97028000Y-84074000D03*
D12*
X94488000Y-84074000D03*
X91948000Y-84074000D03*
X89408000Y-84074000D03*
X86868000Y-84074000D03*
X84328000Y-84074000D03*
X81788000Y-84074000D03*
X79248000Y-84074000D03*
X76708000Y-84074000D03*
X74168000Y-84074000D03*
X71628000Y-84074000D03*
X69088000Y-84074000D03*
X66548000Y-84074000D03*
D11*
X78105000Y-111379000D03*
D12*
X80645000Y-111379000D03*
X83185000Y-111379000D03*
X85725000Y-111379000D03*
X88265000Y-111379000D03*
X90805000Y-111379000D03*
X93345000Y-111379000D03*
X95885000Y-111379000D03*
X98425000Y-111379000D03*
X100965000Y-111379000D03*
X74422000Y-45466000D03*
X71882000Y-45466000D03*
X103282000Y-45466000D03*
X100742000Y-45466000D03*
X93662000Y-45466000D03*
X91122000Y-45466000D03*
X84042000Y-45466000D03*
X81502000Y-45466000D03*
D16*
X147193000Y-47371000D03*
X147193000Y-46101000D03*
X147193000Y-44831000D03*
X147193000Y-43561000D03*
X153543000Y-43561000D03*
X153543000Y-44831000D03*
X153543000Y-46101000D03*
X153543000Y-47371000D03*
X147193000Y-58039000D03*
X147193000Y-56769000D03*
X147193000Y-55499000D03*
X147193000Y-54229000D03*
X153543000Y-54229000D03*
X153543000Y-55499000D03*
X153543000Y-56769000D03*
X153543000Y-58039000D03*
X147193000Y-68707000D03*
X147193000Y-67437000D03*
X147193000Y-66167000D03*
X147193000Y-64897000D03*
X153543000Y-64897000D03*
X153543000Y-66167000D03*
X153543000Y-67437000D03*
X153543000Y-68707000D03*
X147193000Y-79375000D03*
X147193000Y-78105000D03*
X147193000Y-76835000D03*
X147193000Y-75565000D03*
X153543000Y-75565000D03*
X153543000Y-76835000D03*
X153543000Y-78105000D03*
X153543000Y-79375000D03*
X147193000Y-90043000D03*
X147193000Y-88773000D03*
X147193000Y-87503000D03*
X147193000Y-86233000D03*
X153543000Y-86233000D03*
X153543000Y-87503000D03*
X153543000Y-88773000D03*
X153543000Y-90043000D03*
D17*
X156530040Y-47386240D03*
X156530040Y-46085760D03*
X158429960Y-46736000D03*
X155768040Y-58054240D03*
X155768040Y-56753760D03*
X157667960Y-57404000D03*
X156276040Y-68722240D03*
X156276040Y-67421760D03*
X158175960Y-68072000D03*
X155768040Y-79390240D03*
X155768040Y-78089760D03*
X157667960Y-78740000D03*
X155768040Y-90058240D03*
X155768040Y-88757760D03*
X157667960Y-89408000D03*
D18*
X158496000Y-41402000D03*
X66548000Y-133350000D03*
X66548000Y-41402000D03*
X158496000Y-133350000D03*
D19*
X148000000Y-109100000D03*
X154500000Y-109100000D03*
D20*
X151500000Y-104600000D03*
D19*
X148000000Y-121100000D03*
X154500000Y-121100000D03*
D20*
X151500000Y-116600000D03*
D21*
X78000000Y-64100000D03*
X83000000Y-64100000D03*
X80500000Y-61600000D03*
X88000000Y-64100000D03*
X93000000Y-64100000D03*
X90500000Y-61600000D03*
X98000000Y-64100000D03*
X103000000Y-64100000D03*
X100500000Y-61600000D03*
X68000000Y-64100000D03*
X73000000Y-64100000D03*
X70500000Y-61600000D03*
M02*
