G04 #@! TF.FileFunction,Legend,Top*
%FSLAX46Y46*%
G04 Gerber Fmt 4.6, Leading zero omitted, Abs format (unit mm)*
G04 Created by KiCad (PCBNEW 4.0.6) date 04/09/17 13:57:38*
%MOMM*%
%LPD*%
G01*
G04 APERTURE LIST*
%ADD10C,0.150000*%
%ADD11C,0.304800*%
%ADD12C,0.127000*%
%ADD13R,1.905000X1.905000*%
%ADD14C,1.905000*%
%ADD15R,2.032000X2.540000*%
%ADD16R,2.540000X2.032000*%
%ADD17R,1.397000X1.905000*%
%ADD18R,1.651000X1.016000*%
%ADD19R,1.508760X1.107440*%
%ADD20C,6.507480*%
%ADD21R,2.308000X3.708000*%
%ADD22R,3.708000X2.308000*%
%ADD23R,2.508000X1.508000*%
G04 APERTURE END LIST*
D10*
D11*
X144090571Y-132134429D02*
X144090571Y-130610429D01*
X144598571Y-131699000D01*
X145106571Y-130610429D01*
X145106571Y-132134429D01*
X146485428Y-132134429D02*
X146485428Y-131336143D01*
X146412857Y-131191000D01*
X146267714Y-131118429D01*
X145977428Y-131118429D01*
X145832285Y-131191000D01*
X146485428Y-132061857D02*
X146340285Y-132134429D01*
X145977428Y-132134429D01*
X145832285Y-132061857D01*
X145759714Y-131916714D01*
X145759714Y-131771571D01*
X145832285Y-131626429D01*
X145977428Y-131553857D01*
X146340285Y-131553857D01*
X146485428Y-131481286D01*
X147138571Y-132061857D02*
X147283714Y-132134429D01*
X147573999Y-132134429D01*
X147719142Y-132061857D01*
X147791714Y-131916714D01*
X147791714Y-131844143D01*
X147719142Y-131699000D01*
X147573999Y-131626429D01*
X147356285Y-131626429D01*
X147211142Y-131553857D01*
X147138571Y-131408714D01*
X147138571Y-131336143D01*
X147211142Y-131191000D01*
X147356285Y-131118429D01*
X147573999Y-131118429D01*
X147719142Y-131191000D01*
X148372285Y-132061857D02*
X148517428Y-132134429D01*
X148807713Y-132134429D01*
X148952856Y-132061857D01*
X149025428Y-131916714D01*
X149025428Y-131844143D01*
X148952856Y-131699000D01*
X148807713Y-131626429D01*
X148589999Y-131626429D01*
X148444856Y-131553857D01*
X148372285Y-131408714D01*
X148372285Y-131336143D01*
X148444856Y-131191000D01*
X148589999Y-131118429D01*
X148807713Y-131118429D01*
X148952856Y-131191000D01*
X150259142Y-132061857D02*
X150113999Y-132134429D01*
X149823713Y-132134429D01*
X149678570Y-132061857D01*
X149605999Y-131916714D01*
X149605999Y-131336143D01*
X149678570Y-131191000D01*
X149823713Y-131118429D01*
X150113999Y-131118429D01*
X150259142Y-131191000D01*
X150331713Y-131336143D01*
X150331713Y-131481286D01*
X149605999Y-131626429D01*
X152944285Y-132134429D02*
X152073428Y-132134429D01*
X152508856Y-132134429D02*
X152508856Y-130610429D01*
X152363713Y-130828143D01*
X152218571Y-130973286D01*
X152073428Y-131045857D01*
X153524857Y-130755571D02*
X153597428Y-130683000D01*
X153742571Y-130610429D01*
X154105428Y-130610429D01*
X154250571Y-130683000D01*
X154323142Y-130755571D01*
X154395714Y-130900714D01*
X154395714Y-131045857D01*
X154323142Y-131263571D01*
X153452285Y-132134429D01*
X154395714Y-132134429D01*
X154831143Y-130610429D02*
X155339143Y-132134429D01*
X155847143Y-130610429D01*
X134021285Y-132134429D02*
X133150428Y-132134429D01*
X133585856Y-132134429D02*
X133585856Y-130610429D01*
X133440713Y-130828143D01*
X133295571Y-130973286D01*
X133150428Y-131045857D01*
X134601857Y-130755571D02*
X134674428Y-130683000D01*
X134819571Y-130610429D01*
X135182428Y-130610429D01*
X135327571Y-130683000D01*
X135400142Y-130755571D01*
X135472714Y-130900714D01*
X135472714Y-131045857D01*
X135400142Y-131263571D01*
X134529285Y-132134429D01*
X135472714Y-132134429D01*
X135908143Y-130610429D02*
X136416143Y-132134429D01*
X136924143Y-130610429D01*
X138230429Y-132134429D02*
X137359572Y-132134429D01*
X137795000Y-132134429D02*
X137795000Y-130610429D01*
X137649857Y-130828143D01*
X137504715Y-130973286D01*
X137359572Y-131045857D01*
X139246429Y-132642429D02*
X139246429Y-130465286D01*
X140117287Y-130610429D02*
X140625287Y-132134429D01*
X141133287Y-130610429D01*
X141568716Y-130755571D02*
X141641287Y-130683000D01*
X141786430Y-130610429D01*
X142149287Y-130610429D01*
X142294430Y-130683000D01*
X142367001Y-130755571D01*
X142439573Y-130900714D01*
X142439573Y-131045857D01*
X142367001Y-131263571D01*
X141496144Y-132134429D01*
X142439573Y-132134429D01*
X123244428Y-130610429D02*
X123752428Y-132134429D01*
X124260428Y-130610429D01*
X124695857Y-130755571D02*
X124768428Y-130683000D01*
X124913571Y-130610429D01*
X125276428Y-130610429D01*
X125421571Y-130683000D01*
X125494142Y-130755571D01*
X125566714Y-130900714D01*
X125566714Y-131045857D01*
X125494142Y-131263571D01*
X124623285Y-132134429D01*
X125566714Y-132134429D01*
X126582714Y-132642429D02*
X126582714Y-130465286D01*
X127598715Y-132061857D02*
X127816429Y-132134429D01*
X128179286Y-132134429D01*
X128324429Y-132061857D01*
X128397000Y-131989286D01*
X128469572Y-131844143D01*
X128469572Y-131699000D01*
X128397000Y-131553857D01*
X128324429Y-131481286D01*
X128179286Y-131408714D01*
X127889000Y-131336143D01*
X127743858Y-131263571D01*
X127671286Y-131191000D01*
X127598715Y-131045857D01*
X127598715Y-130900714D01*
X127671286Y-130755571D01*
X127743858Y-130683000D01*
X127889000Y-130610429D01*
X128251858Y-130610429D01*
X128469572Y-130683000D01*
X129703287Y-132061857D02*
X129558144Y-132134429D01*
X129267858Y-132134429D01*
X129122715Y-132061857D01*
X129050144Y-131916714D01*
X129050144Y-131336143D01*
X129122715Y-131191000D01*
X129267858Y-131118429D01*
X129558144Y-131118429D01*
X129703287Y-131191000D01*
X129775858Y-131336143D01*
X129775858Y-131481286D01*
X129050144Y-131626429D01*
X130646715Y-132134429D02*
X130501573Y-132061857D01*
X130429001Y-131916714D01*
X130429001Y-130610429D01*
X131009573Y-130610429D02*
X131517573Y-132134429D01*
X132025573Y-130610429D01*
X110689571Y-130610429D02*
X111197571Y-132134429D01*
X111705571Y-130610429D01*
X113011857Y-132134429D02*
X112141000Y-132134429D01*
X112576428Y-132134429D02*
X112576428Y-130610429D01*
X112431285Y-130828143D01*
X112286143Y-130973286D01*
X112141000Y-131045857D01*
X114027857Y-132642429D02*
X114027857Y-130465286D01*
X114898715Y-130610429D02*
X115406715Y-132134429D01*
X115914715Y-130610429D01*
X116422715Y-132134429D02*
X116422715Y-130610429D01*
X116930715Y-131699000D01*
X117438715Y-130610429D01*
X117438715Y-132134429D01*
X119035286Y-131989286D02*
X118962715Y-132061857D01*
X118745001Y-132134429D01*
X118599858Y-132134429D01*
X118382143Y-132061857D01*
X118237001Y-131916714D01*
X118164429Y-131771571D01*
X118091858Y-131481286D01*
X118091858Y-131263571D01*
X118164429Y-130973286D01*
X118237001Y-130828143D01*
X118382143Y-130683000D01*
X118599858Y-130610429D01*
X118745001Y-130610429D01*
X118962715Y-130683000D01*
X119035286Y-130755571D01*
X96574428Y-131989286D02*
X96501857Y-132061857D01*
X96284143Y-132134429D01*
X96139000Y-132134429D01*
X95921285Y-132061857D01*
X95776143Y-131916714D01*
X95703571Y-131771571D01*
X95631000Y-131481286D01*
X95631000Y-131263571D01*
X95703571Y-130973286D01*
X95776143Y-130828143D01*
X95921285Y-130683000D01*
X96139000Y-130610429D01*
X96284143Y-130610429D01*
X96501857Y-130683000D01*
X96574428Y-130755571D01*
X97880714Y-132134429D02*
X97880714Y-131336143D01*
X97808143Y-131191000D01*
X97663000Y-131118429D01*
X97372714Y-131118429D01*
X97227571Y-131191000D01*
X97880714Y-132061857D02*
X97735571Y-132134429D01*
X97372714Y-132134429D01*
X97227571Y-132061857D01*
X97155000Y-131916714D01*
X97155000Y-131771571D01*
X97227571Y-131626429D01*
X97372714Y-131553857D01*
X97735571Y-131553857D01*
X97880714Y-131481286D01*
X98461285Y-131118429D02*
X98824142Y-132134429D01*
X99187000Y-131118429D01*
X100348143Y-132061857D02*
X100203000Y-132134429D01*
X99912714Y-132134429D01*
X99767571Y-132061857D01*
X99695000Y-131916714D01*
X99695000Y-131336143D01*
X99767571Y-131191000D01*
X99912714Y-131118429D01*
X100203000Y-131118429D01*
X100348143Y-131191000D01*
X100420714Y-131336143D01*
X100420714Y-131481286D01*
X99695000Y-131626429D01*
X101436714Y-132642429D02*
X101436714Y-130465286D01*
X103396143Y-131989286D02*
X103323572Y-132061857D01*
X103105858Y-132134429D01*
X102960715Y-132134429D01*
X102743000Y-132061857D01*
X102597858Y-131916714D01*
X102525286Y-131771571D01*
X102452715Y-131481286D01*
X102452715Y-131263571D01*
X102525286Y-130973286D01*
X102597858Y-130828143D01*
X102743000Y-130683000D01*
X102960715Y-130610429D01*
X103105858Y-130610429D01*
X103323572Y-130683000D01*
X103396143Y-130755571D01*
X104049286Y-132134429D02*
X104049286Y-130610429D01*
X104702429Y-132134429D02*
X104702429Y-131336143D01*
X104629858Y-131191000D01*
X104484715Y-131118429D01*
X104267000Y-131118429D01*
X104121858Y-131191000D01*
X104049286Y-131263571D01*
X106008715Y-132061857D02*
X105863572Y-132134429D01*
X105573286Y-132134429D01*
X105428143Y-132061857D01*
X105355572Y-131916714D01*
X105355572Y-131336143D01*
X105428143Y-131191000D01*
X105573286Y-131118429D01*
X105863572Y-131118429D01*
X106008715Y-131191000D01*
X106081286Y-131336143D01*
X106081286Y-131481286D01*
X105355572Y-131626429D01*
X106734429Y-132134429D02*
X106734429Y-131118429D01*
X106734429Y-131263571D02*
X106807001Y-131191000D01*
X106952143Y-131118429D01*
X107169858Y-131118429D01*
X107315001Y-131191000D01*
X107387572Y-131336143D01*
X107387572Y-132134429D01*
X107387572Y-131336143D02*
X107460143Y-131191000D01*
X107605286Y-131118429D01*
X107823001Y-131118429D01*
X107968143Y-131191000D01*
X108040715Y-131336143D01*
X108040715Y-132134429D01*
X108766429Y-131989286D02*
X108839001Y-132061857D01*
X108766429Y-132134429D01*
X108693858Y-132061857D01*
X108766429Y-131989286D01*
X108766429Y-132134429D01*
X85017429Y-131336143D02*
X85235143Y-131408714D01*
X85307715Y-131481286D01*
X85380286Y-131626429D01*
X85380286Y-131844143D01*
X85307715Y-131989286D01*
X85235143Y-132061857D01*
X85090001Y-132134429D01*
X84509429Y-132134429D01*
X84509429Y-130610429D01*
X85017429Y-130610429D01*
X85162572Y-130683000D01*
X85235143Y-130755571D01*
X85307715Y-130900714D01*
X85307715Y-131045857D01*
X85235143Y-131191000D01*
X85162572Y-131263571D01*
X85017429Y-131336143D01*
X84509429Y-131336143D01*
X85888286Y-131118429D02*
X86251143Y-132134429D01*
X86614001Y-131118429D02*
X86251143Y-132134429D01*
X86106001Y-132497286D01*
X86033429Y-132569857D01*
X85888286Y-132642429D01*
X87194572Y-132134429D02*
X87194572Y-130610429D01*
X87775144Y-130610429D01*
X87920286Y-130683000D01*
X87992858Y-130755571D01*
X88065429Y-130900714D01*
X88065429Y-131118429D01*
X87992858Y-131263571D01*
X87920286Y-131336143D01*
X87775144Y-131408714D01*
X87194572Y-131408714D01*
X89371715Y-132134429D02*
X89371715Y-131336143D01*
X89299144Y-131191000D01*
X89154001Y-131118429D01*
X88863715Y-131118429D01*
X88718572Y-131191000D01*
X89371715Y-132061857D02*
X89226572Y-132134429D01*
X88863715Y-132134429D01*
X88718572Y-132061857D01*
X88646001Y-131916714D01*
X88646001Y-131771571D01*
X88718572Y-131626429D01*
X88863715Y-131553857D01*
X89226572Y-131553857D01*
X89371715Y-131481286D01*
X90024858Y-132061857D02*
X90170001Y-132134429D01*
X90460286Y-132134429D01*
X90605429Y-132061857D01*
X90678001Y-131916714D01*
X90678001Y-131844143D01*
X90605429Y-131699000D01*
X90460286Y-131626429D01*
X90242572Y-131626429D01*
X90097429Y-131553857D01*
X90024858Y-131408714D01*
X90024858Y-131336143D01*
X90097429Y-131191000D01*
X90242572Y-131118429D01*
X90460286Y-131118429D01*
X90605429Y-131191000D01*
X91258572Y-132061857D02*
X91403715Y-132134429D01*
X91694000Y-132134429D01*
X91839143Y-132061857D01*
X91911715Y-131916714D01*
X91911715Y-131844143D01*
X91839143Y-131699000D01*
X91694000Y-131626429D01*
X91476286Y-131626429D01*
X91331143Y-131553857D01*
X91258572Y-131408714D01*
X91258572Y-131336143D01*
X91331143Y-131191000D01*
X91476286Y-131118429D01*
X91694000Y-131118429D01*
X91839143Y-131191000D01*
X92492286Y-130755571D02*
X92564857Y-130683000D01*
X92710000Y-130610429D01*
X93072857Y-130610429D01*
X93218000Y-130683000D01*
X93290571Y-130755571D01*
X93363143Y-130900714D01*
X93363143Y-131045857D01*
X93290571Y-131263571D01*
X92419714Y-132134429D01*
X93363143Y-132134429D01*
X71047429Y-131336143D02*
X71265143Y-131408714D01*
X71337715Y-131481286D01*
X71410286Y-131626429D01*
X71410286Y-131844143D01*
X71337715Y-131989286D01*
X71265143Y-132061857D01*
X71120001Y-132134429D01*
X70539429Y-132134429D01*
X70539429Y-130610429D01*
X71047429Y-130610429D01*
X71192572Y-130683000D01*
X71265143Y-130755571D01*
X71337715Y-130900714D01*
X71337715Y-131045857D01*
X71265143Y-131191000D01*
X71192572Y-131263571D01*
X71047429Y-131336143D01*
X70539429Y-131336143D01*
X71918286Y-131118429D02*
X72281143Y-132134429D01*
X72644001Y-131118429D02*
X72281143Y-132134429D01*
X72136001Y-132497286D01*
X72063429Y-132569857D01*
X71918286Y-132642429D01*
X73224572Y-132134429D02*
X73224572Y-130610429D01*
X73805144Y-130610429D01*
X73950286Y-130683000D01*
X74022858Y-130755571D01*
X74095429Y-130900714D01*
X74095429Y-131118429D01*
X74022858Y-131263571D01*
X73950286Y-131336143D01*
X73805144Y-131408714D01*
X73224572Y-131408714D01*
X75401715Y-132134429D02*
X75401715Y-131336143D01*
X75329144Y-131191000D01*
X75184001Y-131118429D01*
X74893715Y-131118429D01*
X74748572Y-131191000D01*
X75401715Y-132061857D02*
X75256572Y-132134429D01*
X74893715Y-132134429D01*
X74748572Y-132061857D01*
X74676001Y-131916714D01*
X74676001Y-131771571D01*
X74748572Y-131626429D01*
X74893715Y-131553857D01*
X75256572Y-131553857D01*
X75401715Y-131481286D01*
X76054858Y-132061857D02*
X76200001Y-132134429D01*
X76490286Y-132134429D01*
X76635429Y-132061857D01*
X76708001Y-131916714D01*
X76708001Y-131844143D01*
X76635429Y-131699000D01*
X76490286Y-131626429D01*
X76272572Y-131626429D01*
X76127429Y-131553857D01*
X76054858Y-131408714D01*
X76054858Y-131336143D01*
X76127429Y-131191000D01*
X76272572Y-131118429D01*
X76490286Y-131118429D01*
X76635429Y-131191000D01*
X77288572Y-132061857D02*
X77433715Y-132134429D01*
X77724000Y-132134429D01*
X77869143Y-132061857D01*
X77941715Y-131916714D01*
X77941715Y-131844143D01*
X77869143Y-131699000D01*
X77724000Y-131626429D01*
X77506286Y-131626429D01*
X77361143Y-131553857D01*
X77288572Y-131408714D01*
X77288572Y-131336143D01*
X77361143Y-131191000D01*
X77506286Y-131118429D01*
X77724000Y-131118429D01*
X77869143Y-131191000D01*
X79393143Y-132134429D02*
X78522286Y-132134429D01*
X78957714Y-132134429D02*
X78957714Y-130610429D01*
X78812571Y-130828143D01*
X78667429Y-130973286D01*
X78522286Y-131045857D01*
X115551857Y-109873143D02*
X115624429Y-109655429D01*
X115624429Y-109292572D01*
X115551857Y-109147429D01*
X115479286Y-109074858D01*
X115334143Y-109002286D01*
X115189000Y-109002286D01*
X115043857Y-109074858D01*
X114971286Y-109147429D01*
X114898714Y-109292572D01*
X114826143Y-109582858D01*
X114753571Y-109728000D01*
X114681000Y-109800572D01*
X114535857Y-109873143D01*
X114390714Y-109873143D01*
X114245571Y-109800572D01*
X114173000Y-109728000D01*
X114100429Y-109582858D01*
X114100429Y-109220000D01*
X114173000Y-109002286D01*
X115551857Y-107696000D02*
X115624429Y-107841143D01*
X115624429Y-108131429D01*
X115551857Y-108276571D01*
X115479286Y-108349143D01*
X115334143Y-108421714D01*
X114898714Y-108421714D01*
X114753571Y-108349143D01*
X114681000Y-108276571D01*
X114608429Y-108131429D01*
X114608429Y-107841143D01*
X114681000Y-107696000D01*
X115624429Y-107042857D02*
X114608429Y-107042857D01*
X114898714Y-107042857D02*
X114753571Y-106970285D01*
X114681000Y-106897714D01*
X114608429Y-106752571D01*
X114608429Y-106607428D01*
X115551857Y-105518856D02*
X115624429Y-105663999D01*
X115624429Y-105954285D01*
X115551857Y-106099428D01*
X115406714Y-106171999D01*
X114826143Y-106171999D01*
X114681000Y-106099428D01*
X114608429Y-105954285D01*
X114608429Y-105663999D01*
X114681000Y-105518856D01*
X114826143Y-105446285D01*
X114971286Y-105446285D01*
X115116429Y-106171999D01*
X115551857Y-104212570D02*
X115624429Y-104357713D01*
X115624429Y-104647999D01*
X115551857Y-104793142D01*
X115406714Y-104865713D01*
X114826143Y-104865713D01*
X114681000Y-104793142D01*
X114608429Y-104647999D01*
X114608429Y-104357713D01*
X114681000Y-104212570D01*
X114826143Y-104139999D01*
X114971286Y-104139999D01*
X115116429Y-104865713D01*
X114608429Y-103486856D02*
X115624429Y-103486856D01*
X114753571Y-103486856D02*
X114681000Y-103414284D01*
X114608429Y-103269142D01*
X114608429Y-103051427D01*
X114681000Y-102906284D01*
X114826143Y-102833713D01*
X115624429Y-102833713D01*
X115551857Y-101019427D02*
X115624429Y-100801713D01*
X115624429Y-100438856D01*
X115551857Y-100293713D01*
X115479286Y-100221142D01*
X115334143Y-100148570D01*
X115189000Y-100148570D01*
X115043857Y-100221142D01*
X114971286Y-100293713D01*
X114898714Y-100438856D01*
X114826143Y-100729142D01*
X114753571Y-100874284D01*
X114681000Y-100946856D01*
X114535857Y-101019427D01*
X114390714Y-101019427D01*
X114245571Y-100946856D01*
X114173000Y-100874284D01*
X114100429Y-100729142D01*
X114100429Y-100366284D01*
X114173000Y-100148570D01*
X114100429Y-99640570D02*
X115624429Y-99277713D01*
X114535857Y-98987427D01*
X115624429Y-98697141D01*
X114100429Y-98334284D01*
X108004429Y-96520000D02*
X107278714Y-97028000D01*
X108004429Y-97390857D02*
X106480429Y-97390857D01*
X106480429Y-96810285D01*
X106553000Y-96665143D01*
X106625571Y-96592571D01*
X106770714Y-96520000D01*
X106988429Y-96520000D01*
X107133571Y-96592571D01*
X107206143Y-96665143D01*
X107278714Y-96810285D01*
X107278714Y-97390857D01*
X106480429Y-96084571D02*
X106480429Y-95213714D01*
X108004429Y-95649143D02*
X106480429Y-95649143D01*
X107859286Y-92673714D02*
X107931857Y-92746285D01*
X108004429Y-92963999D01*
X108004429Y-93109142D01*
X107931857Y-93326857D01*
X107786714Y-93471999D01*
X107641571Y-93544571D01*
X107351286Y-93617142D01*
X107133571Y-93617142D01*
X106843286Y-93544571D01*
X106698143Y-93471999D01*
X106553000Y-93326857D01*
X106480429Y-93109142D01*
X106480429Y-92963999D01*
X106553000Y-92746285D01*
X106625571Y-92673714D01*
X108004429Y-91802857D02*
X107931857Y-91947999D01*
X107786714Y-92020571D01*
X106480429Y-92020571D01*
X108004429Y-91004571D02*
X107931857Y-91149713D01*
X107859286Y-91222285D01*
X107714143Y-91294856D01*
X107278714Y-91294856D01*
X107133571Y-91222285D01*
X107061000Y-91149713D01*
X106988429Y-91004571D01*
X106988429Y-90786856D01*
X107061000Y-90641713D01*
X107133571Y-90569142D01*
X107278714Y-90496571D01*
X107714143Y-90496571D01*
X107859286Y-90569142D01*
X107931857Y-90641713D01*
X108004429Y-90786856D01*
X108004429Y-91004571D01*
X107931857Y-89190285D02*
X108004429Y-89335428D01*
X108004429Y-89625714D01*
X107931857Y-89770856D01*
X107859286Y-89843428D01*
X107714143Y-89915999D01*
X107278714Y-89915999D01*
X107133571Y-89843428D01*
X107061000Y-89770856D01*
X106988429Y-89625714D01*
X106988429Y-89335428D01*
X107061000Y-89190285D01*
X108004429Y-88537142D02*
X106480429Y-88537142D01*
X107423857Y-88391999D02*
X108004429Y-87956570D01*
X106988429Y-87956570D02*
X107569000Y-88537142D01*
X122536857Y-92710000D02*
X122609429Y-92492286D01*
X122609429Y-92129429D01*
X122536857Y-91984286D01*
X122464286Y-91911715D01*
X122319143Y-91839143D01*
X122174000Y-91839143D01*
X122028857Y-91911715D01*
X121956286Y-91984286D01*
X121883714Y-92129429D01*
X121811143Y-92419715D01*
X121738571Y-92564857D01*
X121666000Y-92637429D01*
X121520857Y-92710000D01*
X121375714Y-92710000D01*
X121230571Y-92637429D01*
X121158000Y-92564857D01*
X121085429Y-92419715D01*
X121085429Y-92056857D01*
X121158000Y-91839143D01*
X122609429Y-91186000D02*
X121085429Y-91186000D01*
X121085429Y-90823143D01*
X121158000Y-90605428D01*
X121303143Y-90460286D01*
X121448286Y-90387714D01*
X121738571Y-90315143D01*
X121956286Y-90315143D01*
X122246571Y-90387714D01*
X122391714Y-90460286D01*
X122536857Y-90605428D01*
X122609429Y-90823143D01*
X122609429Y-91186000D01*
X122464286Y-88791143D02*
X122536857Y-88863714D01*
X122609429Y-89081428D01*
X122609429Y-89226571D01*
X122536857Y-89444286D01*
X122391714Y-89589428D01*
X122246571Y-89662000D01*
X121956286Y-89734571D01*
X121738571Y-89734571D01*
X121448286Y-89662000D01*
X121303143Y-89589428D01*
X121158000Y-89444286D01*
X121085429Y-89226571D01*
X121085429Y-89081428D01*
X121158000Y-88863714D01*
X121230571Y-88791143D01*
X122609429Y-87484857D02*
X121811143Y-87484857D01*
X121666000Y-87557428D01*
X121593429Y-87702571D01*
X121593429Y-87992857D01*
X121666000Y-88138000D01*
X122536857Y-87484857D02*
X122609429Y-87630000D01*
X122609429Y-87992857D01*
X122536857Y-88138000D01*
X122391714Y-88210571D01*
X122246571Y-88210571D01*
X122101429Y-88138000D01*
X122028857Y-87992857D01*
X122028857Y-87630000D01*
X121956286Y-87484857D01*
X122609429Y-86759143D02*
X121593429Y-86759143D01*
X121883714Y-86759143D02*
X121738571Y-86686571D01*
X121666000Y-86614000D01*
X121593429Y-86468857D01*
X121593429Y-86323714D01*
X122609429Y-85162571D02*
X121085429Y-85162571D01*
X122536857Y-85162571D02*
X122609429Y-85307714D01*
X122609429Y-85598000D01*
X122536857Y-85743142D01*
X122464286Y-85815714D01*
X122319143Y-85888285D01*
X121883714Y-85888285D01*
X121738571Y-85815714D01*
X121666000Y-85743142D01*
X121593429Y-85598000D01*
X121593429Y-85307714D01*
X121666000Y-85162571D01*
X126800429Y-108349143D02*
X126800429Y-107478286D01*
X128324429Y-107913715D02*
X126800429Y-107913715D01*
X127526143Y-106462286D02*
X127526143Y-106970286D01*
X128324429Y-106970286D02*
X126800429Y-106970286D01*
X126800429Y-106244572D01*
X126800429Y-105881714D02*
X126800429Y-105010857D01*
X128324429Y-105446286D02*
X126800429Y-105446286D01*
X70013286Y-119996857D02*
X70231000Y-120069429D01*
X70593857Y-120069429D01*
X70739000Y-119996857D01*
X70811571Y-119924286D01*
X70884143Y-119779143D01*
X70884143Y-119634000D01*
X70811571Y-119488857D01*
X70739000Y-119416286D01*
X70593857Y-119343714D01*
X70303571Y-119271143D01*
X70158429Y-119198571D01*
X70085857Y-119126000D01*
X70013286Y-118980857D01*
X70013286Y-118835714D01*
X70085857Y-118690571D01*
X70158429Y-118618000D01*
X70303571Y-118545429D01*
X70666429Y-118545429D01*
X70884143Y-118618000D01*
X72117858Y-119996857D02*
X71972715Y-120069429D01*
X71682429Y-120069429D01*
X71537286Y-119996857D01*
X71464715Y-119851714D01*
X71464715Y-119271143D01*
X71537286Y-119126000D01*
X71682429Y-119053429D01*
X71972715Y-119053429D01*
X72117858Y-119126000D01*
X72190429Y-119271143D01*
X72190429Y-119416286D01*
X71464715Y-119561429D01*
X72843572Y-120069429D02*
X72843572Y-119053429D01*
X72843572Y-119343714D02*
X72916144Y-119198571D01*
X72988715Y-119126000D01*
X73133858Y-119053429D01*
X73279001Y-119053429D01*
X73787001Y-120069429D02*
X73787001Y-119053429D01*
X73787001Y-118545429D02*
X73714430Y-118618000D01*
X73787001Y-118690571D01*
X73859573Y-118618000D01*
X73787001Y-118545429D01*
X73787001Y-118690571D01*
X75165858Y-120069429D02*
X75165858Y-119271143D01*
X75093287Y-119126000D01*
X74948144Y-119053429D01*
X74657858Y-119053429D01*
X74512715Y-119126000D01*
X75165858Y-119996857D02*
X75020715Y-120069429D01*
X74657858Y-120069429D01*
X74512715Y-119996857D01*
X74440144Y-119851714D01*
X74440144Y-119706571D01*
X74512715Y-119561429D01*
X74657858Y-119488857D01*
X75020715Y-119488857D01*
X75165858Y-119416286D01*
X76109286Y-120069429D02*
X75964144Y-119996857D01*
X75891572Y-119851714D01*
X75891572Y-118545429D01*
X65659000Y-101400429D02*
X66529857Y-101400429D01*
X66094428Y-102924429D02*
X66094428Y-101400429D01*
X67618429Y-102851857D02*
X67473286Y-102924429D01*
X67183000Y-102924429D01*
X67037857Y-102851857D01*
X66965286Y-102706714D01*
X66965286Y-102126143D01*
X67037857Y-101981000D01*
X67183000Y-101908429D01*
X67473286Y-101908429D01*
X67618429Y-101981000D01*
X67691000Y-102126143D01*
X67691000Y-102271286D01*
X66965286Y-102416429D01*
X68924715Y-102851857D02*
X68779572Y-102924429D01*
X68489286Y-102924429D01*
X68344143Y-102851857D01*
X68271572Y-102706714D01*
X68271572Y-102126143D01*
X68344143Y-101981000D01*
X68489286Y-101908429D01*
X68779572Y-101908429D01*
X68924715Y-101981000D01*
X68997286Y-102126143D01*
X68997286Y-102271286D01*
X68271572Y-102416429D01*
X69650429Y-101908429D02*
X69650429Y-102924429D01*
X69650429Y-102053571D02*
X69723001Y-101981000D01*
X69868143Y-101908429D01*
X70085858Y-101908429D01*
X70231001Y-101981000D01*
X70303572Y-102126143D01*
X70303572Y-102924429D01*
X70956715Y-102851857D02*
X71101858Y-102924429D01*
X71392143Y-102924429D01*
X71537286Y-102851857D01*
X71609858Y-102706714D01*
X71609858Y-102634143D01*
X71537286Y-102489000D01*
X71392143Y-102416429D01*
X71174429Y-102416429D01*
X71029286Y-102343857D01*
X70956715Y-102198714D01*
X70956715Y-102126143D01*
X71029286Y-101981000D01*
X71174429Y-101908429D01*
X71392143Y-101908429D01*
X71537286Y-101981000D01*
X72117857Y-101908429D02*
X72480714Y-102924429D01*
X72843572Y-101908429D02*
X72480714Y-102924429D01*
X72335572Y-103287286D01*
X72263000Y-103359857D01*
X72117857Y-103432429D01*
X74440143Y-101400429D02*
X75383572Y-101400429D01*
X74875572Y-101981000D01*
X75093286Y-101981000D01*
X75238429Y-102053571D01*
X75311000Y-102126143D01*
X75383572Y-102271286D01*
X75383572Y-102634143D01*
X75311000Y-102779286D01*
X75238429Y-102851857D01*
X75093286Y-102924429D01*
X74657858Y-102924429D01*
X74512715Y-102851857D01*
X74440143Y-102779286D01*
X76036715Y-102779286D02*
X76109287Y-102851857D01*
X76036715Y-102924429D01*
X75964144Y-102851857D01*
X76036715Y-102779286D01*
X76036715Y-102924429D01*
X77560715Y-102924429D02*
X76689858Y-102924429D01*
X77125286Y-102924429D02*
X77125286Y-101400429D01*
X76980143Y-101618143D01*
X76835001Y-101763286D01*
X76689858Y-101835857D01*
X79302430Y-101327857D02*
X77996144Y-103287286D01*
X79665286Y-101400429D02*
X80608715Y-101400429D01*
X80100715Y-101981000D01*
X80318429Y-101981000D01*
X80463572Y-102053571D01*
X80536143Y-102126143D01*
X80608715Y-102271286D01*
X80608715Y-102634143D01*
X80536143Y-102779286D01*
X80463572Y-102851857D01*
X80318429Y-102924429D01*
X79883001Y-102924429D01*
X79737858Y-102851857D01*
X79665286Y-102779286D01*
X81261858Y-102779286D02*
X81334430Y-102851857D01*
X81261858Y-102924429D01*
X81189287Y-102851857D01*
X81261858Y-102779286D01*
X81261858Y-102924429D01*
X81915001Y-101545571D02*
X81987572Y-101473000D01*
X82132715Y-101400429D01*
X82495572Y-101400429D01*
X82640715Y-101473000D01*
X82713286Y-101545571D01*
X82785858Y-101690714D01*
X82785858Y-101835857D01*
X82713286Y-102053571D01*
X81842429Y-102924429D01*
X82785858Y-102924429D01*
X79248000Y-123734286D02*
X79175429Y-123806857D01*
X78957715Y-123879429D01*
X78812572Y-123879429D01*
X78594857Y-123806857D01*
X78449715Y-123661714D01*
X78377143Y-123516571D01*
X78304572Y-123226286D01*
X78304572Y-123008571D01*
X78377143Y-122718286D01*
X78449715Y-122573143D01*
X78594857Y-122428000D01*
X78812572Y-122355429D01*
X78957715Y-122355429D01*
X79175429Y-122428000D01*
X79248000Y-122500571D01*
X80118857Y-123879429D02*
X79973715Y-123806857D01*
X79901143Y-123734286D01*
X79828572Y-123589143D01*
X79828572Y-123153714D01*
X79901143Y-123008571D01*
X79973715Y-122936000D01*
X80118857Y-122863429D01*
X80336572Y-122863429D01*
X80481715Y-122936000D01*
X80554286Y-123008571D01*
X80626857Y-123153714D01*
X80626857Y-123589143D01*
X80554286Y-123734286D01*
X80481715Y-123806857D01*
X80336572Y-123879429D01*
X80118857Y-123879429D01*
X81933143Y-123879429D02*
X81933143Y-122355429D01*
X81933143Y-123806857D02*
X81788000Y-123879429D01*
X81497714Y-123879429D01*
X81352572Y-123806857D01*
X81280000Y-123734286D01*
X81207429Y-123589143D01*
X81207429Y-123153714D01*
X81280000Y-123008571D01*
X81352572Y-122936000D01*
X81497714Y-122863429D01*
X81788000Y-122863429D01*
X81933143Y-122936000D01*
X83239429Y-123806857D02*
X83094286Y-123879429D01*
X82804000Y-123879429D01*
X82658857Y-123806857D01*
X82586286Y-123661714D01*
X82586286Y-123081143D01*
X82658857Y-122936000D01*
X82804000Y-122863429D01*
X83094286Y-122863429D01*
X83239429Y-122936000D01*
X83312000Y-123081143D01*
X83312000Y-123226286D01*
X82586286Y-123371429D01*
X84618286Y-122863429D02*
X84618286Y-123879429D01*
X83965143Y-122863429D02*
X83965143Y-123661714D01*
X84037715Y-123806857D01*
X84182857Y-123879429D01*
X84400572Y-123879429D01*
X84545715Y-123806857D01*
X84618286Y-123734286D01*
X85344000Y-123879429D02*
X85344000Y-122863429D01*
X85344000Y-123153714D02*
X85416572Y-123008571D01*
X85489143Y-122936000D01*
X85634286Y-122863429D01*
X85779429Y-122863429D01*
X88319429Y-123879429D02*
X87811429Y-123153714D01*
X87448572Y-123879429D02*
X87448572Y-122355429D01*
X88029144Y-122355429D01*
X88174286Y-122428000D01*
X88246858Y-122500571D01*
X88319429Y-122645714D01*
X88319429Y-122863429D01*
X88246858Y-123008571D01*
X88174286Y-123081143D01*
X88029144Y-123153714D01*
X87448572Y-123153714D01*
X89190286Y-123879429D02*
X89045144Y-123806857D01*
X88972572Y-123734286D01*
X88900001Y-123589143D01*
X88900001Y-123153714D01*
X88972572Y-123008571D01*
X89045144Y-122936000D01*
X89190286Y-122863429D01*
X89408001Y-122863429D01*
X89553144Y-122936000D01*
X89625715Y-123008571D01*
X89698286Y-123153714D01*
X89698286Y-123589143D01*
X89625715Y-123734286D01*
X89553144Y-123806857D01*
X89408001Y-123879429D01*
X89190286Y-123879429D01*
X90133715Y-122863429D02*
X90714286Y-122863429D01*
X90351429Y-122355429D02*
X90351429Y-123661714D01*
X90424001Y-123806857D01*
X90569143Y-123879429D01*
X90714286Y-123879429D01*
X91875429Y-123879429D02*
X91875429Y-123081143D01*
X91802858Y-122936000D01*
X91657715Y-122863429D01*
X91367429Y-122863429D01*
X91222286Y-122936000D01*
X91875429Y-123806857D02*
X91730286Y-123879429D01*
X91367429Y-123879429D01*
X91222286Y-123806857D01*
X91149715Y-123661714D01*
X91149715Y-123516571D01*
X91222286Y-123371429D01*
X91367429Y-123298857D01*
X91730286Y-123298857D01*
X91875429Y-123226286D01*
X92383429Y-122863429D02*
X92964000Y-122863429D01*
X92601143Y-122355429D02*
X92601143Y-123661714D01*
X92673715Y-123806857D01*
X92818857Y-123879429D01*
X92964000Y-123879429D01*
X93472000Y-123879429D02*
X93472000Y-122863429D01*
X93472000Y-122355429D02*
X93399429Y-122428000D01*
X93472000Y-122500571D01*
X93544572Y-122428000D01*
X93472000Y-122355429D01*
X93472000Y-122500571D01*
X93980000Y-122863429D02*
X94560571Y-122863429D01*
X94197714Y-123879429D02*
X94197714Y-122573143D01*
X94270286Y-122428000D01*
X94415428Y-122355429D01*
X94560571Y-122355429D01*
X80681286Y-107750429D02*
X81552143Y-107750429D01*
X81116714Y-109274429D02*
X81116714Y-107750429D01*
X82640715Y-109201857D02*
X82495572Y-109274429D01*
X82205286Y-109274429D01*
X82060143Y-109201857D01*
X81987572Y-109056714D01*
X81987572Y-108476143D01*
X82060143Y-108331000D01*
X82205286Y-108258429D01*
X82495572Y-108258429D01*
X82640715Y-108331000D01*
X82713286Y-108476143D01*
X82713286Y-108621286D01*
X81987572Y-108766429D01*
X83947001Y-109201857D02*
X83801858Y-109274429D01*
X83511572Y-109274429D01*
X83366429Y-109201857D01*
X83293858Y-109056714D01*
X83293858Y-108476143D01*
X83366429Y-108331000D01*
X83511572Y-108258429D01*
X83801858Y-108258429D01*
X83947001Y-108331000D01*
X84019572Y-108476143D01*
X84019572Y-108621286D01*
X83293858Y-108766429D01*
X84672715Y-108258429D02*
X84672715Y-109274429D01*
X84672715Y-108403571D02*
X84745287Y-108331000D01*
X84890429Y-108258429D01*
X85108144Y-108258429D01*
X85253287Y-108331000D01*
X85325858Y-108476143D01*
X85325858Y-109274429D01*
X85979001Y-109201857D02*
X86124144Y-109274429D01*
X86414429Y-109274429D01*
X86559572Y-109201857D01*
X86632144Y-109056714D01*
X86632144Y-108984143D01*
X86559572Y-108839000D01*
X86414429Y-108766429D01*
X86196715Y-108766429D01*
X86051572Y-108693857D01*
X85979001Y-108548714D01*
X85979001Y-108476143D01*
X86051572Y-108331000D01*
X86196715Y-108258429D01*
X86414429Y-108258429D01*
X86559572Y-108331000D01*
X87140143Y-108258429D02*
X87503000Y-109274429D01*
X87865858Y-108258429D02*
X87503000Y-109274429D01*
X87357858Y-109637286D01*
X87285286Y-109709857D01*
X87140143Y-109782429D01*
X89607572Y-109274429D02*
X89607572Y-107750429D01*
X89970429Y-107750429D01*
X90188144Y-107823000D01*
X90333286Y-107968143D01*
X90405858Y-108113286D01*
X90478429Y-108403571D01*
X90478429Y-108621286D01*
X90405858Y-108911571D01*
X90333286Y-109056714D01*
X90188144Y-109201857D01*
X89970429Y-109274429D01*
X89607572Y-109274429D01*
X91712144Y-109201857D02*
X91567001Y-109274429D01*
X91276715Y-109274429D01*
X91131572Y-109201857D01*
X91059001Y-109056714D01*
X91059001Y-108476143D01*
X91131572Y-108331000D01*
X91276715Y-108258429D01*
X91567001Y-108258429D01*
X91712144Y-108331000D01*
X91784715Y-108476143D01*
X91784715Y-108621286D01*
X91059001Y-108766429D01*
X92365287Y-109201857D02*
X92510430Y-109274429D01*
X92800715Y-109274429D01*
X92945858Y-109201857D01*
X93018430Y-109056714D01*
X93018430Y-108984143D01*
X92945858Y-108839000D01*
X92800715Y-108766429D01*
X92583001Y-108766429D01*
X92437858Y-108693857D01*
X92365287Y-108548714D01*
X92365287Y-108476143D01*
X92437858Y-108331000D01*
X92583001Y-108258429D01*
X92800715Y-108258429D01*
X92945858Y-108331000D01*
X93599001Y-109201857D02*
X93744144Y-109274429D01*
X94034429Y-109274429D01*
X94179572Y-109201857D01*
X94252144Y-109056714D01*
X94252144Y-108984143D01*
X94179572Y-108839000D01*
X94034429Y-108766429D01*
X93816715Y-108766429D01*
X93671572Y-108693857D01*
X93599001Y-108548714D01*
X93599001Y-108476143D01*
X93671572Y-108331000D01*
X93816715Y-108258429D01*
X94034429Y-108258429D01*
X94179572Y-108331000D01*
X95123000Y-109274429D02*
X94977858Y-109201857D01*
X94905286Y-109129286D01*
X94832715Y-108984143D01*
X94832715Y-108548714D01*
X94905286Y-108403571D01*
X94977858Y-108331000D01*
X95123000Y-108258429D01*
X95340715Y-108258429D01*
X95485858Y-108331000D01*
X95558429Y-108403571D01*
X95631000Y-108548714D01*
X95631000Y-108984143D01*
X95558429Y-109129286D01*
X95485858Y-109201857D01*
X95340715Y-109274429D01*
X95123000Y-109274429D01*
X96937286Y-108258429D02*
X96937286Y-109274429D01*
X96284143Y-108258429D02*
X96284143Y-109056714D01*
X96356715Y-109201857D01*
X96501857Y-109274429D01*
X96719572Y-109274429D01*
X96864715Y-109201857D01*
X96937286Y-109129286D01*
X97590429Y-109201857D02*
X97735572Y-109274429D01*
X98025857Y-109274429D01*
X98171000Y-109201857D01*
X98243572Y-109056714D01*
X98243572Y-108984143D01*
X98171000Y-108839000D01*
X98025857Y-108766429D01*
X97808143Y-108766429D01*
X97663000Y-108693857D01*
X97590429Y-108548714D01*
X97590429Y-108476143D01*
X97663000Y-108331000D01*
X97808143Y-108258429D01*
X98025857Y-108258429D01*
X98171000Y-108331000D01*
D12*
X143684762Y-118562381D02*
X143113333Y-118562381D01*
X143399047Y-118562381D02*
X143399047Y-117562381D01*
X143303809Y-117705238D01*
X143208571Y-117800476D01*
X143113333Y-117848095D01*
X144065714Y-117657619D02*
X144113333Y-117610000D01*
X144208571Y-117562381D01*
X144446667Y-117562381D01*
X144541905Y-117610000D01*
X144589524Y-117657619D01*
X144637143Y-117752857D01*
X144637143Y-117848095D01*
X144589524Y-117990952D01*
X144018095Y-118562381D01*
X144637143Y-118562381D01*
X144922857Y-117562381D02*
X145256190Y-118562381D01*
X145589524Y-117562381D01*
X145875238Y-117657619D02*
X145922857Y-117610000D01*
X146018095Y-117562381D01*
X146256191Y-117562381D01*
X146351429Y-117610000D01*
X146399048Y-117657619D01*
X146446667Y-117752857D01*
X146446667Y-117848095D01*
X146399048Y-117990952D01*
X145827619Y-118562381D01*
X146446667Y-118562381D01*
X143684762Y-106497381D02*
X143113333Y-106497381D01*
X143399047Y-106497381D02*
X143399047Y-105497381D01*
X143303809Y-105640238D01*
X143208571Y-105735476D01*
X143113333Y-105783095D01*
X144065714Y-105592619D02*
X144113333Y-105545000D01*
X144208571Y-105497381D01*
X144446667Y-105497381D01*
X144541905Y-105545000D01*
X144589524Y-105592619D01*
X144637143Y-105687857D01*
X144637143Y-105783095D01*
X144589524Y-105925952D01*
X144018095Y-106497381D01*
X144637143Y-106497381D01*
X144922857Y-105497381D02*
X145256190Y-106497381D01*
X145589524Y-105497381D01*
X146446667Y-106497381D02*
X145875238Y-106497381D01*
X146160952Y-106497381D02*
X146160952Y-105497381D01*
X146065714Y-105640238D01*
X145970476Y-105735476D01*
X145875238Y-105783095D01*
X156726191Y-87447381D02*
X156392857Y-86971190D01*
X156154762Y-87447381D02*
X156154762Y-86447381D01*
X156535715Y-86447381D01*
X156630953Y-86495000D01*
X156678572Y-86542619D01*
X156726191Y-86637857D01*
X156726191Y-86780714D01*
X156678572Y-86875952D01*
X156630953Y-86923571D01*
X156535715Y-86971190D01*
X156154762Y-86971190D01*
X157535715Y-87399762D02*
X157440477Y-87447381D01*
X157250000Y-87447381D01*
X157154762Y-87399762D01*
X157107143Y-87304524D01*
X157107143Y-86923571D01*
X157154762Y-86828333D01*
X157250000Y-86780714D01*
X157440477Y-86780714D01*
X157535715Y-86828333D01*
X157583334Y-86923571D01*
X157583334Y-87018810D01*
X157107143Y-87114048D01*
X157869048Y-86780714D02*
X158250000Y-86780714D01*
X158011905Y-86447381D02*
X158011905Y-87304524D01*
X158059524Y-87399762D01*
X158154762Y-87447381D01*
X158250000Y-87447381D01*
X158583334Y-87352143D02*
X158630953Y-87399762D01*
X158583334Y-87447381D01*
X158535715Y-87399762D01*
X158583334Y-87352143D01*
X158583334Y-87447381D01*
X159583334Y-87447381D02*
X159011905Y-87447381D01*
X159297619Y-87447381D02*
X159297619Y-86447381D01*
X159202381Y-86590238D01*
X159107143Y-86685476D01*
X159011905Y-86733095D01*
X159964286Y-86542619D02*
X160011905Y-86495000D01*
X160107143Y-86447381D01*
X160345239Y-86447381D01*
X160440477Y-86495000D01*
X160488096Y-86542619D01*
X160535715Y-86637857D01*
X160535715Y-86733095D01*
X160488096Y-86875952D01*
X159916667Y-87447381D01*
X160535715Y-87447381D01*
X160821429Y-86447381D02*
X161154762Y-87447381D01*
X161488096Y-86447381D01*
X158099286Y-73588571D02*
X157765952Y-73588571D01*
X157765952Y-74112381D02*
X157765952Y-73112381D01*
X158242143Y-73112381D01*
X159051667Y-74112381D02*
X159051667Y-73112381D01*
X159051667Y-74064762D02*
X158956429Y-74112381D01*
X158765952Y-74112381D01*
X158670714Y-74064762D01*
X158623095Y-74017143D01*
X158575476Y-73921905D01*
X158575476Y-73636190D01*
X158623095Y-73540952D01*
X158670714Y-73493333D01*
X158765952Y-73445714D01*
X158956429Y-73445714D01*
X159051667Y-73493333D01*
X160099286Y-74017143D02*
X160051667Y-74064762D01*
X159908810Y-74112381D01*
X159813572Y-74112381D01*
X159670714Y-74064762D01*
X159575476Y-73969524D01*
X159527857Y-73874286D01*
X159480238Y-73683810D01*
X159480238Y-73540952D01*
X159527857Y-73350476D01*
X159575476Y-73255238D01*
X159670714Y-73160000D01*
X159813572Y-73112381D01*
X159908810Y-73112381D01*
X160051667Y-73160000D01*
X160099286Y-73207619D01*
X160480238Y-73207619D02*
X160527857Y-73160000D01*
X160623095Y-73112381D01*
X160861191Y-73112381D01*
X160956429Y-73160000D01*
X161004048Y-73207619D01*
X161051667Y-73302857D01*
X161051667Y-73398095D01*
X161004048Y-73540952D01*
X160432619Y-74112381D01*
X161051667Y-74112381D01*
X158099286Y-51998571D02*
X157765952Y-51998571D01*
X157765952Y-52522381D02*
X157765952Y-51522381D01*
X158242143Y-51522381D01*
X159051667Y-52522381D02*
X159051667Y-51522381D01*
X159051667Y-52474762D02*
X158956429Y-52522381D01*
X158765952Y-52522381D01*
X158670714Y-52474762D01*
X158623095Y-52427143D01*
X158575476Y-52331905D01*
X158575476Y-52046190D01*
X158623095Y-51950952D01*
X158670714Y-51903333D01*
X158765952Y-51855714D01*
X158956429Y-51855714D01*
X159051667Y-51903333D01*
X160099286Y-52427143D02*
X160051667Y-52474762D01*
X159908810Y-52522381D01*
X159813572Y-52522381D01*
X159670714Y-52474762D01*
X159575476Y-52379524D01*
X159527857Y-52284286D01*
X159480238Y-52093810D01*
X159480238Y-51950952D01*
X159527857Y-51760476D01*
X159575476Y-51665238D01*
X159670714Y-51570000D01*
X159813572Y-51522381D01*
X159908810Y-51522381D01*
X160051667Y-51570000D01*
X160099286Y-51617619D01*
X161051667Y-52522381D02*
X160480238Y-52522381D01*
X160765952Y-52522381D02*
X160765952Y-51522381D01*
X160670714Y-51665238D01*
X160575476Y-51760476D01*
X160480238Y-51808095D01*
X105862381Y-45449762D02*
X104862381Y-45449762D01*
X105195714Y-44973572D02*
X105862381Y-44973572D01*
X105290952Y-44973572D02*
X105243333Y-44925953D01*
X105195714Y-44830715D01*
X105195714Y-44687857D01*
X105243333Y-44592619D01*
X105338571Y-44545000D01*
X105862381Y-44545000D01*
X105195714Y-44211667D02*
X105195714Y-43830715D01*
X104862381Y-44068810D02*
X105719524Y-44068810D01*
X105814762Y-44021191D01*
X105862381Y-43925953D01*
X105862381Y-43830715D01*
X105814762Y-43116428D02*
X105862381Y-43211666D01*
X105862381Y-43402143D01*
X105814762Y-43497381D01*
X105719524Y-43545000D01*
X105338571Y-43545000D01*
X105243333Y-43497381D01*
X105195714Y-43402143D01*
X105195714Y-43211666D01*
X105243333Y-43116428D01*
X105338571Y-43068809D01*
X105433810Y-43068809D01*
X105529048Y-43545000D01*
X104814762Y-43211666D02*
X104957619Y-43354524D01*
X105862381Y-42640238D02*
X105195714Y-42640238D01*
X105386190Y-42640238D02*
X105290952Y-42592619D01*
X105243333Y-42545000D01*
X105195714Y-42449762D01*
X105195714Y-42354523D01*
X105862381Y-42021190D02*
X105195714Y-42021190D01*
X104862381Y-42021190D02*
X104910000Y-42068809D01*
X104957619Y-42021190D01*
X104910000Y-41973571D01*
X104862381Y-42021190D01*
X104957619Y-42021190D01*
X105814762Y-41164047D02*
X105862381Y-41259285D01*
X105862381Y-41449762D01*
X105814762Y-41545000D01*
X105719524Y-41592619D01*
X105338571Y-41592619D01*
X105243333Y-41545000D01*
X105195714Y-41449762D01*
X105195714Y-41259285D01*
X105243333Y-41164047D01*
X105338571Y-41116428D01*
X105433810Y-41116428D01*
X105529048Y-41592619D01*
X105195714Y-40259285D02*
X105862381Y-40259285D01*
X105195714Y-40687857D02*
X105719524Y-40687857D01*
X105814762Y-40640238D01*
X105862381Y-40545000D01*
X105862381Y-40402142D01*
X105814762Y-40306904D01*
X105767143Y-40259285D01*
X105862381Y-39783095D02*
X105195714Y-39783095D01*
X105386190Y-39783095D02*
X105290952Y-39735476D01*
X105243333Y-39687857D01*
X105195714Y-39592619D01*
X105195714Y-39497380D01*
X95813571Y-45616429D02*
X95813571Y-45283095D01*
X96337381Y-45140238D02*
X96337381Y-45616429D01*
X95337381Y-45616429D01*
X95337381Y-45140238D01*
X96337381Y-44806905D02*
X95670714Y-44283095D01*
X95670714Y-44806905D02*
X96337381Y-44283095D01*
X95670714Y-44045000D02*
X95670714Y-43664048D01*
X95337381Y-43902143D02*
X96194524Y-43902143D01*
X96289762Y-43854524D01*
X96337381Y-43759286D01*
X96337381Y-43664048D01*
X96289762Y-42949761D02*
X96337381Y-43044999D01*
X96337381Y-43235476D01*
X96289762Y-43330714D01*
X96194524Y-43378333D01*
X95813571Y-43378333D01*
X95718333Y-43330714D01*
X95670714Y-43235476D01*
X95670714Y-43044999D01*
X95718333Y-42949761D01*
X95813571Y-42902142D01*
X95908810Y-42902142D01*
X96004048Y-43378333D01*
X95289762Y-43044999D02*
X95432619Y-43187857D01*
X96337381Y-42473571D02*
X95670714Y-42473571D01*
X95861190Y-42473571D02*
X95765952Y-42425952D01*
X95718333Y-42378333D01*
X95670714Y-42283095D01*
X95670714Y-42187856D01*
X96337381Y-41854523D02*
X95670714Y-41854523D01*
X95337381Y-41854523D02*
X95385000Y-41902142D01*
X95432619Y-41854523D01*
X95385000Y-41806904D01*
X95337381Y-41854523D01*
X95432619Y-41854523D01*
X96289762Y-40997380D02*
X96337381Y-41092618D01*
X96337381Y-41283095D01*
X96289762Y-41378333D01*
X96194524Y-41425952D01*
X95813571Y-41425952D01*
X95718333Y-41378333D01*
X95670714Y-41283095D01*
X95670714Y-41092618D01*
X95718333Y-40997380D01*
X95813571Y-40949761D01*
X95908810Y-40949761D01*
X96004048Y-41425952D01*
X95670714Y-40092618D02*
X96337381Y-40092618D01*
X95670714Y-40521190D02*
X96194524Y-40521190D01*
X96289762Y-40473571D01*
X96337381Y-40378333D01*
X96337381Y-40235475D01*
X96289762Y-40140237D01*
X96242143Y-40092618D01*
X96337381Y-39616428D02*
X95670714Y-39616428D01*
X95861190Y-39616428D02*
X95765952Y-39568809D01*
X95718333Y-39521190D01*
X95670714Y-39425952D01*
X95670714Y-39330713D01*
X86812381Y-45806905D02*
X85812381Y-45806905D01*
X85812381Y-45425952D01*
X85860000Y-45330714D01*
X85907619Y-45283095D01*
X86002857Y-45235476D01*
X86145714Y-45235476D01*
X86240952Y-45283095D01*
X86288571Y-45330714D01*
X86336190Y-45425952D01*
X86336190Y-45806905D01*
X86145714Y-44378333D02*
X86812381Y-44378333D01*
X86145714Y-44806905D02*
X86669524Y-44806905D01*
X86764762Y-44759286D01*
X86812381Y-44664048D01*
X86812381Y-44521190D01*
X86764762Y-44425952D01*
X86717143Y-44378333D01*
X86812381Y-43902143D02*
X86145714Y-43902143D01*
X85812381Y-43902143D02*
X85860000Y-43949762D01*
X85907619Y-43902143D01*
X85860000Y-43854524D01*
X85812381Y-43902143D01*
X85907619Y-43902143D01*
X86145714Y-43568810D02*
X86145714Y-43187858D01*
X85812381Y-43425953D02*
X86669524Y-43425953D01*
X86764762Y-43378334D01*
X86812381Y-43283096D01*
X86812381Y-43187858D01*
X86717143Y-41521190D02*
X86764762Y-41568809D01*
X86812381Y-41711666D01*
X86812381Y-41806904D01*
X86764762Y-41949762D01*
X86669524Y-42045000D01*
X86574286Y-42092619D01*
X86383810Y-42140238D01*
X86240952Y-42140238D01*
X86050476Y-42092619D01*
X85955238Y-42045000D01*
X85860000Y-41949762D01*
X85812381Y-41806904D01*
X85812381Y-41711666D01*
X85860000Y-41568809D01*
X85907619Y-41521190D01*
X86812381Y-40664047D02*
X86288571Y-40664047D01*
X86193333Y-40711666D01*
X86145714Y-40806904D01*
X86145714Y-40997381D01*
X86193333Y-41092619D01*
X86764762Y-40664047D02*
X86812381Y-40759285D01*
X86812381Y-40997381D01*
X86764762Y-41092619D01*
X86669524Y-41140238D01*
X86574286Y-41140238D01*
X86479048Y-41092619D01*
X86431429Y-40997381D01*
X86431429Y-40759285D01*
X86383810Y-40664047D01*
X86145714Y-40187857D02*
X86812381Y-40187857D01*
X86240952Y-40187857D02*
X86193333Y-40140238D01*
X86145714Y-40045000D01*
X86145714Y-39902142D01*
X86193333Y-39806904D01*
X86288571Y-39759285D01*
X86812381Y-39759285D01*
X86717143Y-39283095D02*
X86764762Y-39235476D01*
X86812381Y-39283095D01*
X86764762Y-39330714D01*
X86717143Y-39283095D01*
X86812381Y-39283095D01*
X77192143Y-45965714D02*
X77239762Y-46013333D01*
X77287381Y-46156190D01*
X77287381Y-46251428D01*
X77239762Y-46394286D01*
X77144524Y-46489524D01*
X77049286Y-46537143D01*
X76858810Y-46584762D01*
X76715952Y-46584762D01*
X76525476Y-46537143D01*
X76430238Y-46489524D01*
X76335000Y-46394286D01*
X76287381Y-46251428D01*
X76287381Y-46156190D01*
X76335000Y-46013333D01*
X76382619Y-45965714D01*
X77287381Y-45537143D02*
X76287381Y-45537143D01*
X77287381Y-45108571D02*
X76763571Y-45108571D01*
X76668333Y-45156190D01*
X76620714Y-45251428D01*
X76620714Y-45394286D01*
X76668333Y-45489524D01*
X76715952Y-45537143D01*
X77239762Y-44251428D02*
X77287381Y-44346666D01*
X77287381Y-44537143D01*
X77239762Y-44632381D01*
X77144524Y-44680000D01*
X76763571Y-44680000D01*
X76668333Y-44632381D01*
X76620714Y-44537143D01*
X76620714Y-44346666D01*
X76668333Y-44251428D01*
X76763571Y-44203809D01*
X76858810Y-44203809D01*
X76954048Y-44680000D01*
X77287381Y-43775238D02*
X76620714Y-43775238D01*
X76715952Y-43775238D02*
X76668333Y-43727619D01*
X76620714Y-43632381D01*
X76620714Y-43489523D01*
X76668333Y-43394285D01*
X76763571Y-43346666D01*
X77287381Y-43346666D01*
X76763571Y-43346666D02*
X76668333Y-43299047D01*
X76620714Y-43203809D01*
X76620714Y-43060952D01*
X76668333Y-42965714D01*
X76763571Y-42918095D01*
X77287381Y-42918095D01*
X77287381Y-42441905D02*
X76620714Y-42441905D01*
X76287381Y-42441905D02*
X76335000Y-42489524D01*
X76382619Y-42441905D01*
X76335000Y-42394286D01*
X76287381Y-42441905D01*
X76382619Y-42441905D01*
X76620714Y-41965715D02*
X77287381Y-41965715D01*
X76715952Y-41965715D02*
X76668333Y-41918096D01*
X76620714Y-41822858D01*
X76620714Y-41680000D01*
X76668333Y-41584762D01*
X76763571Y-41537143D01*
X77287381Y-41537143D01*
X77239762Y-40680000D02*
X77287381Y-40775238D01*
X77287381Y-40965715D01*
X77239762Y-41060953D01*
X77144524Y-41108572D01*
X76763571Y-41108572D01*
X76668333Y-41060953D01*
X76620714Y-40965715D01*
X76620714Y-40775238D01*
X76668333Y-40680000D01*
X76763571Y-40632381D01*
X76858810Y-40632381D01*
X76954048Y-41108572D01*
X76239762Y-40775238D02*
X76382619Y-40918096D01*
X77239762Y-39822857D02*
X77287381Y-39918095D01*
X77287381Y-40108572D01*
X77239762Y-40203810D01*
X77144524Y-40251429D01*
X76763571Y-40251429D01*
X76668333Y-40203810D01*
X76620714Y-40108572D01*
X76620714Y-39918095D01*
X76668333Y-39822857D01*
X76763571Y-39775238D01*
X76858810Y-39775238D01*
X76954048Y-40251429D01*
D11*
X72462571Y-67999429D02*
X72462571Y-66475429D01*
X73043143Y-66475429D01*
X73188285Y-66548000D01*
X73260857Y-66620571D01*
X73333428Y-66765714D01*
X73333428Y-66983429D01*
X73260857Y-67128571D01*
X73188285Y-67201143D01*
X73043143Y-67273714D01*
X72462571Y-67273714D01*
X73986571Y-67999429D02*
X73986571Y-66983429D01*
X73986571Y-67273714D02*
X74059143Y-67128571D01*
X74131714Y-67056000D01*
X74276857Y-66983429D01*
X74422000Y-66983429D01*
X74930000Y-67999429D02*
X74930000Y-66983429D01*
X74930000Y-66475429D02*
X74857429Y-66548000D01*
X74930000Y-66620571D01*
X75002572Y-66548000D01*
X74930000Y-66475429D01*
X74930000Y-66620571D01*
X75583143Y-67926857D02*
X75728286Y-67999429D01*
X76018571Y-67999429D01*
X76163714Y-67926857D01*
X76236286Y-67781714D01*
X76236286Y-67709143D01*
X76163714Y-67564000D01*
X76018571Y-67491429D01*
X75800857Y-67491429D01*
X75655714Y-67418857D01*
X75583143Y-67273714D01*
X75583143Y-67201143D01*
X75655714Y-67056000D01*
X75800857Y-66983429D01*
X76018571Y-66983429D01*
X76163714Y-67056000D01*
X77470000Y-67926857D02*
X77324857Y-67999429D01*
X77034571Y-67999429D01*
X76889428Y-67926857D01*
X76816857Y-67781714D01*
X76816857Y-67201143D01*
X76889428Y-67056000D01*
X77034571Y-66983429D01*
X77324857Y-66983429D01*
X77470000Y-67056000D01*
X77542571Y-67201143D01*
X77542571Y-67346286D01*
X76816857Y-67491429D01*
X78123143Y-67926857D02*
X78268286Y-67999429D01*
X78558571Y-67999429D01*
X78703714Y-67926857D01*
X78776286Y-67781714D01*
X78776286Y-67709143D01*
X78703714Y-67564000D01*
X78558571Y-67491429D01*
X78340857Y-67491429D01*
X78195714Y-67418857D01*
X78123143Y-67273714D01*
X78123143Y-67201143D01*
X78195714Y-67056000D01*
X78340857Y-66983429D01*
X78558571Y-66983429D01*
X78703714Y-67056000D01*
X81243714Y-67999429D02*
X81243714Y-66475429D01*
X81243714Y-67926857D02*
X81098571Y-67999429D01*
X80808285Y-67999429D01*
X80663143Y-67926857D01*
X80590571Y-67854286D01*
X80518000Y-67709143D01*
X80518000Y-67273714D01*
X80590571Y-67128571D01*
X80663143Y-67056000D01*
X80808285Y-66983429D01*
X81098571Y-66983429D01*
X81243714Y-67056000D01*
X82550000Y-67926857D02*
X82404857Y-67999429D01*
X82114571Y-67999429D01*
X81969428Y-67926857D01*
X81896857Y-67781714D01*
X81896857Y-67201143D01*
X81969428Y-67056000D01*
X82114571Y-66983429D01*
X82404857Y-66983429D01*
X82550000Y-67056000D01*
X82622571Y-67201143D01*
X82622571Y-67346286D01*
X81896857Y-67491429D01*
X84219143Y-66475429D02*
X85090000Y-66475429D01*
X84654571Y-67999429D02*
X84654571Y-66475429D01*
X86178572Y-67926857D02*
X86033429Y-67999429D01*
X85743143Y-67999429D01*
X85598000Y-67926857D01*
X85525429Y-67781714D01*
X85525429Y-67201143D01*
X85598000Y-67056000D01*
X85743143Y-66983429D01*
X86033429Y-66983429D01*
X86178572Y-67056000D01*
X86251143Y-67201143D01*
X86251143Y-67346286D01*
X85525429Y-67491429D01*
X86904286Y-67999429D02*
X86904286Y-66983429D01*
X86904286Y-67128571D02*
X86976858Y-67056000D01*
X87122000Y-66983429D01*
X87339715Y-66983429D01*
X87484858Y-67056000D01*
X87557429Y-67201143D01*
X87557429Y-67999429D01*
X87557429Y-67201143D02*
X87630000Y-67056000D01*
X87775143Y-66983429D01*
X87992858Y-66983429D01*
X88138000Y-67056000D01*
X88210572Y-67201143D01*
X88210572Y-67999429D01*
X88936286Y-66983429D02*
X88936286Y-68507429D01*
X88936286Y-67056000D02*
X89081429Y-66983429D01*
X89371715Y-66983429D01*
X89516858Y-67056000D01*
X89589429Y-67128571D01*
X89662000Y-67273714D01*
X89662000Y-67709143D01*
X89589429Y-67854286D01*
X89516858Y-67926857D01*
X89371715Y-67999429D01*
X89081429Y-67999429D01*
X88936286Y-67926857D01*
X90895715Y-67926857D02*
X90750572Y-67999429D01*
X90460286Y-67999429D01*
X90315143Y-67926857D01*
X90242572Y-67781714D01*
X90242572Y-67201143D01*
X90315143Y-67056000D01*
X90460286Y-66983429D01*
X90750572Y-66983429D01*
X90895715Y-67056000D01*
X90968286Y-67201143D01*
X90968286Y-67346286D01*
X90242572Y-67491429D01*
X90750572Y-66402857D02*
X90532857Y-66620571D01*
X91621429Y-67999429D02*
X91621429Y-66983429D01*
X91621429Y-67273714D02*
X91694001Y-67128571D01*
X91766572Y-67056000D01*
X91911715Y-66983429D01*
X92056858Y-66983429D01*
X93218001Y-67999429D02*
X93218001Y-67201143D01*
X93145430Y-67056000D01*
X93000287Y-66983429D01*
X92710001Y-66983429D01*
X92564858Y-67056000D01*
X93218001Y-67926857D02*
X93072858Y-67999429D01*
X92710001Y-67999429D01*
X92564858Y-67926857D01*
X92492287Y-67781714D01*
X92492287Y-67636571D01*
X92564858Y-67491429D01*
X92710001Y-67418857D01*
X93072858Y-67418857D01*
X93218001Y-67346286D01*
X93726001Y-66983429D02*
X94306572Y-66983429D01*
X93943715Y-66475429D02*
X93943715Y-67781714D01*
X94016287Y-67926857D01*
X94161429Y-67999429D01*
X94306572Y-67999429D01*
X95467715Y-66983429D02*
X95467715Y-67999429D01*
X94814572Y-66983429D02*
X94814572Y-67781714D01*
X94887144Y-67926857D01*
X95032286Y-67999429D01*
X95250001Y-67999429D01*
X95395144Y-67926857D01*
X95467715Y-67854286D01*
X96193429Y-67999429D02*
X96193429Y-66983429D01*
X96193429Y-67273714D02*
X96266001Y-67128571D01*
X96338572Y-67056000D01*
X96483715Y-66983429D01*
X96628858Y-66983429D01*
X97717430Y-67926857D02*
X97572287Y-67999429D01*
X97282001Y-67999429D01*
X97136858Y-67926857D01*
X97064287Y-67781714D01*
X97064287Y-67201143D01*
X97136858Y-67056000D01*
X97282001Y-66983429D01*
X97572287Y-66983429D01*
X97717430Y-67056000D01*
X97790001Y-67201143D01*
X97790001Y-67346286D01*
X97064287Y-67491429D01*
X138430001Y-38535429D02*
X138720287Y-38535429D01*
X138865429Y-38608000D01*
X139010572Y-38753143D01*
X139083144Y-39043429D01*
X139083144Y-39551429D01*
X139010572Y-39841714D01*
X138865429Y-39986857D01*
X138720287Y-40059429D01*
X138430001Y-40059429D01*
X138284858Y-39986857D01*
X138139715Y-39841714D01*
X138067144Y-39551429D01*
X138067144Y-39043429D01*
X138139715Y-38753143D01*
X138284858Y-38608000D01*
X138430001Y-38535429D01*
X139736286Y-39043429D02*
X139736286Y-40567429D01*
X139736286Y-39116000D02*
X139881429Y-39043429D01*
X140171715Y-39043429D01*
X140316858Y-39116000D01*
X140389429Y-39188571D01*
X140462000Y-39333714D01*
X140462000Y-39769143D01*
X140389429Y-39914286D01*
X140316858Y-39986857D01*
X140171715Y-40059429D01*
X139881429Y-40059429D01*
X139736286Y-39986857D01*
X140897429Y-39043429D02*
X141478000Y-39043429D01*
X141115143Y-38535429D02*
X141115143Y-39841714D01*
X141187715Y-39986857D01*
X141332857Y-40059429D01*
X141478000Y-40059429D01*
X142203714Y-40059429D02*
X142058572Y-39986857D01*
X141986000Y-39914286D01*
X141913429Y-39769143D01*
X141913429Y-39333714D01*
X141986000Y-39188571D01*
X142058572Y-39116000D01*
X142203714Y-39043429D01*
X142421429Y-39043429D01*
X142566572Y-39116000D01*
X142639143Y-39188571D01*
X142711714Y-39333714D01*
X142711714Y-39769143D01*
X142639143Y-39914286D01*
X142566572Y-39986857D01*
X142421429Y-40059429D01*
X142203714Y-40059429D01*
X144235714Y-39914286D02*
X144163143Y-39986857D01*
X143945429Y-40059429D01*
X143800286Y-40059429D01*
X143582571Y-39986857D01*
X143437429Y-39841714D01*
X143364857Y-39696571D01*
X143292286Y-39406286D01*
X143292286Y-39188571D01*
X143364857Y-38898286D01*
X143437429Y-38753143D01*
X143582571Y-38608000D01*
X143800286Y-38535429D01*
X143945429Y-38535429D01*
X144163143Y-38608000D01*
X144235714Y-38680571D01*
X145106571Y-40059429D02*
X144961429Y-39986857D01*
X144888857Y-39914286D01*
X144816286Y-39769143D01*
X144816286Y-39333714D01*
X144888857Y-39188571D01*
X144961429Y-39116000D01*
X145106571Y-39043429D01*
X145324286Y-39043429D01*
X145469429Y-39116000D01*
X145542000Y-39188571D01*
X145614571Y-39333714D01*
X145614571Y-39769143D01*
X145542000Y-39914286D01*
X145469429Y-39986857D01*
X145324286Y-40059429D01*
X145106571Y-40059429D01*
X146920857Y-39043429D02*
X146920857Y-40059429D01*
X146267714Y-39043429D02*
X146267714Y-39841714D01*
X146340286Y-39986857D01*
X146485428Y-40059429D01*
X146703143Y-40059429D01*
X146848286Y-39986857D01*
X146920857Y-39914286D01*
X147646571Y-39043429D02*
X147646571Y-40567429D01*
X147646571Y-39116000D02*
X147791714Y-39043429D01*
X148082000Y-39043429D01*
X148227143Y-39116000D01*
X148299714Y-39188571D01*
X148372285Y-39333714D01*
X148372285Y-39769143D01*
X148299714Y-39914286D01*
X148227143Y-39986857D01*
X148082000Y-40059429D01*
X147791714Y-40059429D01*
X147646571Y-39986857D01*
X149243142Y-40059429D02*
X149098000Y-39986857D01*
X149025428Y-39841714D01*
X149025428Y-38535429D01*
X150404286Y-39986857D02*
X150259143Y-40059429D01*
X149968857Y-40059429D01*
X149823714Y-39986857D01*
X149751143Y-39841714D01*
X149751143Y-39261143D01*
X149823714Y-39116000D01*
X149968857Y-39043429D01*
X150259143Y-39043429D01*
X150404286Y-39116000D01*
X150476857Y-39261143D01*
X150476857Y-39406286D01*
X149751143Y-39551429D01*
X151783143Y-39043429D02*
X151783143Y-40059429D01*
X151130000Y-39043429D02*
X151130000Y-39841714D01*
X151202572Y-39986857D01*
X151347714Y-40059429D01*
X151565429Y-40059429D01*
X151710572Y-39986857D01*
X151783143Y-39914286D01*
X152508857Y-40059429D02*
X152508857Y-39043429D01*
X152508857Y-39333714D02*
X152581429Y-39188571D01*
X152654000Y-39116000D01*
X152799143Y-39043429D01*
X152944286Y-39043429D01*
X153379715Y-39986857D02*
X153524858Y-40059429D01*
X153815143Y-40059429D01*
X153960286Y-39986857D01*
X154032858Y-39841714D01*
X154032858Y-39769143D01*
X153960286Y-39624000D01*
X153815143Y-39551429D01*
X153597429Y-39551429D01*
X153452286Y-39478857D01*
X153379715Y-39333714D01*
X153379715Y-39261143D01*
X153452286Y-39116000D01*
X153597429Y-39043429D01*
X153815143Y-39043429D01*
X153960286Y-39116000D01*
X142530286Y-101400429D02*
X143401143Y-101400429D01*
X142965714Y-102924429D02*
X142965714Y-101400429D01*
X143909143Y-102924429D02*
X143909143Y-101908429D01*
X143909143Y-102198714D02*
X143981715Y-102053571D01*
X144054286Y-101981000D01*
X144199429Y-101908429D01*
X144344572Y-101908429D01*
X145505715Y-102924429D02*
X145505715Y-102126143D01*
X145433144Y-101981000D01*
X145288001Y-101908429D01*
X144997715Y-101908429D01*
X144852572Y-101981000D01*
X145505715Y-102851857D02*
X145360572Y-102924429D01*
X144997715Y-102924429D01*
X144852572Y-102851857D01*
X144780001Y-102706714D01*
X144780001Y-102561571D01*
X144852572Y-102416429D01*
X144997715Y-102343857D01*
X145360572Y-102343857D01*
X145505715Y-102271286D01*
X146231429Y-101908429D02*
X146231429Y-102924429D01*
X146231429Y-102053571D02*
X146304001Y-101981000D01*
X146449143Y-101908429D01*
X146666858Y-101908429D01*
X146812001Y-101981000D01*
X146884572Y-102126143D01*
X146884572Y-102924429D01*
X147537715Y-102851857D02*
X147682858Y-102924429D01*
X147973143Y-102924429D01*
X148118286Y-102851857D01*
X148190858Y-102706714D01*
X148190858Y-102634143D01*
X148118286Y-102489000D01*
X147973143Y-102416429D01*
X147755429Y-102416429D01*
X147610286Y-102343857D01*
X147537715Y-102198714D01*
X147537715Y-102126143D01*
X147610286Y-101981000D01*
X147755429Y-101908429D01*
X147973143Y-101908429D01*
X148118286Y-101981000D01*
X148626286Y-101908429D02*
X149206857Y-101908429D01*
X148844000Y-102924429D02*
X148844000Y-101618143D01*
X148916572Y-101473000D01*
X149061714Y-101400429D01*
X149206857Y-101400429D01*
X149932571Y-102924429D02*
X149787429Y-102851857D01*
X149714857Y-102779286D01*
X149642286Y-102634143D01*
X149642286Y-102198714D01*
X149714857Y-102053571D01*
X149787429Y-101981000D01*
X149932571Y-101908429D01*
X150150286Y-101908429D01*
X150295429Y-101981000D01*
X150368000Y-102053571D01*
X150440571Y-102198714D01*
X150440571Y-102634143D01*
X150368000Y-102779286D01*
X150295429Y-102851857D01*
X150150286Y-102924429D01*
X149932571Y-102924429D01*
X151021143Y-102851857D02*
X151166286Y-102924429D01*
X151456571Y-102924429D01*
X151601714Y-102851857D01*
X151674286Y-102706714D01*
X151674286Y-102634143D01*
X151601714Y-102489000D01*
X151456571Y-102416429D01*
X151238857Y-102416429D01*
X151093714Y-102343857D01*
X151021143Y-102198714D01*
X151021143Y-102126143D01*
X151093714Y-101981000D01*
X151238857Y-101908429D01*
X151456571Y-101908429D01*
X151601714Y-101981000D01*
X154286857Y-102924429D02*
X153416000Y-102924429D01*
X153851428Y-102924429D02*
X153851428Y-101400429D01*
X153706285Y-101618143D01*
X153561143Y-101763286D01*
X153416000Y-101835857D01*
X154867429Y-101545571D02*
X154940000Y-101473000D01*
X155085143Y-101400429D01*
X155448000Y-101400429D01*
X155593143Y-101473000D01*
X155665714Y-101545571D01*
X155738286Y-101690714D01*
X155738286Y-101835857D01*
X155665714Y-102053571D01*
X154794857Y-102924429D01*
X155738286Y-102924429D01*
X156173715Y-101400429D02*
X156681715Y-102924429D01*
X157189715Y-101400429D01*
X105700286Y-128959429D02*
X105192286Y-128233714D01*
X104829429Y-128959429D02*
X104829429Y-127435429D01*
X105410001Y-127435429D01*
X105555143Y-127508000D01*
X105627715Y-127580571D01*
X105700286Y-127725714D01*
X105700286Y-127943429D01*
X105627715Y-128088571D01*
X105555143Y-128161143D01*
X105410001Y-128233714D01*
X104829429Y-128233714D01*
X106934001Y-128886857D02*
X106788858Y-128959429D01*
X106498572Y-128959429D01*
X106353429Y-128886857D01*
X106280858Y-128741714D01*
X106280858Y-128161143D01*
X106353429Y-128016000D01*
X106498572Y-127943429D01*
X106788858Y-127943429D01*
X106934001Y-128016000D01*
X107006572Y-128161143D01*
X107006572Y-128306286D01*
X106280858Y-128451429D01*
X107877429Y-128959429D02*
X107732287Y-128886857D01*
X107659715Y-128741714D01*
X107659715Y-127435429D01*
X109111144Y-128959429D02*
X109111144Y-128161143D01*
X109038573Y-128016000D01*
X108893430Y-127943429D01*
X108603144Y-127943429D01*
X108458001Y-128016000D01*
X109111144Y-128886857D02*
X108966001Y-128959429D01*
X108603144Y-128959429D01*
X108458001Y-128886857D01*
X108385430Y-128741714D01*
X108385430Y-128596571D01*
X108458001Y-128451429D01*
X108603144Y-128378857D01*
X108966001Y-128378857D01*
X109111144Y-128306286D01*
X109836858Y-128959429D02*
X109836858Y-127943429D01*
X109836858Y-127435429D02*
X109764287Y-127508000D01*
X109836858Y-127580571D01*
X109909430Y-127508000D01*
X109836858Y-127435429D01*
X109836858Y-127580571D01*
X110490001Y-128886857D02*
X110635144Y-128959429D01*
X110925429Y-128959429D01*
X111070572Y-128886857D01*
X111143144Y-128741714D01*
X111143144Y-128669143D01*
X111070572Y-128524000D01*
X110925429Y-128451429D01*
X110707715Y-128451429D01*
X110562572Y-128378857D01*
X110490001Y-128233714D01*
X110490001Y-128161143D01*
X110562572Y-128016000D01*
X110707715Y-127943429D01*
X110925429Y-127943429D01*
X111070572Y-128016000D01*
X107950000Y-68580000D02*
X107950000Y-67310000D01*
X104140000Y-68580000D02*
X107950000Y-68580000D01*
X142240000Y-127000000D02*
X63500000Y-127000000D01*
X142240000Y-127000000D02*
X160020000Y-127000000D01*
X142240000Y-100965000D02*
X142240000Y-126365000D01*
X161290000Y-100965000D02*
X142240000Y-100965000D01*
X134620000Y-97790000D02*
X161290000Y-97790000D01*
X134620000Y-39370000D02*
X134620000Y-97790000D01*
X107950000Y-67310000D02*
X107950000Y-39370000D01*
X64770000Y-68580000D02*
X104140000Y-68580000D01*
X161290000Y-58420000D02*
X158750000Y-58420000D01*
X158750000Y-58420000D02*
X158750000Y-53340000D01*
X158750000Y-53340000D02*
X161290000Y-53340000D01*
X161290000Y-53340000D02*
X161290000Y-58420000D01*
D12*
X137668000Y-54483000D02*
X137668000Y-56769000D01*
X137668000Y-56769000D02*
X139319000Y-56769000D01*
X141097000Y-54483000D02*
X142748000Y-54483000D01*
X142748000Y-54483000D02*
X142748000Y-56769000D01*
X142748000Y-56769000D02*
X141097000Y-56769000D01*
X139319000Y-54483000D02*
X137668000Y-54483000D01*
X137668000Y-43815000D02*
X137668000Y-46101000D01*
X137668000Y-46101000D02*
X139319000Y-46101000D01*
X141097000Y-43815000D02*
X142748000Y-43815000D01*
X142748000Y-43815000D02*
X142748000Y-46101000D01*
X142748000Y-46101000D02*
X141097000Y-46101000D01*
X139319000Y-43815000D02*
X137668000Y-43815000D01*
X142748000Y-92329000D02*
X142748000Y-90043000D01*
X142748000Y-90043000D02*
X141097000Y-90043000D01*
X139319000Y-92329000D02*
X137668000Y-92329000D01*
X137668000Y-92329000D02*
X137668000Y-90043000D01*
X137668000Y-90043000D02*
X139319000Y-90043000D01*
X141097000Y-92329000D02*
X142748000Y-92329000D01*
X142748000Y-81153000D02*
X142748000Y-78867000D01*
X142748000Y-78867000D02*
X141097000Y-78867000D01*
X139319000Y-81153000D02*
X137668000Y-81153000D01*
X137668000Y-81153000D02*
X137668000Y-78867000D01*
X137668000Y-78867000D02*
X139319000Y-78867000D01*
X141097000Y-81153000D02*
X142748000Y-81153000D01*
X142748000Y-70485000D02*
X142748000Y-68199000D01*
X142748000Y-68199000D02*
X141097000Y-68199000D01*
X139319000Y-70485000D02*
X137668000Y-70485000D01*
X137668000Y-70485000D02*
X137668000Y-68199000D01*
X137668000Y-68199000D02*
X139319000Y-68199000D01*
X141097000Y-70485000D02*
X142748000Y-70485000D01*
X142748000Y-59817000D02*
X142748000Y-57531000D01*
X142748000Y-57531000D02*
X141097000Y-57531000D01*
X139319000Y-59817000D02*
X137668000Y-59817000D01*
X137668000Y-59817000D02*
X137668000Y-57531000D01*
X137668000Y-57531000D02*
X139319000Y-57531000D01*
X141097000Y-59817000D02*
X142748000Y-59817000D01*
X142748000Y-49149000D02*
X142748000Y-46863000D01*
X142748000Y-46863000D02*
X141097000Y-46863000D01*
X139319000Y-49149000D02*
X137668000Y-49149000D01*
X137668000Y-49149000D02*
X137668000Y-46863000D01*
X137668000Y-46863000D02*
X139319000Y-46863000D01*
X141097000Y-49149000D02*
X142748000Y-49149000D01*
X156972000Y-94869000D02*
X156972000Y-92583000D01*
X156972000Y-92583000D02*
X155321000Y-92583000D01*
X153543000Y-94869000D02*
X151892000Y-94869000D01*
X151892000Y-94869000D02*
X151892000Y-92583000D01*
X151892000Y-92583000D02*
X153543000Y-92583000D01*
X155321000Y-94869000D02*
X156972000Y-94869000D01*
X156972000Y-83693000D02*
X156972000Y-81407000D01*
X156972000Y-81407000D02*
X155321000Y-81407000D01*
X153543000Y-83693000D02*
X151892000Y-83693000D01*
X151892000Y-83693000D02*
X151892000Y-81407000D01*
X151892000Y-81407000D02*
X153543000Y-81407000D01*
X155321000Y-83693000D02*
X156972000Y-83693000D01*
X156972000Y-73025000D02*
X156972000Y-70739000D01*
X156972000Y-70739000D02*
X155321000Y-70739000D01*
X153543000Y-73025000D02*
X151892000Y-73025000D01*
X151892000Y-73025000D02*
X151892000Y-70739000D01*
X151892000Y-70739000D02*
X153543000Y-70739000D01*
X155321000Y-73025000D02*
X156972000Y-73025000D01*
X156972000Y-62357000D02*
X156972000Y-60071000D01*
X156972000Y-60071000D02*
X155321000Y-60071000D01*
X153543000Y-62357000D02*
X151892000Y-62357000D01*
X151892000Y-62357000D02*
X151892000Y-60071000D01*
X151892000Y-60071000D02*
X153543000Y-60071000D01*
X155321000Y-62357000D02*
X156972000Y-62357000D01*
X156972000Y-51689000D02*
X156972000Y-49403000D01*
X156972000Y-49403000D02*
X155321000Y-49403000D01*
X153543000Y-51689000D02*
X151892000Y-51689000D01*
X151892000Y-51689000D02*
X151892000Y-49403000D01*
X151892000Y-49403000D02*
X153543000Y-49403000D01*
X155321000Y-51689000D02*
X156972000Y-51689000D01*
X82899000Y-53086000D02*
X80613000Y-53086000D01*
X80613000Y-53086000D02*
X80613000Y-54737000D01*
X82899000Y-56515000D02*
X82899000Y-58166000D01*
X82899000Y-58166000D02*
X80613000Y-58166000D01*
X80613000Y-58166000D02*
X80613000Y-56515000D01*
X82899000Y-54737000D02*
X82899000Y-53086000D01*
X85820000Y-52197000D02*
X85820000Y-49911000D01*
X85820000Y-49911000D02*
X84169000Y-49911000D01*
X82391000Y-52197000D02*
X80740000Y-52197000D01*
X80740000Y-52197000D02*
X80740000Y-49911000D01*
X80740000Y-49911000D02*
X82391000Y-49911000D01*
X84169000Y-52197000D02*
X85820000Y-52197000D01*
X122047000Y-99314000D02*
X119761000Y-99314000D01*
X119761000Y-99314000D02*
X119761000Y-100965000D01*
X122047000Y-102743000D02*
X122047000Y-104394000D01*
X122047000Y-104394000D02*
X119761000Y-104394000D01*
X119761000Y-104394000D02*
X119761000Y-102743000D01*
X122047000Y-100965000D02*
X122047000Y-99314000D01*
X137668000Y-65151000D02*
X137668000Y-67437000D01*
X137668000Y-67437000D02*
X139319000Y-67437000D01*
X141097000Y-65151000D02*
X142748000Y-65151000D01*
X142748000Y-65151000D02*
X142748000Y-67437000D01*
X142748000Y-67437000D02*
X141097000Y-67437000D01*
X139319000Y-65151000D02*
X137668000Y-65151000D01*
X137668000Y-75819000D02*
X137668000Y-78105000D01*
X137668000Y-78105000D02*
X139319000Y-78105000D01*
X141097000Y-75819000D02*
X142748000Y-75819000D01*
X142748000Y-75819000D02*
X142748000Y-78105000D01*
X142748000Y-78105000D02*
X141097000Y-78105000D01*
X139319000Y-75819000D02*
X137668000Y-75819000D01*
X137668000Y-86995000D02*
X137668000Y-89281000D01*
X137668000Y-89281000D02*
X139319000Y-89281000D01*
X141097000Y-86995000D02*
X142748000Y-86995000D01*
X142748000Y-86995000D02*
X142748000Y-89281000D01*
X142748000Y-89281000D02*
X141097000Y-89281000D01*
X139319000Y-86995000D02*
X137668000Y-86995000D01*
X148844000Y-51689000D02*
X148844000Y-49403000D01*
X148844000Y-49403000D02*
X147193000Y-49403000D01*
X145415000Y-51689000D02*
X143764000Y-51689000D01*
X143764000Y-51689000D02*
X143764000Y-49403000D01*
X143764000Y-49403000D02*
X145415000Y-49403000D01*
X147193000Y-51689000D02*
X148844000Y-51689000D01*
X148844000Y-62357000D02*
X148844000Y-60071000D01*
X148844000Y-60071000D02*
X147193000Y-60071000D01*
X145415000Y-62357000D02*
X143764000Y-62357000D01*
X143764000Y-62357000D02*
X143764000Y-60071000D01*
X143764000Y-60071000D02*
X145415000Y-60071000D01*
X147193000Y-62357000D02*
X148844000Y-62357000D01*
X148844000Y-73025000D02*
X148844000Y-70739000D01*
X148844000Y-70739000D02*
X147193000Y-70739000D01*
X145415000Y-73025000D02*
X143764000Y-73025000D01*
X143764000Y-73025000D02*
X143764000Y-70739000D01*
X143764000Y-70739000D02*
X145415000Y-70739000D01*
X147193000Y-73025000D02*
X148844000Y-73025000D01*
X148844000Y-83693000D02*
X148844000Y-81407000D01*
X148844000Y-81407000D02*
X147193000Y-81407000D01*
X145415000Y-83693000D02*
X143764000Y-83693000D01*
X143764000Y-83693000D02*
X143764000Y-81407000D01*
X143764000Y-81407000D02*
X145415000Y-81407000D01*
X147193000Y-83693000D02*
X148844000Y-83693000D01*
X148844000Y-94869000D02*
X148844000Y-92583000D01*
X148844000Y-92583000D02*
X147193000Y-92583000D01*
X145415000Y-94869000D02*
X143764000Y-94869000D01*
X143764000Y-94869000D02*
X143764000Y-92583000D01*
X143764000Y-92583000D02*
X145415000Y-92583000D01*
X147193000Y-94869000D02*
X148844000Y-94869000D01*
X95948000Y-52197000D02*
X95948000Y-49911000D01*
X95948000Y-49911000D02*
X94297000Y-49911000D01*
X92519000Y-52197000D02*
X90868000Y-52197000D01*
X90868000Y-52197000D02*
X90868000Y-49911000D01*
X90868000Y-49911000D02*
X92519000Y-49911000D01*
X94297000Y-52197000D02*
X95948000Y-52197000D01*
X93027000Y-53086000D02*
X90741000Y-53086000D01*
X90741000Y-53086000D02*
X90741000Y-54737000D01*
X93027000Y-56515000D02*
X93027000Y-58166000D01*
X93027000Y-58166000D02*
X90741000Y-58166000D01*
X90741000Y-58166000D02*
X90741000Y-56515000D01*
X93027000Y-54737000D02*
X93027000Y-53086000D01*
X106076000Y-52197000D02*
X106076000Y-49911000D01*
X106076000Y-49911000D02*
X104425000Y-49911000D01*
X102647000Y-52197000D02*
X100996000Y-52197000D01*
X100996000Y-52197000D02*
X100996000Y-49911000D01*
X100996000Y-49911000D02*
X102647000Y-49911000D01*
X104425000Y-52197000D02*
X106076000Y-52197000D01*
X103155000Y-53086000D02*
X100869000Y-53086000D01*
X100869000Y-53086000D02*
X100869000Y-54737000D01*
X103155000Y-56515000D02*
X103155000Y-58166000D01*
X103155000Y-58166000D02*
X100869000Y-58166000D01*
X100869000Y-58166000D02*
X100869000Y-56515000D01*
X103155000Y-54737000D02*
X103155000Y-53086000D01*
X75692000Y-52197000D02*
X75692000Y-49911000D01*
X75692000Y-49911000D02*
X74041000Y-49911000D01*
X72263000Y-52197000D02*
X70612000Y-52197000D01*
X70612000Y-52197000D02*
X70612000Y-49911000D01*
X70612000Y-49911000D02*
X72263000Y-49911000D01*
X74041000Y-52197000D02*
X75692000Y-52197000D01*
X72771000Y-53086000D02*
X70485000Y-53086000D01*
X70485000Y-53086000D02*
X70485000Y-54737000D01*
X72771000Y-56515000D02*
X72771000Y-58166000D01*
X72771000Y-58166000D02*
X70485000Y-58166000D01*
X70485000Y-58166000D02*
X70485000Y-56515000D01*
X72771000Y-54737000D02*
X72771000Y-53086000D01*
X134747000Y-98298000D02*
X132461000Y-98298000D01*
X132461000Y-98298000D02*
X132461000Y-99949000D01*
X134747000Y-101727000D02*
X134747000Y-103378000D01*
X134747000Y-103378000D02*
X132461000Y-103378000D01*
X132461000Y-103378000D02*
X132461000Y-101727000D01*
X134747000Y-99949000D02*
X134747000Y-98298000D01*
X81661000Y-124460000D02*
X79375000Y-124460000D01*
X79375000Y-124460000D02*
X79375000Y-126111000D01*
X81661000Y-127889000D02*
X81661000Y-129540000D01*
X81661000Y-129540000D02*
X79375000Y-129540000D01*
X79375000Y-129540000D02*
X79375000Y-127889000D01*
X81661000Y-126111000D02*
X81661000Y-124460000D01*
X84201000Y-124460000D02*
X81915000Y-124460000D01*
X81915000Y-124460000D02*
X81915000Y-126111000D01*
X84201000Y-127889000D02*
X84201000Y-129540000D01*
X84201000Y-129540000D02*
X81915000Y-129540000D01*
X81915000Y-129540000D02*
X81915000Y-127889000D01*
X84201000Y-126111000D02*
X84201000Y-124460000D01*
X86741000Y-124460000D02*
X84455000Y-124460000D01*
X84455000Y-124460000D02*
X84455000Y-126111000D01*
X86741000Y-127889000D02*
X86741000Y-129540000D01*
X86741000Y-129540000D02*
X84455000Y-129540000D01*
X84455000Y-129540000D02*
X84455000Y-127889000D01*
X86741000Y-126111000D02*
X86741000Y-124460000D01*
X141986000Y-49784000D02*
G75*
G03X141986000Y-49784000I-127000J0D01*
G01*
X140716000Y-49784000D02*
X141732000Y-49784000D01*
X141732000Y-49784000D02*
X141732000Y-51308000D01*
X141732000Y-51308000D02*
X140716000Y-51308000D01*
X139700000Y-51308000D02*
X138684000Y-51308000D01*
X138684000Y-51308000D02*
X138684000Y-49784000D01*
X138684000Y-49784000D02*
X139700000Y-49784000D01*
X141986000Y-60452000D02*
G75*
G03X141986000Y-60452000I-127000J0D01*
G01*
X140716000Y-60452000D02*
X141732000Y-60452000D01*
X141732000Y-60452000D02*
X141732000Y-61976000D01*
X141732000Y-61976000D02*
X140716000Y-61976000D01*
X139700000Y-61976000D02*
X138684000Y-61976000D01*
X138684000Y-61976000D02*
X138684000Y-60452000D01*
X138684000Y-60452000D02*
X139700000Y-60452000D01*
X141986000Y-71120000D02*
G75*
G03X141986000Y-71120000I-127000J0D01*
G01*
X140716000Y-71120000D02*
X141732000Y-71120000D01*
X141732000Y-71120000D02*
X141732000Y-72644000D01*
X141732000Y-72644000D02*
X140716000Y-72644000D01*
X139700000Y-72644000D02*
X138684000Y-72644000D01*
X138684000Y-72644000D02*
X138684000Y-71120000D01*
X138684000Y-71120000D02*
X139700000Y-71120000D01*
X141986000Y-81788000D02*
G75*
G03X141986000Y-81788000I-127000J0D01*
G01*
X140716000Y-81788000D02*
X141732000Y-81788000D01*
X141732000Y-81788000D02*
X141732000Y-83312000D01*
X141732000Y-83312000D02*
X140716000Y-83312000D01*
X139700000Y-83312000D02*
X138684000Y-83312000D01*
X138684000Y-83312000D02*
X138684000Y-81788000D01*
X138684000Y-81788000D02*
X139700000Y-81788000D01*
X141986000Y-92964000D02*
G75*
G03X141986000Y-92964000I-127000J0D01*
G01*
X140716000Y-92964000D02*
X141732000Y-92964000D01*
X141732000Y-92964000D02*
X141732000Y-94488000D01*
X141732000Y-94488000D02*
X140716000Y-94488000D01*
X139700000Y-94488000D02*
X138684000Y-94488000D01*
X138684000Y-94488000D02*
X138684000Y-92964000D01*
X138684000Y-92964000D02*
X139700000Y-92964000D01*
D11*
X128778000Y-85344000D02*
X131318000Y-85344000D01*
X131318000Y-85344000D02*
X131318000Y-108204000D01*
X131318000Y-108204000D02*
X128778000Y-108204000D01*
X128778000Y-85344000D02*
X128778000Y-108204000D01*
X128778000Y-105664000D02*
X131318000Y-105664000D01*
X98806000Y-100584000D02*
X98806000Y-100584000D01*
X98806000Y-100584000D02*
X98806000Y-82804000D01*
X98806000Y-82804000D02*
X101346000Y-82804000D01*
X101346000Y-82804000D02*
X101346000Y-100584000D01*
X101346000Y-100584000D02*
X98806000Y-100584000D01*
X101346000Y-98044000D02*
X101346000Y-98044000D01*
X101346000Y-98044000D02*
X98806000Y-98044000D01*
X125730000Y-97790000D02*
X123190000Y-97790000D01*
X123190000Y-97790000D02*
X123190000Y-85090000D01*
X123190000Y-85090000D02*
X125730000Y-85090000D01*
X125730000Y-85090000D02*
X125730000Y-97790000D01*
X125730000Y-95250000D02*
X123190000Y-95250000D01*
X79502000Y-121920000D02*
X79502000Y-119380000D01*
X79502000Y-119380000D02*
X92202000Y-119380000D01*
X92202000Y-119380000D02*
X92202000Y-121920000D01*
X92202000Y-121920000D02*
X79502000Y-121920000D01*
X82042000Y-121920000D02*
X82042000Y-119380000D01*
X119126000Y-135636000D02*
X119126000Y-135636000D01*
X119126000Y-133096000D02*
X119126000Y-135636000D01*
X119126000Y-135636000D02*
X119126000Y-135636000D01*
X119126000Y-135636000D02*
X108966000Y-135636000D01*
X108966000Y-135636000D02*
X108966000Y-133096000D01*
X108966000Y-133096000D02*
X119126000Y-133096000D01*
X116586000Y-133096000D02*
X116586000Y-135636000D01*
X131826000Y-135636000D02*
X131826000Y-135636000D01*
X131826000Y-133096000D02*
X131826000Y-135636000D01*
X131826000Y-135636000D02*
X131826000Y-135636000D01*
X131826000Y-135636000D02*
X121666000Y-135636000D01*
X121666000Y-135636000D02*
X121666000Y-133096000D01*
X121666000Y-133096000D02*
X131826000Y-133096000D01*
X129286000Y-133096000D02*
X129286000Y-135636000D01*
X106426000Y-135636000D02*
X106426000Y-135636000D01*
X106426000Y-133096000D02*
X106426000Y-135636000D01*
X106426000Y-135636000D02*
X106426000Y-135636000D01*
X106426000Y-135636000D02*
X96266000Y-135636000D01*
X96266000Y-135636000D02*
X96266000Y-133096000D01*
X96266000Y-133096000D02*
X106426000Y-133096000D01*
X103886000Y-133096000D02*
X103886000Y-135636000D01*
X93726000Y-135636000D02*
X93726000Y-135636000D01*
X93726000Y-133096000D02*
X93726000Y-135636000D01*
X93726000Y-135636000D02*
X93726000Y-135636000D01*
X93726000Y-135636000D02*
X83566000Y-135636000D01*
X83566000Y-135636000D02*
X83566000Y-133096000D01*
X83566000Y-133096000D02*
X93726000Y-133096000D01*
X91186000Y-133096000D02*
X91186000Y-135636000D01*
X80264000Y-135636000D02*
X80264000Y-135636000D01*
X80264000Y-133096000D02*
X80264000Y-135636000D01*
X80264000Y-135636000D02*
X80264000Y-135636000D01*
X80264000Y-135636000D02*
X70104000Y-135636000D01*
X70104000Y-135636000D02*
X70104000Y-133096000D01*
X70104000Y-133096000D02*
X80264000Y-133096000D01*
X77724000Y-133096000D02*
X77724000Y-135636000D01*
X108712000Y-107188000D02*
X108712000Y-107188000D01*
X111252000Y-107188000D02*
X108712000Y-107188000D01*
X108712000Y-107188000D02*
X108712000Y-107188000D01*
X108712000Y-107188000D02*
X108712000Y-97028000D01*
X108712000Y-97028000D02*
X111252000Y-97028000D01*
X111252000Y-97028000D02*
X111252000Y-107188000D01*
X111252000Y-104648000D02*
X108712000Y-104648000D01*
X108712000Y-97028000D02*
X108712000Y-97028000D01*
X111252000Y-97028000D02*
X108712000Y-97028000D01*
X108712000Y-97028000D02*
X108712000Y-97028000D01*
X108712000Y-97028000D02*
X108712000Y-86868000D01*
X108712000Y-86868000D02*
X111252000Y-86868000D01*
X111252000Y-86868000D02*
X111252000Y-97028000D01*
X111252000Y-94488000D02*
X108712000Y-94488000D01*
X154432000Y-135636000D02*
X154432000Y-135636000D01*
X154432000Y-133096000D02*
X154432000Y-135636000D01*
X154432000Y-135636000D02*
X154432000Y-135636000D01*
X154432000Y-135636000D02*
X144272000Y-135636000D01*
X144272000Y-135636000D02*
X144272000Y-133096000D01*
X144272000Y-133096000D02*
X154432000Y-133096000D01*
X151892000Y-133096000D02*
X151892000Y-135636000D01*
X74295000Y-107823000D02*
X74295000Y-107823000D01*
X71755000Y-107823000D02*
X74295000Y-107823000D01*
X74295000Y-107823000D02*
X74295000Y-107823000D01*
X74295000Y-107823000D02*
X74295000Y-117983000D01*
X74295000Y-117983000D02*
X71755000Y-117983000D01*
X71755000Y-117983000D02*
X71755000Y-107823000D01*
X71755000Y-110363000D02*
X74295000Y-110363000D01*
X118872000Y-106934000D02*
X116332000Y-106934000D01*
X116332000Y-106934000D02*
X116332000Y-99314000D01*
X116332000Y-99314000D02*
X118872000Y-99314000D01*
X118872000Y-99314000D02*
X118872000Y-106934000D01*
X116332000Y-104394000D02*
X118872000Y-104394000D01*
X70612000Y-41656000D02*
X70612000Y-39116000D01*
X70612000Y-39116000D02*
X75692000Y-39116000D01*
X75692000Y-39116000D02*
X75692000Y-41656000D01*
X75692000Y-41656000D02*
X70612000Y-41656000D01*
X136652000Y-135636000D02*
X136652000Y-133096000D01*
X136652000Y-133096000D02*
X141732000Y-133096000D01*
X141732000Y-133096000D02*
X141732000Y-135636000D01*
X141732000Y-135636000D02*
X136652000Y-135636000D01*
X80232000Y-41656000D02*
X80232000Y-39116000D01*
X80232000Y-39116000D02*
X85312000Y-39116000D01*
X85312000Y-39116000D02*
X85312000Y-41656000D01*
X85312000Y-41656000D02*
X80232000Y-41656000D01*
X158750000Y-88900000D02*
X161290000Y-88900000D01*
X161290000Y-88900000D02*
X161290000Y-93980000D01*
X161290000Y-93980000D02*
X158750000Y-93980000D01*
X158750000Y-93980000D02*
X158750000Y-88900000D01*
X89852000Y-41656000D02*
X89852000Y-39116000D01*
X89852000Y-39116000D02*
X94932000Y-39116000D01*
X94932000Y-39116000D02*
X94932000Y-41656000D01*
X94932000Y-41656000D02*
X89852000Y-41656000D01*
X161290000Y-80010000D02*
X158750000Y-80010000D01*
X158750000Y-80010000D02*
X158750000Y-74930000D01*
X158750000Y-74930000D02*
X161290000Y-74930000D01*
X161290000Y-74930000D02*
X161290000Y-80010000D01*
X99472000Y-41656000D02*
X99472000Y-39116000D01*
X99472000Y-39116000D02*
X104552000Y-39116000D01*
X104552000Y-39116000D02*
X104552000Y-41656000D01*
X104552000Y-41656000D02*
X99472000Y-41656000D01*
X65786000Y-98044000D02*
X98806000Y-98044000D01*
X98806000Y-98044000D02*
X98806000Y-100584000D01*
X98806000Y-100584000D02*
X65786000Y-100584000D01*
X65786000Y-100584000D02*
X65786000Y-98044000D01*
X68326000Y-98044000D02*
X68326000Y-100584000D01*
X98298000Y-85344000D02*
X65278000Y-85344000D01*
X65278000Y-85344000D02*
X65278000Y-82804000D01*
X65278000Y-82804000D02*
X98298000Y-82804000D01*
X98298000Y-82804000D02*
X98298000Y-85344000D01*
X95758000Y-85344000D02*
X95758000Y-82804000D01*
X76835000Y-112649000D02*
X76835000Y-110109000D01*
X76835000Y-110109000D02*
X102235000Y-110109000D01*
X102235000Y-110109000D02*
X102235000Y-112649000D01*
X102235000Y-112649000D02*
X76835000Y-112649000D01*
X79375000Y-112649000D02*
X79375000Y-110109000D01*
X75641200Y-46736000D02*
X70612000Y-46736000D01*
X70612000Y-46736000D02*
X70612000Y-44196000D01*
X70612000Y-44196000D02*
X75692000Y-44196000D01*
X75692000Y-44196000D02*
X75692000Y-46736000D01*
X75692000Y-46101000D02*
X75057000Y-46736000D01*
X104501200Y-46736000D02*
X99472000Y-46736000D01*
X99472000Y-46736000D02*
X99472000Y-44196000D01*
X99472000Y-44196000D02*
X104552000Y-44196000D01*
X104552000Y-44196000D02*
X104552000Y-46736000D01*
X104552000Y-46101000D02*
X103917000Y-46736000D01*
X94881200Y-46736000D02*
X89852000Y-46736000D01*
X89852000Y-46736000D02*
X89852000Y-44196000D01*
X89852000Y-44196000D02*
X94932000Y-44196000D01*
X94932000Y-44196000D02*
X94932000Y-46736000D01*
X94932000Y-46101000D02*
X94297000Y-46736000D01*
X85261200Y-46736000D02*
X80232000Y-46736000D01*
X80232000Y-46736000D02*
X80232000Y-44196000D01*
X80232000Y-44196000D02*
X85312000Y-44196000D01*
X85312000Y-44196000D02*
X85312000Y-46736000D01*
X85312000Y-46101000D02*
X84677000Y-46736000D01*
D12*
X148082000Y-48006000D02*
X148082000Y-42926000D01*
X148082000Y-42926000D02*
X152654000Y-42926000D01*
X152654000Y-42926000D02*
X152654000Y-48006000D01*
X152654000Y-48006000D02*
X148082000Y-48006000D01*
X149606000Y-48006000D02*
X149606000Y-47498000D01*
X149606000Y-47498000D02*
X150876000Y-47498000D01*
X150876000Y-47498000D02*
X150876000Y-48006000D01*
X148082000Y-58674000D02*
X148082000Y-53594000D01*
X148082000Y-53594000D02*
X152654000Y-53594000D01*
X152654000Y-53594000D02*
X152654000Y-58674000D01*
X152654000Y-58674000D02*
X148082000Y-58674000D01*
X149606000Y-58674000D02*
X149606000Y-58166000D01*
X149606000Y-58166000D02*
X150876000Y-58166000D01*
X150876000Y-58166000D02*
X150876000Y-58674000D01*
X148082000Y-69342000D02*
X148082000Y-64262000D01*
X148082000Y-64262000D02*
X152654000Y-64262000D01*
X152654000Y-64262000D02*
X152654000Y-69342000D01*
X152654000Y-69342000D02*
X148082000Y-69342000D01*
X149606000Y-69342000D02*
X149606000Y-68834000D01*
X149606000Y-68834000D02*
X150876000Y-68834000D01*
X150876000Y-68834000D02*
X150876000Y-69342000D01*
X148082000Y-80010000D02*
X148082000Y-74930000D01*
X148082000Y-74930000D02*
X152654000Y-74930000D01*
X152654000Y-74930000D02*
X152654000Y-80010000D01*
X152654000Y-80010000D02*
X148082000Y-80010000D01*
X149606000Y-80010000D02*
X149606000Y-79502000D01*
X149606000Y-79502000D02*
X150876000Y-79502000D01*
X150876000Y-79502000D02*
X150876000Y-80010000D01*
X148082000Y-90678000D02*
X148082000Y-85598000D01*
X148082000Y-85598000D02*
X152654000Y-85598000D01*
X152654000Y-85598000D02*
X152654000Y-90678000D01*
X152654000Y-90678000D02*
X148082000Y-90678000D01*
X149606000Y-90678000D02*
X149606000Y-90170000D01*
X149606000Y-90170000D02*
X150876000Y-90170000D01*
X150876000Y-90170000D02*
X150876000Y-90678000D01*
X157988000Y-46482000D02*
X157988000Y-45847000D01*
X157988000Y-45847000D02*
X156972000Y-45847000D01*
X156972000Y-47625000D02*
X157988000Y-47625000D01*
X157988000Y-47625000D02*
X157988000Y-46990000D01*
X158115000Y-46482000D02*
X157988000Y-46482000D01*
X157988000Y-46990000D02*
X158115000Y-46990000D01*
X156972000Y-45847000D02*
X156972000Y-47625000D01*
X158115000Y-46990000D02*
X158115000Y-46482000D01*
X157226000Y-57150000D02*
X157226000Y-56515000D01*
X157226000Y-56515000D02*
X156210000Y-56515000D01*
X156210000Y-58293000D02*
X157226000Y-58293000D01*
X157226000Y-58293000D02*
X157226000Y-57658000D01*
X157353000Y-57150000D02*
X157226000Y-57150000D01*
X157226000Y-57658000D02*
X157353000Y-57658000D01*
X156210000Y-56515000D02*
X156210000Y-58293000D01*
X157353000Y-57658000D02*
X157353000Y-57150000D01*
X157734000Y-67818000D02*
X157734000Y-67183000D01*
X157734000Y-67183000D02*
X156718000Y-67183000D01*
X156718000Y-68961000D02*
X157734000Y-68961000D01*
X157734000Y-68961000D02*
X157734000Y-68326000D01*
X157861000Y-67818000D02*
X157734000Y-67818000D01*
X157734000Y-68326000D02*
X157861000Y-68326000D01*
X156718000Y-67183000D02*
X156718000Y-68961000D01*
X157861000Y-68326000D02*
X157861000Y-67818000D01*
X157226000Y-78486000D02*
X157226000Y-77851000D01*
X157226000Y-77851000D02*
X156210000Y-77851000D01*
X156210000Y-79629000D02*
X157226000Y-79629000D01*
X157226000Y-79629000D02*
X157226000Y-78994000D01*
X157353000Y-78486000D02*
X157226000Y-78486000D01*
X157226000Y-78994000D02*
X157353000Y-78994000D01*
X156210000Y-77851000D02*
X156210000Y-79629000D01*
X157353000Y-78994000D02*
X157353000Y-78486000D01*
X157226000Y-89154000D02*
X157226000Y-88519000D01*
X157226000Y-88519000D02*
X156210000Y-88519000D01*
X156210000Y-90297000D02*
X157226000Y-90297000D01*
X157226000Y-90297000D02*
X157226000Y-89662000D01*
X157353000Y-89154000D02*
X157226000Y-89154000D01*
X157226000Y-89662000D02*
X157353000Y-89662000D01*
X156210000Y-88519000D02*
X156210000Y-90297000D01*
X157353000Y-89662000D02*
X157353000Y-89154000D01*
D10*
X162000000Y-110100000D02*
X157500000Y-110100000D01*
X157500000Y-110100000D02*
X157500000Y-108100000D01*
X157500000Y-108100000D02*
X162000000Y-108100000D01*
X148000000Y-113600000D02*
X148000000Y-104600000D01*
X148000000Y-104600000D02*
X162000000Y-104600000D01*
X162000000Y-104600000D02*
X162000000Y-113600000D01*
X162000000Y-113600000D02*
X148000000Y-113600000D01*
X162000000Y-122100000D02*
X157500000Y-122100000D01*
X157500000Y-122100000D02*
X157500000Y-120100000D01*
X157500000Y-120100000D02*
X162000000Y-120100000D01*
X148000000Y-125600000D02*
X148000000Y-116600000D01*
X148000000Y-116600000D02*
X162000000Y-116600000D01*
X162000000Y-116600000D02*
X162000000Y-125600000D01*
X162000000Y-125600000D02*
X148000000Y-125600000D01*
X84500000Y-64100000D02*
X85500000Y-64100000D01*
X85500000Y-64100000D02*
X85500000Y-59100000D01*
X85500000Y-59100000D02*
X75500000Y-59100000D01*
X75500000Y-59100000D02*
X75500000Y-64100000D01*
X79500000Y-64100000D02*
X81500000Y-64100000D01*
X75500000Y-64100000D02*
X76500000Y-64100000D01*
X94500000Y-64100000D02*
X95500000Y-64100000D01*
X95500000Y-64100000D02*
X95500000Y-59100000D01*
X95500000Y-59100000D02*
X85500000Y-59100000D01*
X85500000Y-59100000D02*
X85500000Y-64100000D01*
X89500000Y-64100000D02*
X91500000Y-64100000D01*
X85500000Y-64100000D02*
X86500000Y-64100000D01*
X104500000Y-64100000D02*
X105500000Y-64100000D01*
X105500000Y-64100000D02*
X105500000Y-59100000D01*
X105500000Y-59100000D02*
X95500000Y-59100000D01*
X95500000Y-59100000D02*
X95500000Y-64100000D01*
X99500000Y-64100000D02*
X101500000Y-64100000D01*
X95500000Y-64100000D02*
X96500000Y-64100000D01*
X74500000Y-64100000D02*
X75500000Y-64100000D01*
X75500000Y-64100000D02*
X75500000Y-59100000D01*
X75500000Y-59100000D02*
X65500000Y-59100000D01*
X65500000Y-59100000D02*
X65500000Y-64100000D01*
X69500000Y-64100000D02*
X71500000Y-64100000D01*
X65500000Y-64100000D02*
X66500000Y-64100000D01*
%LPC*%
D13*
X160020000Y-57150000D03*
D14*
X160020000Y-54610000D03*
D15*
X138557000Y-55626000D03*
X141859000Y-55626000D03*
X138557000Y-44958000D03*
X141859000Y-44958000D03*
X141859000Y-91186000D03*
X138557000Y-91186000D03*
X141859000Y-80010000D03*
X138557000Y-80010000D03*
X141859000Y-69342000D03*
X138557000Y-69342000D03*
X141859000Y-58674000D03*
X138557000Y-58674000D03*
X141859000Y-48006000D03*
X138557000Y-48006000D03*
X156083000Y-93726000D03*
X152781000Y-93726000D03*
X156083000Y-82550000D03*
X152781000Y-82550000D03*
X156083000Y-71882000D03*
X152781000Y-71882000D03*
X156083000Y-61214000D03*
X152781000Y-61214000D03*
X156083000Y-50546000D03*
X152781000Y-50546000D03*
D16*
X81756000Y-53975000D03*
X81756000Y-57277000D03*
D15*
X84931000Y-51054000D03*
X81629000Y-51054000D03*
D16*
X120904000Y-100203000D03*
X120904000Y-103505000D03*
D15*
X138557000Y-66294000D03*
X141859000Y-66294000D03*
X138557000Y-76962000D03*
X141859000Y-76962000D03*
X138557000Y-88138000D03*
X141859000Y-88138000D03*
X147955000Y-50546000D03*
X144653000Y-50546000D03*
X147955000Y-61214000D03*
X144653000Y-61214000D03*
X147955000Y-71882000D03*
X144653000Y-71882000D03*
X147955000Y-82550000D03*
X144653000Y-82550000D03*
X147955000Y-93726000D03*
X144653000Y-93726000D03*
X95059000Y-51054000D03*
X91757000Y-51054000D03*
D16*
X91884000Y-53975000D03*
X91884000Y-57277000D03*
D15*
X105187000Y-51054000D03*
X101885000Y-51054000D03*
D16*
X102012000Y-53975000D03*
X102012000Y-57277000D03*
D15*
X74803000Y-51054000D03*
X71501000Y-51054000D03*
D16*
X71628000Y-53975000D03*
X71628000Y-57277000D03*
X133604000Y-99187000D03*
X133604000Y-102489000D03*
X80518000Y-125349000D03*
X80518000Y-128651000D03*
X83058000Y-125349000D03*
X83058000Y-128651000D03*
X85598000Y-125349000D03*
X85598000Y-128651000D03*
D17*
X141160500Y-50546000D03*
X139255500Y-50546000D03*
X141160500Y-61214000D03*
X139255500Y-61214000D03*
X141160500Y-71882000D03*
X139255500Y-71882000D03*
X141160500Y-82550000D03*
X139255500Y-82550000D03*
X141160500Y-93726000D03*
X139255500Y-93726000D03*
D13*
X130048000Y-106934000D03*
D14*
X130048000Y-104394000D03*
X130048000Y-101854000D03*
X130048000Y-99314000D03*
X130048000Y-96774000D03*
X130048000Y-94234000D03*
X130048000Y-91694000D03*
X130048000Y-89154000D03*
X130048000Y-86614000D03*
D13*
X100076000Y-99314000D03*
D14*
X100076000Y-96774000D03*
X100076000Y-94234000D03*
X100076000Y-91694000D03*
X100076000Y-89154000D03*
X100076000Y-86614000D03*
X100076000Y-84074000D03*
D13*
X124460000Y-96520000D03*
D14*
X124460000Y-93980000D03*
X124460000Y-91440000D03*
X124460000Y-88900000D03*
X124460000Y-86360000D03*
D13*
X80772000Y-120650000D03*
D14*
X83312000Y-120650000D03*
X85852000Y-120650000D03*
X88392000Y-120650000D03*
X90932000Y-120650000D03*
D13*
X117856000Y-134366000D03*
D14*
X115316000Y-134366000D03*
X112776000Y-134366000D03*
X110236000Y-134366000D03*
D13*
X130556000Y-134366000D03*
D14*
X128016000Y-134366000D03*
X125476000Y-134366000D03*
X122936000Y-134366000D03*
D13*
X105156000Y-134366000D03*
D14*
X102616000Y-134366000D03*
X100076000Y-134366000D03*
X97536000Y-134366000D03*
D13*
X92456000Y-134366000D03*
D14*
X89916000Y-134366000D03*
X87376000Y-134366000D03*
X84836000Y-134366000D03*
D13*
X78994000Y-134366000D03*
D14*
X76454000Y-134366000D03*
X73914000Y-134366000D03*
X71374000Y-134366000D03*
D13*
X109982000Y-105918000D03*
D14*
X109982000Y-103378000D03*
X109982000Y-100838000D03*
X109982000Y-98298000D03*
D13*
X109982000Y-95758000D03*
D14*
X109982000Y-93218000D03*
X109982000Y-90678000D03*
X109982000Y-88138000D03*
D13*
X153162000Y-134366000D03*
D14*
X150622000Y-134366000D03*
X148082000Y-134366000D03*
X145542000Y-134366000D03*
D13*
X73025000Y-109093000D03*
D14*
X73025000Y-111633000D03*
X73025000Y-114173000D03*
X73025000Y-116713000D03*
D13*
X117602000Y-105664000D03*
D14*
X117602000Y-103124000D03*
X117602000Y-100584000D03*
D13*
X71882000Y-40386000D03*
D14*
X74422000Y-40386000D03*
D13*
X137922000Y-134366000D03*
D14*
X140462000Y-134366000D03*
D13*
X81502000Y-40386000D03*
D14*
X84042000Y-40386000D03*
D13*
X160020000Y-90170000D03*
D14*
X160020000Y-92710000D03*
D13*
X91122000Y-40386000D03*
D14*
X93662000Y-40386000D03*
D13*
X160020000Y-78740000D03*
D14*
X160020000Y-76200000D03*
D13*
X100742000Y-40386000D03*
D14*
X103282000Y-40386000D03*
D13*
X67056000Y-99314000D03*
D14*
X69596000Y-99314000D03*
X72136000Y-99314000D03*
X74676000Y-99314000D03*
X77216000Y-99314000D03*
X79756000Y-99314000D03*
X82296000Y-99314000D03*
X84836000Y-99314000D03*
X87376000Y-99314000D03*
X89916000Y-99314000D03*
X92456000Y-99314000D03*
X94996000Y-99314000D03*
X97536000Y-99314000D03*
D13*
X97028000Y-84074000D03*
D14*
X94488000Y-84074000D03*
X91948000Y-84074000D03*
X89408000Y-84074000D03*
X86868000Y-84074000D03*
X84328000Y-84074000D03*
X81788000Y-84074000D03*
X79248000Y-84074000D03*
X76708000Y-84074000D03*
X74168000Y-84074000D03*
X71628000Y-84074000D03*
X69088000Y-84074000D03*
X66548000Y-84074000D03*
D13*
X78105000Y-111379000D03*
D14*
X80645000Y-111379000D03*
X83185000Y-111379000D03*
X85725000Y-111379000D03*
X88265000Y-111379000D03*
X90805000Y-111379000D03*
X93345000Y-111379000D03*
X95885000Y-111379000D03*
X98425000Y-111379000D03*
X100965000Y-111379000D03*
X74422000Y-45466000D03*
X71882000Y-45466000D03*
X103282000Y-45466000D03*
X100742000Y-45466000D03*
X93662000Y-45466000D03*
X91122000Y-45466000D03*
X84042000Y-45466000D03*
X81502000Y-45466000D03*
D18*
X147193000Y-47371000D03*
X147193000Y-46101000D03*
X147193000Y-44831000D03*
X147193000Y-43561000D03*
X153543000Y-43561000D03*
X153543000Y-44831000D03*
X153543000Y-46101000D03*
X153543000Y-47371000D03*
X147193000Y-58039000D03*
X147193000Y-56769000D03*
X147193000Y-55499000D03*
X147193000Y-54229000D03*
X153543000Y-54229000D03*
X153543000Y-55499000D03*
X153543000Y-56769000D03*
X153543000Y-58039000D03*
X147193000Y-68707000D03*
X147193000Y-67437000D03*
X147193000Y-66167000D03*
X147193000Y-64897000D03*
X153543000Y-64897000D03*
X153543000Y-66167000D03*
X153543000Y-67437000D03*
X153543000Y-68707000D03*
X147193000Y-79375000D03*
X147193000Y-78105000D03*
X147193000Y-76835000D03*
X147193000Y-75565000D03*
X153543000Y-75565000D03*
X153543000Y-76835000D03*
X153543000Y-78105000D03*
X153543000Y-79375000D03*
X147193000Y-90043000D03*
X147193000Y-88773000D03*
X147193000Y-87503000D03*
X147193000Y-86233000D03*
X153543000Y-86233000D03*
X153543000Y-87503000D03*
X153543000Y-88773000D03*
X153543000Y-90043000D03*
D19*
X156530040Y-47386240D03*
X156530040Y-46085760D03*
X158429960Y-46736000D03*
X155768040Y-58054240D03*
X155768040Y-56753760D03*
X157667960Y-57404000D03*
X156276040Y-68722240D03*
X156276040Y-67421760D03*
X158175960Y-68072000D03*
X155768040Y-79390240D03*
X155768040Y-78089760D03*
X157667960Y-78740000D03*
X155768040Y-90058240D03*
X155768040Y-88757760D03*
X157667960Y-89408000D03*
D20*
X158496000Y-41402000D03*
X66548000Y-133350000D03*
X66548000Y-41402000D03*
X158496000Y-133350000D03*
D21*
X148000000Y-109100000D03*
X154500000Y-109100000D03*
D22*
X151500000Y-104600000D03*
D21*
X148000000Y-121100000D03*
X154500000Y-121100000D03*
D22*
X151500000Y-116600000D03*
D23*
X78000000Y-64100000D03*
X83000000Y-64100000D03*
X80500000Y-61600000D03*
X88000000Y-64100000D03*
X93000000Y-64100000D03*
X90500000Y-61600000D03*
X98000000Y-64100000D03*
X103000000Y-64100000D03*
X100500000Y-61600000D03*
X68000000Y-64100000D03*
X73000000Y-64100000D03*
X70500000Y-61600000D03*
M02*
