G04 (created by PCBNEW-RS274X (2011-07-08 BZR 3044)-stable) date 07/04/2017 10:21:20*
G01*
G70*
G90*
%MOIN*%
G04 Gerber Fmt 3.4, Leading zero omitted, Abs format*
%FSLAX34Y34*%
G04 APERTURE LIST*
%ADD10C,0.006000*%
%ADD11C,0.012000*%
%ADD12R,0.075000X0.075000*%
%ADD13C,0.075000*%
%ADD14C,0.256200*%
G04 APERTURE END LIST*
G54D10*
G54D11*
X63800Y-53900D02*
X24800Y-53900D01*
X63800Y-14900D02*
X63800Y-53900D01*
X24800Y-14900D02*
X63800Y-14900D01*
X24800Y-53900D02*
X24800Y-14900D01*
%LPC*%
G54D12*
X51200Y-42100D03*
G54D13*
X51200Y-41100D03*
X51200Y-40100D03*
X51200Y-39100D03*
X51200Y-38100D03*
X51200Y-37100D03*
X51200Y-36100D03*
X51200Y-35100D03*
X51200Y-34100D03*
G54D12*
X39400Y-39100D03*
G54D13*
X39400Y-38100D03*
X39400Y-37100D03*
X39400Y-36100D03*
X39400Y-35100D03*
X39400Y-34100D03*
X39400Y-33100D03*
G54D12*
X49000Y-38000D03*
G54D13*
X49000Y-37000D03*
X49000Y-36000D03*
X49000Y-35000D03*
X49000Y-34000D03*
G54D12*
X31800Y-47500D03*
G54D13*
X32800Y-47500D03*
X33800Y-47500D03*
X34800Y-47500D03*
X35800Y-47500D03*
G54D12*
X46400Y-52900D03*
G54D13*
X45400Y-52900D03*
X44400Y-52900D03*
X43400Y-52900D03*
G54D12*
X51400Y-52900D03*
G54D13*
X50400Y-52900D03*
X49400Y-52900D03*
X48400Y-52900D03*
G54D12*
X41400Y-52900D03*
G54D13*
X40400Y-52900D03*
X39400Y-52900D03*
X38400Y-52900D03*
G54D12*
X36400Y-52900D03*
G54D13*
X35400Y-52900D03*
X34400Y-52900D03*
X33400Y-52900D03*
G54D12*
X31100Y-52900D03*
G54D13*
X30100Y-52900D03*
X29100Y-52900D03*
X28100Y-52900D03*
G54D12*
X43300Y-41700D03*
G54D13*
X43300Y-40700D03*
X43300Y-39700D03*
X43300Y-38700D03*
G54D12*
X43300Y-37700D03*
G54D13*
X43300Y-36700D03*
X43300Y-35700D03*
X43300Y-34700D03*
G54D12*
X60300Y-52900D03*
G54D13*
X59300Y-52900D03*
X58300Y-52900D03*
X57300Y-52900D03*
G54D12*
X28750Y-42950D03*
G54D13*
X28750Y-43950D03*
X28750Y-44950D03*
X28750Y-45950D03*
G54D12*
X46300Y-41600D03*
G54D13*
X46300Y-40600D03*
X46300Y-39600D03*
G54D12*
X30200Y-23700D03*
G54D13*
X29200Y-23700D03*
X28200Y-23700D03*
G54D12*
X39800Y-23700D03*
G54D13*
X38800Y-23700D03*
X37800Y-23700D03*
G54D12*
X36600Y-23700D03*
G54D13*
X35600Y-23700D03*
X34600Y-23700D03*
G54D12*
X33400Y-23700D03*
G54D13*
X32400Y-23700D03*
X31400Y-23700D03*
G54D12*
X28300Y-15900D03*
G54D13*
X29300Y-15900D03*
G54D12*
X54300Y-52900D03*
G54D13*
X55300Y-52900D03*
G54D12*
X62800Y-49400D03*
G54D13*
X62800Y-48400D03*
G54D12*
X62800Y-46400D03*
G54D13*
X62800Y-45400D03*
G54D12*
X31300Y-15900D03*
G54D13*
X32300Y-15900D03*
G54D12*
X63000Y-35500D03*
G54D13*
X63000Y-36500D03*
G54D12*
X34300Y-15900D03*
G54D13*
X35300Y-15900D03*
G54D12*
X63000Y-31000D03*
G54D13*
X63000Y-30000D03*
G54D12*
X37300Y-15900D03*
G54D13*
X38300Y-15900D03*
G54D12*
X63000Y-22500D03*
G54D13*
X63000Y-21500D03*
G54D12*
X26400Y-39100D03*
G54D13*
X27400Y-39100D03*
X28400Y-39100D03*
X29400Y-39100D03*
X30400Y-39100D03*
X31400Y-39100D03*
X32400Y-39100D03*
X33400Y-39100D03*
X34400Y-39100D03*
X35400Y-39100D03*
X36400Y-39100D03*
X37400Y-39100D03*
X38400Y-39100D03*
G54D12*
X38200Y-33100D03*
G54D13*
X37200Y-33100D03*
X36200Y-33100D03*
X35200Y-33100D03*
X34200Y-33100D03*
X33200Y-33100D03*
X32200Y-33100D03*
X31200Y-33100D03*
X30200Y-33100D03*
X29200Y-33100D03*
X28200Y-33100D03*
X27200Y-33100D03*
X26200Y-33100D03*
G54D12*
X30750Y-43850D03*
G54D13*
X31750Y-43850D03*
X32750Y-43850D03*
X33750Y-43850D03*
X34750Y-43850D03*
X35750Y-43850D03*
X36750Y-43850D03*
X37750Y-43850D03*
X38750Y-43850D03*
X39750Y-43850D03*
X29300Y-17900D03*
X28300Y-17900D03*
X38300Y-17900D03*
X37300Y-17900D03*
X35300Y-17900D03*
X34300Y-17900D03*
X32300Y-17900D03*
X31300Y-17900D03*
G54D14*
X62400Y-16300D03*
X26200Y-52500D03*
X26200Y-16300D03*
X62400Y-52500D03*
M02*
