G04 #@! TF.FileFunction,Legend,Bot*
%FSLAX46Y46*%
G04 Gerber Fmt 4.6, Leading zero omitted, Abs format (unit mm)*
G04 Created by KiCad (PCBNEW 4.0.6) date 04/09/17 13:57:38*
%MOMM*%
%LPD*%
G01*
G04 APERTURE LIST*
%ADD10C,0.150000*%
%ADD11R,1.905000X1.905000*%
%ADD12C,1.905000*%
%ADD13C,6.507480*%
%ADD14R,2.308000X3.708000*%
%ADD15R,3.708000X2.308000*%
%ADD16R,2.508000X1.508000*%
G04 APERTURE END LIST*
D10*
%LPC*%
D11*
X160020000Y-57150000D03*
D12*
X160020000Y-54610000D03*
D11*
X130048000Y-106934000D03*
D12*
X130048000Y-104394000D03*
X130048000Y-101854000D03*
X130048000Y-99314000D03*
X130048000Y-96774000D03*
X130048000Y-94234000D03*
X130048000Y-91694000D03*
X130048000Y-89154000D03*
X130048000Y-86614000D03*
D11*
X100076000Y-99314000D03*
D12*
X100076000Y-96774000D03*
X100076000Y-94234000D03*
X100076000Y-91694000D03*
X100076000Y-89154000D03*
X100076000Y-86614000D03*
X100076000Y-84074000D03*
D11*
X124460000Y-96520000D03*
D12*
X124460000Y-93980000D03*
X124460000Y-91440000D03*
X124460000Y-88900000D03*
X124460000Y-86360000D03*
D11*
X80772000Y-120650000D03*
D12*
X83312000Y-120650000D03*
X85852000Y-120650000D03*
X88392000Y-120650000D03*
X90932000Y-120650000D03*
D11*
X117856000Y-134366000D03*
D12*
X115316000Y-134366000D03*
X112776000Y-134366000D03*
X110236000Y-134366000D03*
D11*
X130556000Y-134366000D03*
D12*
X128016000Y-134366000D03*
X125476000Y-134366000D03*
X122936000Y-134366000D03*
D11*
X105156000Y-134366000D03*
D12*
X102616000Y-134366000D03*
X100076000Y-134366000D03*
X97536000Y-134366000D03*
D11*
X92456000Y-134366000D03*
D12*
X89916000Y-134366000D03*
X87376000Y-134366000D03*
X84836000Y-134366000D03*
D11*
X78994000Y-134366000D03*
D12*
X76454000Y-134366000D03*
X73914000Y-134366000D03*
X71374000Y-134366000D03*
D11*
X109982000Y-105918000D03*
D12*
X109982000Y-103378000D03*
X109982000Y-100838000D03*
X109982000Y-98298000D03*
D11*
X109982000Y-95758000D03*
D12*
X109982000Y-93218000D03*
X109982000Y-90678000D03*
X109982000Y-88138000D03*
D11*
X153162000Y-134366000D03*
D12*
X150622000Y-134366000D03*
X148082000Y-134366000D03*
X145542000Y-134366000D03*
D11*
X73025000Y-109093000D03*
D12*
X73025000Y-111633000D03*
X73025000Y-114173000D03*
X73025000Y-116713000D03*
D11*
X117602000Y-105664000D03*
D12*
X117602000Y-103124000D03*
X117602000Y-100584000D03*
D11*
X71882000Y-40386000D03*
D12*
X74422000Y-40386000D03*
D11*
X137922000Y-134366000D03*
D12*
X140462000Y-134366000D03*
D11*
X81502000Y-40386000D03*
D12*
X84042000Y-40386000D03*
D11*
X160020000Y-90170000D03*
D12*
X160020000Y-92710000D03*
D11*
X91122000Y-40386000D03*
D12*
X93662000Y-40386000D03*
D11*
X160020000Y-78740000D03*
D12*
X160020000Y-76200000D03*
D11*
X100742000Y-40386000D03*
D12*
X103282000Y-40386000D03*
D11*
X67056000Y-99314000D03*
D12*
X69596000Y-99314000D03*
X72136000Y-99314000D03*
X74676000Y-99314000D03*
X77216000Y-99314000D03*
X79756000Y-99314000D03*
X82296000Y-99314000D03*
X84836000Y-99314000D03*
X87376000Y-99314000D03*
X89916000Y-99314000D03*
X92456000Y-99314000D03*
X94996000Y-99314000D03*
X97536000Y-99314000D03*
D11*
X97028000Y-84074000D03*
D12*
X94488000Y-84074000D03*
X91948000Y-84074000D03*
X89408000Y-84074000D03*
X86868000Y-84074000D03*
X84328000Y-84074000D03*
X81788000Y-84074000D03*
X79248000Y-84074000D03*
X76708000Y-84074000D03*
X74168000Y-84074000D03*
X71628000Y-84074000D03*
X69088000Y-84074000D03*
X66548000Y-84074000D03*
D11*
X78105000Y-111379000D03*
D12*
X80645000Y-111379000D03*
X83185000Y-111379000D03*
X85725000Y-111379000D03*
X88265000Y-111379000D03*
X90805000Y-111379000D03*
X93345000Y-111379000D03*
X95885000Y-111379000D03*
X98425000Y-111379000D03*
X100965000Y-111379000D03*
X74422000Y-45466000D03*
X71882000Y-45466000D03*
X103282000Y-45466000D03*
X100742000Y-45466000D03*
X93662000Y-45466000D03*
X91122000Y-45466000D03*
X84042000Y-45466000D03*
X81502000Y-45466000D03*
D13*
X158496000Y-41402000D03*
X66548000Y-133350000D03*
X66548000Y-41402000D03*
X158496000Y-133350000D03*
D14*
X148000000Y-109100000D03*
X154500000Y-109100000D03*
D15*
X151500000Y-104600000D03*
D14*
X148000000Y-121100000D03*
X154500000Y-121100000D03*
D15*
X151500000Y-116600000D03*
D16*
X78000000Y-64100000D03*
X83000000Y-64100000D03*
X80500000Y-61600000D03*
X88000000Y-64100000D03*
X93000000Y-64100000D03*
X90500000Y-61600000D03*
X98000000Y-64100000D03*
X103000000Y-64100000D03*
X100500000Y-61600000D03*
X68000000Y-64100000D03*
X73000000Y-64100000D03*
X70500000Y-61600000D03*
M02*
