M48
;DRILL file {Pcbnew (2013-07-07 BZR 4022)-stable} date 14/09/2015 13:29:09
;FORMAT={-:-/ absolute / metric / decimal}
FMAT,2
METRIC,TZ
T1C0.635
T2C0.800
T3C0.813
%
G90
G05
M71
T1
X252.144Y-132.309
X252.322Y-166.002
X252.5Y-114.44
X252.5Y-148.044
X264.768Y-194.094
X270.242Y-176.441
T2
X125.335Y-130.175
X126.224Y-150.114
X127.24Y-104.902
X127.24Y-191.77
X127.621Y-161.925
X127.748Y-175.768
X129.653Y-155.067
X130.669Y-130.429
X131.05Y-163.576
X133.082Y-163.322
X135.876Y-163.322
X138.416Y-163.322
X139.94Y-197.104
X147.052Y-104.902
X152.157Y-135.611
X153.275Y-145.796
X155.434Y-197.104
X156.45Y-139.954
X159.587Y-130.162
X160.895Y-146.558
X166.356Y-174.879
X167.118Y-104.902
X170.42Y-196.85
X185.406Y-197.104
X187.438Y-104.648
X199.884Y-197.104
X201.662Y-154.178
X201.662Y-163.068
X201.725Y-145.669
X201.916Y-160.528
X204.202Y-105.283
X208.393Y-104.457
X233.031Y-122.682
X234.682Y-118.618
X234.682Y-156.718
X236.333Y-175.387
X236.841Y-136.906
X241.032Y-104.648
X241.794Y-189.738
X242.175Y-157.48
T3
X125.462Y-132.588
X125.462Y-147.828
X125.462Y-154.178
X125.462Y-156.718
X125.462Y-159.258
X125.462Y-161.798
X125.462Y-170.688
X125.462Y-173.228
X125.462Y-175.768
X125.462Y-179.578
X125.462Y-182.118
X125.462Y-184.658
X125.462Y-187.198
X125.462Y-189.738
X126.872Y-106.928
X128.002Y-132.588
X128.002Y-147.828
X129.412Y-106.928
X129.412Y-196.928
X130.542Y-132.588
X130.542Y-147.828
X131.812Y-165.608
X131.952Y-106.928
X131.952Y-196.928
X133.082Y-132.588
X133.082Y-147.828
X134.352Y-165.608
X134.492Y-106.928
X134.492Y-196.928
X135.622Y-132.588
X135.622Y-147.828
X136.892Y-165.608
X137.032Y-106.928
X137.032Y-196.928
X138.162Y-132.588
X138.162Y-147.828
X139.432Y-165.608
X140.702Y-132.588
X140.702Y-147.828
X141.972Y-165.608
X143.242Y-132.588
X143.242Y-147.828
X144.412Y-196.928
X144.512Y-165.608
X145.782Y-132.588
X145.782Y-147.828
X146.872Y-106.928
X146.952Y-196.928
X147.052Y-165.608
X148.322Y-132.588
X148.322Y-147.828
X149.412Y-106.928
X149.492Y-196.928
X149.592Y-165.608
X150.862Y-132.588
X150.862Y-147.828
X151.952Y-106.928
X152.032Y-196.928
X152.132Y-165.608
X153.402Y-132.588
X153.402Y-147.828
X154.492Y-106.928
X154.672Y-165.608
X155.942Y-132.588
X155.942Y-147.828
X157.032Y-106.928
X158.482Y-132.588
X158.482Y-135.128
X158.482Y-137.668
X158.482Y-140.208
X158.482Y-142.748
X158.482Y-145.288
X158.482Y-147.828
X159.412Y-196.928
X161.952Y-196.928
X164.492Y-196.928
X166.872Y-106.928
X167.032Y-196.928
X169.412Y-106.928
X171.952Y-106.928
X174.412Y-196.928
X174.492Y-106.928
X176.952Y-196.928
X177.032Y-106.928
X179.492Y-196.928
X182.032Y-196.928
X186.872Y-106.928
X189.412Y-106.928
X189.412Y-196.928
X191.952Y-106.928
X191.952Y-196.928
X194.492Y-106.928
X194.492Y-196.928
X196.582Y-144.018
X196.582Y-146.558
X196.582Y-149.098
X196.582Y-151.638
X196.582Y-154.178
X197.032Y-106.928
X197.032Y-196.928
X204.202Y-142.748
X204.202Y-145.288
X204.202Y-147.828
X204.202Y-150.368
X204.202Y-152.908
X204.202Y-155.448
X204.202Y-157.988
X204.202Y-160.528
X204.202Y-163.068
X205.682Y-106.928
X208.222Y-106.928
X210.762Y-106.928
X251.952Y-196.928
X254.492Y-196.928
X259.412Y-196.928
X261.952Y-196.928
X264.492Y-196.928
X267.032Y-196.928
X270.242Y-116.078
X270.242Y-118.618
X270.242Y-135.128
X270.242Y-137.668
X270.242Y-151.638
X270.242Y-154.178
X270.242Y-168.148
X270.242Y-170.688
X270.242Y-179.578
X270.242Y-182.118
T0
M30
