G04 #@! TF.FileFunction,Copper,L2,Bot,Signal*
%FSLAX46Y46*%
G04 Gerber Fmt 4.6, Leading zero omitted, Abs format (unit mm)*
G04 Created by KiCad (PCBNEW 4.0.6) date 04/09/17 13:57:38*
%MOMM*%
%LPD*%
G01*
G04 APERTURE LIST*
%ADD10C,0.150000*%
%ADD11R,1.397000X1.397000*%
%ADD12C,1.397000*%
%ADD13C,5.999480*%
%ADD14R,1.800000X3.200000*%
%ADD15R,3.200000X1.800000*%
%ADD16R,2.000000X1.000000*%
%ADD17C,0.889000*%
%ADD18C,1.998980*%
%ADD19C,0.203200*%
%ADD20C,1.000760*%
%ADD21C,0.254000*%
G04 APERTURE END LIST*
D10*
D11*
X160020000Y-57150000D03*
D12*
X160020000Y-54610000D03*
D11*
X130048000Y-106934000D03*
D12*
X130048000Y-104394000D03*
X130048000Y-101854000D03*
X130048000Y-99314000D03*
X130048000Y-96774000D03*
X130048000Y-94234000D03*
X130048000Y-91694000D03*
X130048000Y-89154000D03*
X130048000Y-86614000D03*
D11*
X100076000Y-99314000D03*
D12*
X100076000Y-96774000D03*
X100076000Y-94234000D03*
X100076000Y-91694000D03*
X100076000Y-89154000D03*
X100076000Y-86614000D03*
X100076000Y-84074000D03*
D11*
X124460000Y-96520000D03*
D12*
X124460000Y-93980000D03*
X124460000Y-91440000D03*
X124460000Y-88900000D03*
X124460000Y-86360000D03*
D11*
X80772000Y-120650000D03*
D12*
X83312000Y-120650000D03*
X85852000Y-120650000D03*
X88392000Y-120650000D03*
X90932000Y-120650000D03*
D11*
X117856000Y-134366000D03*
D12*
X115316000Y-134366000D03*
X112776000Y-134366000D03*
X110236000Y-134366000D03*
D11*
X130556000Y-134366000D03*
D12*
X128016000Y-134366000D03*
X125476000Y-134366000D03*
X122936000Y-134366000D03*
D11*
X105156000Y-134366000D03*
D12*
X102616000Y-134366000D03*
X100076000Y-134366000D03*
X97536000Y-134366000D03*
D11*
X92456000Y-134366000D03*
D12*
X89916000Y-134366000D03*
X87376000Y-134366000D03*
X84836000Y-134366000D03*
D11*
X78994000Y-134366000D03*
D12*
X76454000Y-134366000D03*
X73914000Y-134366000D03*
X71374000Y-134366000D03*
D11*
X109982000Y-105918000D03*
D12*
X109982000Y-103378000D03*
X109982000Y-100838000D03*
X109982000Y-98298000D03*
D11*
X109982000Y-95758000D03*
D12*
X109982000Y-93218000D03*
X109982000Y-90678000D03*
X109982000Y-88138000D03*
D11*
X153162000Y-134366000D03*
D12*
X150622000Y-134366000D03*
X148082000Y-134366000D03*
X145542000Y-134366000D03*
D11*
X73025000Y-109093000D03*
D12*
X73025000Y-111633000D03*
X73025000Y-114173000D03*
X73025000Y-116713000D03*
D11*
X117602000Y-105664000D03*
D12*
X117602000Y-103124000D03*
X117602000Y-100584000D03*
D11*
X71882000Y-40386000D03*
D12*
X74422000Y-40386000D03*
D11*
X137922000Y-134366000D03*
D12*
X140462000Y-134366000D03*
D11*
X81502000Y-40386000D03*
D12*
X84042000Y-40386000D03*
D11*
X160020000Y-90170000D03*
D12*
X160020000Y-92710000D03*
D11*
X91122000Y-40386000D03*
D12*
X93662000Y-40386000D03*
D11*
X160020000Y-78740000D03*
D12*
X160020000Y-76200000D03*
D11*
X100742000Y-40386000D03*
D12*
X103282000Y-40386000D03*
D11*
X67056000Y-99314000D03*
D12*
X69596000Y-99314000D03*
X72136000Y-99314000D03*
X74676000Y-99314000D03*
X77216000Y-99314000D03*
X79756000Y-99314000D03*
X82296000Y-99314000D03*
X84836000Y-99314000D03*
X87376000Y-99314000D03*
X89916000Y-99314000D03*
X92456000Y-99314000D03*
X94996000Y-99314000D03*
X97536000Y-99314000D03*
D11*
X97028000Y-84074000D03*
D12*
X94488000Y-84074000D03*
X91948000Y-84074000D03*
X89408000Y-84074000D03*
X86868000Y-84074000D03*
X84328000Y-84074000D03*
X81788000Y-84074000D03*
X79248000Y-84074000D03*
X76708000Y-84074000D03*
X74168000Y-84074000D03*
X71628000Y-84074000D03*
X69088000Y-84074000D03*
X66548000Y-84074000D03*
D11*
X78105000Y-111379000D03*
D12*
X80645000Y-111379000D03*
X83185000Y-111379000D03*
X85725000Y-111379000D03*
X88265000Y-111379000D03*
X90805000Y-111379000D03*
X93345000Y-111379000D03*
X95885000Y-111379000D03*
X98425000Y-111379000D03*
X100965000Y-111379000D03*
X74422000Y-45466000D03*
X71882000Y-45466000D03*
X103282000Y-45466000D03*
X100742000Y-45466000D03*
X93662000Y-45466000D03*
X91122000Y-45466000D03*
X84042000Y-45466000D03*
X81502000Y-45466000D03*
D13*
X158496000Y-41402000D03*
X66548000Y-133350000D03*
X66548000Y-41402000D03*
X158496000Y-133350000D03*
D14*
X148000000Y-109100000D03*
X154500000Y-109100000D03*
D15*
X151500000Y-104600000D03*
D14*
X148000000Y-121100000D03*
X154500000Y-121100000D03*
D15*
X151500000Y-116600000D03*
D16*
X78000000Y-64100000D03*
X83000000Y-64100000D03*
X80500000Y-61600000D03*
X88000000Y-64100000D03*
X93000000Y-64100000D03*
X90500000Y-61600000D03*
X98000000Y-64100000D03*
X103000000Y-64100000D03*
X100500000Y-61600000D03*
X68000000Y-64100000D03*
X73000000Y-64100000D03*
X70500000Y-61600000D03*
D17*
X80518000Y-97028000D03*
X87122000Y-113538000D03*
X136652000Y-44958000D03*
X136652000Y-55626000D03*
X136652000Y-66294000D03*
X136652000Y-76962000D03*
X136652000Y-88138000D03*
X118110000Y-112268000D03*
X72898000Y-124460000D03*
X102870000Y-113665000D03*
X135636000Y-91186000D03*
X135128000Y-80010000D03*
X135382000Y-69342000D03*
X135128000Y-48006000D03*
X135382000Y-58674000D03*
X77216000Y-127000000D03*
X144272000Y-53340000D03*
X144272000Y-64262000D03*
X144018000Y-74930000D03*
X144018000Y-85344000D03*
X144272000Y-96520000D03*
D18*
X157226000Y-76708000D03*
X157988000Y-66040000D03*
X157480000Y-54864000D03*
X152654000Y-41148000D03*
D17*
X126746000Y-85090000D03*
X108712000Y-114935000D03*
X78994000Y-114808000D03*
X96774000Y-102108000D03*
X101600000Y-105664000D03*
D19*
X81026000Y-100584000D02*
X81026000Y-97536000D01*
X81026000Y-97536000D02*
X80518000Y-97028000D01*
X86868000Y-106426000D02*
X81026000Y-100584000D01*
X86868000Y-113284000D02*
X86868000Y-106426000D01*
X87122000Y-113538000D02*
X86868000Y-113284000D01*
X106680000Y-97536000D02*
X109982000Y-100838000D01*
X106680000Y-96520000D02*
X106680000Y-97536000D01*
X100584000Y-90424000D02*
X106680000Y-96520000D01*
X77470000Y-90424000D02*
X100584000Y-90424000D01*
X71628000Y-84582000D02*
X77470000Y-90424000D01*
X71628000Y-84074000D02*
X71628000Y-84582000D01*
X130556000Y-106934000D02*
X136652000Y-100838000D01*
X136652000Y-100838000D02*
X136652000Y-88138000D01*
X136652000Y-88138000D02*
X136652000Y-76962000D01*
X136652000Y-76962000D02*
X136652000Y-66294000D01*
X136652000Y-66294000D02*
X136652000Y-55626000D01*
X136652000Y-55626000D02*
X136652000Y-44958000D01*
X130048000Y-106934000D02*
X130556000Y-106934000D01*
X117602000Y-111760000D02*
X118110000Y-112268000D01*
X117602000Y-105664000D02*
X117602000Y-111760000D01*
X72898000Y-124460000D02*
X71374000Y-125984000D01*
X71374000Y-125984000D02*
X71374000Y-134366000D01*
X102870000Y-113665000D02*
X100711000Y-113665000D01*
X100711000Y-113665000D02*
X98425000Y-111379000D01*
D20*
X156210000Y-78232000D02*
X156210000Y-77724000D01*
X156210000Y-77724000D02*
X157226000Y-76708000D01*
X156210000Y-65786000D02*
X157734000Y-65786000D01*
X157734000Y-65786000D02*
X157988000Y-66040000D01*
X156210000Y-54864000D02*
X157480000Y-54864000D01*
X160020000Y-90170000D02*
X159004000Y-90170000D01*
X156210000Y-44704000D02*
X152654000Y-41148000D01*
X156210000Y-87376000D02*
X156210000Y-78232000D01*
X156210000Y-78232000D02*
X156210000Y-65786000D01*
X156210000Y-65786000D02*
X156210000Y-54864000D01*
X156210000Y-54864000D02*
X156210000Y-44704000D01*
X159004000Y-90170000D02*
X156210000Y-87376000D01*
X154500000Y-121100000D02*
X154500000Y-133028000D01*
X154500000Y-133028000D02*
X153162000Y-134366000D01*
X151500000Y-116600000D02*
X151500000Y-118100000D01*
X151500000Y-118100000D02*
X154500000Y-121100000D01*
X154500000Y-109100000D02*
X154500000Y-121100000D01*
X151500000Y-104600000D02*
X151500000Y-106100000D01*
X151500000Y-106100000D02*
X154500000Y-109100000D01*
X160020000Y-90170000D02*
X156430000Y-90170000D01*
X156430000Y-90170000D02*
X151500000Y-95100000D01*
X151500000Y-95100000D02*
X151500000Y-104600000D01*
X153162000Y-134366000D02*
X150622000Y-134366000D01*
X150622000Y-134366000D02*
X148082000Y-134366000D01*
X148082000Y-134366000D02*
X145542000Y-134366000D01*
D19*
X126746000Y-85090000D02*
X126746000Y-95504000D01*
X126746000Y-95504000D02*
X125730000Y-96520000D01*
X125730000Y-96520000D02*
X124460000Y-96520000D01*
X108712000Y-114935000D02*
X108585000Y-114808000D01*
X108585000Y-114808000D02*
X78994000Y-114808000D01*
X117602000Y-93980000D02*
X114300000Y-90678000D01*
X124460000Y-93980000D02*
X117602000Y-93980000D01*
X114300000Y-90678000D02*
X109982000Y-90678000D01*
X106934000Y-92710000D02*
X106934000Y-90932000D01*
X106934000Y-90932000D02*
X100076000Y-84074000D01*
X109982000Y-95758000D02*
X106934000Y-92710000D01*
X94996000Y-100330000D02*
X96774000Y-102108000D01*
X94996000Y-99314000D02*
X94996000Y-100330000D01*
X95885000Y-111379000D02*
X99822000Y-107442000D01*
X99822000Y-107442000D02*
X101600000Y-105664000D01*
D21*
G36*
X108585000Y-40438606D02*
X108585000Y-63193394D01*
X103579394Y-68199000D01*
X73152000Y-68199000D01*
X73102590Y-68209006D01*
X73062197Y-68236197D01*
X70522197Y-70776197D01*
X70494334Y-70818211D01*
X70485000Y-70866000D01*
X70485000Y-83349371D01*
X70368528Y-83629866D01*
X70363101Y-83635293D01*
X70257800Y-83381071D01*
X70022188Y-83319417D01*
X69267605Y-84074000D01*
X69281748Y-84088143D01*
X69102143Y-84267748D01*
X69088000Y-84253605D01*
X68333417Y-85008188D01*
X68395071Y-85243800D01*
X68660997Y-85337397D01*
X68019394Y-85979000D01*
X65584606Y-85979000D01*
X63943692Y-84338086D01*
X65214269Y-84338086D01*
X65416854Y-84828380D01*
X65791647Y-85203827D01*
X66281587Y-85407268D01*
X66812086Y-85407731D01*
X67302380Y-85205146D01*
X67677827Y-84830353D01*
X67811314Y-84508882D01*
X67918200Y-84766929D01*
X68153812Y-84828583D01*
X68908395Y-84074000D01*
X68153812Y-83319417D01*
X67918200Y-83381071D01*
X67819917Y-83660312D01*
X67679146Y-83319620D01*
X67499652Y-83139812D01*
X68333417Y-83139812D01*
X69088000Y-83894395D01*
X69842583Y-83139812D01*
X69780929Y-82904200D01*
X69280520Y-82728073D01*
X68750801Y-82756852D01*
X68395071Y-82904200D01*
X68333417Y-83139812D01*
X67499652Y-83139812D01*
X67304353Y-82944173D01*
X66814413Y-82740732D01*
X66283914Y-82740269D01*
X65793620Y-82942854D01*
X65418173Y-83317647D01*
X65214732Y-83807587D01*
X65214269Y-84338086D01*
X63943692Y-84338086D01*
X63779400Y-84173794D01*
X63779400Y-64385750D01*
X66365000Y-64385750D01*
X66365000Y-64726310D01*
X66461673Y-64959699D01*
X66640302Y-65138327D01*
X66873691Y-65235000D01*
X67714250Y-65235000D01*
X67873000Y-65076250D01*
X67873000Y-64227000D01*
X68127000Y-64227000D01*
X68127000Y-65076250D01*
X68285750Y-65235000D01*
X69126309Y-65235000D01*
X69359698Y-65138327D01*
X69538327Y-64959699D01*
X69635000Y-64726310D01*
X69635000Y-64385750D01*
X69476250Y-64227000D01*
X68127000Y-64227000D01*
X67873000Y-64227000D01*
X66523750Y-64227000D01*
X66365000Y-64385750D01*
X63779400Y-64385750D01*
X63779400Y-63473690D01*
X66365000Y-63473690D01*
X66365000Y-63814250D01*
X66523750Y-63973000D01*
X67873000Y-63973000D01*
X67873000Y-63123750D01*
X68127000Y-63123750D01*
X68127000Y-63973000D01*
X69476250Y-63973000D01*
X69635000Y-63814250D01*
X69635000Y-63600000D01*
X71352560Y-63600000D01*
X71352560Y-64600000D01*
X71396838Y-64835317D01*
X71535910Y-65051441D01*
X71748110Y-65196431D01*
X72000000Y-65247440D01*
X74000000Y-65247440D01*
X74235317Y-65203162D01*
X74451441Y-65064090D01*
X74596431Y-64851890D01*
X74647440Y-64600000D01*
X74647440Y-64385750D01*
X76365000Y-64385750D01*
X76365000Y-64726310D01*
X76461673Y-64959699D01*
X76640302Y-65138327D01*
X76873691Y-65235000D01*
X77714250Y-65235000D01*
X77873000Y-65076250D01*
X77873000Y-64227000D01*
X78127000Y-64227000D01*
X78127000Y-65076250D01*
X78285750Y-65235000D01*
X79126309Y-65235000D01*
X79359698Y-65138327D01*
X79538327Y-64959699D01*
X79635000Y-64726310D01*
X79635000Y-64385750D01*
X79476250Y-64227000D01*
X78127000Y-64227000D01*
X77873000Y-64227000D01*
X76523750Y-64227000D01*
X76365000Y-64385750D01*
X74647440Y-64385750D01*
X74647440Y-63600000D01*
X74623674Y-63473690D01*
X76365000Y-63473690D01*
X76365000Y-63814250D01*
X76523750Y-63973000D01*
X77873000Y-63973000D01*
X77873000Y-63123750D01*
X78127000Y-63123750D01*
X78127000Y-63973000D01*
X79476250Y-63973000D01*
X79635000Y-63814250D01*
X79635000Y-63600000D01*
X81352560Y-63600000D01*
X81352560Y-64600000D01*
X81396838Y-64835317D01*
X81535910Y-65051441D01*
X81748110Y-65196431D01*
X82000000Y-65247440D01*
X84000000Y-65247440D01*
X84235317Y-65203162D01*
X84451441Y-65064090D01*
X84596431Y-64851890D01*
X84647440Y-64600000D01*
X84647440Y-64385750D01*
X86365000Y-64385750D01*
X86365000Y-64726310D01*
X86461673Y-64959699D01*
X86640302Y-65138327D01*
X86873691Y-65235000D01*
X87714250Y-65235000D01*
X87873000Y-65076250D01*
X87873000Y-64227000D01*
X88127000Y-64227000D01*
X88127000Y-65076250D01*
X88285750Y-65235000D01*
X89126309Y-65235000D01*
X89359698Y-65138327D01*
X89538327Y-64959699D01*
X89635000Y-64726310D01*
X89635000Y-64385750D01*
X89476250Y-64227000D01*
X88127000Y-64227000D01*
X87873000Y-64227000D01*
X86523750Y-64227000D01*
X86365000Y-64385750D01*
X84647440Y-64385750D01*
X84647440Y-63600000D01*
X84623674Y-63473690D01*
X86365000Y-63473690D01*
X86365000Y-63814250D01*
X86523750Y-63973000D01*
X87873000Y-63973000D01*
X87873000Y-63123750D01*
X88127000Y-63123750D01*
X88127000Y-63973000D01*
X89476250Y-63973000D01*
X89635000Y-63814250D01*
X89635000Y-63600000D01*
X91352560Y-63600000D01*
X91352560Y-64600000D01*
X91396838Y-64835317D01*
X91535910Y-65051441D01*
X91748110Y-65196431D01*
X92000000Y-65247440D01*
X94000000Y-65247440D01*
X94235317Y-65203162D01*
X94451441Y-65064090D01*
X94596431Y-64851890D01*
X94647440Y-64600000D01*
X94647440Y-64385750D01*
X96365000Y-64385750D01*
X96365000Y-64726310D01*
X96461673Y-64959699D01*
X96640302Y-65138327D01*
X96873691Y-65235000D01*
X97714250Y-65235000D01*
X97873000Y-65076250D01*
X97873000Y-64227000D01*
X98127000Y-64227000D01*
X98127000Y-65076250D01*
X98285750Y-65235000D01*
X99126309Y-65235000D01*
X99359698Y-65138327D01*
X99538327Y-64959699D01*
X99635000Y-64726310D01*
X99635000Y-64385750D01*
X99476250Y-64227000D01*
X98127000Y-64227000D01*
X97873000Y-64227000D01*
X96523750Y-64227000D01*
X96365000Y-64385750D01*
X94647440Y-64385750D01*
X94647440Y-63600000D01*
X94623674Y-63473690D01*
X96365000Y-63473690D01*
X96365000Y-63814250D01*
X96523750Y-63973000D01*
X97873000Y-63973000D01*
X97873000Y-63123750D01*
X98127000Y-63123750D01*
X98127000Y-63973000D01*
X99476250Y-63973000D01*
X99635000Y-63814250D01*
X99635000Y-63600000D01*
X101352560Y-63600000D01*
X101352560Y-64600000D01*
X101396838Y-64835317D01*
X101535910Y-65051441D01*
X101748110Y-65196431D01*
X102000000Y-65247440D01*
X104000000Y-65247440D01*
X104235317Y-65203162D01*
X104451441Y-65064090D01*
X104596431Y-64851890D01*
X104647440Y-64600000D01*
X104647440Y-63600000D01*
X104603162Y-63364683D01*
X104464090Y-63148559D01*
X104251890Y-63003569D01*
X104000000Y-62952560D01*
X102000000Y-62952560D01*
X101764683Y-62996838D01*
X101548559Y-63135910D01*
X101403569Y-63348110D01*
X101352560Y-63600000D01*
X99635000Y-63600000D01*
X99635000Y-63473690D01*
X99538327Y-63240301D01*
X99359698Y-63061673D01*
X99126309Y-62965000D01*
X98285750Y-62965000D01*
X98127000Y-63123750D01*
X97873000Y-63123750D01*
X97714250Y-62965000D01*
X96873691Y-62965000D01*
X96640302Y-63061673D01*
X96461673Y-63240301D01*
X96365000Y-63473690D01*
X94623674Y-63473690D01*
X94603162Y-63364683D01*
X94464090Y-63148559D01*
X94251890Y-63003569D01*
X94000000Y-62952560D01*
X92000000Y-62952560D01*
X91764683Y-62996838D01*
X91548559Y-63135910D01*
X91403569Y-63348110D01*
X91352560Y-63600000D01*
X89635000Y-63600000D01*
X89635000Y-63473690D01*
X89538327Y-63240301D01*
X89359698Y-63061673D01*
X89126309Y-62965000D01*
X88285750Y-62965000D01*
X88127000Y-63123750D01*
X87873000Y-63123750D01*
X87714250Y-62965000D01*
X86873691Y-62965000D01*
X86640302Y-63061673D01*
X86461673Y-63240301D01*
X86365000Y-63473690D01*
X84623674Y-63473690D01*
X84603162Y-63364683D01*
X84464090Y-63148559D01*
X84251890Y-63003569D01*
X84000000Y-62952560D01*
X82000000Y-62952560D01*
X81764683Y-62996838D01*
X81548559Y-63135910D01*
X81403569Y-63348110D01*
X81352560Y-63600000D01*
X79635000Y-63600000D01*
X79635000Y-63473690D01*
X79538327Y-63240301D01*
X79359698Y-63061673D01*
X79126309Y-62965000D01*
X78285750Y-62965000D01*
X78127000Y-63123750D01*
X77873000Y-63123750D01*
X77714250Y-62965000D01*
X76873691Y-62965000D01*
X76640302Y-63061673D01*
X76461673Y-63240301D01*
X76365000Y-63473690D01*
X74623674Y-63473690D01*
X74603162Y-63364683D01*
X74464090Y-63148559D01*
X74251890Y-63003569D01*
X74000000Y-62952560D01*
X72000000Y-62952560D01*
X71764683Y-62996838D01*
X71548559Y-63135910D01*
X71403569Y-63348110D01*
X71352560Y-63600000D01*
X69635000Y-63600000D01*
X69635000Y-63473690D01*
X69538327Y-63240301D01*
X69359698Y-63061673D01*
X69126309Y-62965000D01*
X68285750Y-62965000D01*
X68127000Y-63123750D01*
X67873000Y-63123750D01*
X67714250Y-62965000D01*
X66873691Y-62965000D01*
X66640302Y-63061673D01*
X66461673Y-63240301D01*
X66365000Y-63473690D01*
X63779400Y-63473690D01*
X63779400Y-61100000D01*
X68852560Y-61100000D01*
X68852560Y-62100000D01*
X68896838Y-62335317D01*
X69035910Y-62551441D01*
X69248110Y-62696431D01*
X69500000Y-62747440D01*
X71500000Y-62747440D01*
X71735317Y-62703162D01*
X71951441Y-62564090D01*
X72096431Y-62351890D01*
X72147440Y-62100000D01*
X72147440Y-61100000D01*
X78852560Y-61100000D01*
X78852560Y-62100000D01*
X78896838Y-62335317D01*
X79035910Y-62551441D01*
X79248110Y-62696431D01*
X79500000Y-62747440D01*
X81500000Y-62747440D01*
X81735317Y-62703162D01*
X81951441Y-62564090D01*
X82096431Y-62351890D01*
X82147440Y-62100000D01*
X82147440Y-61100000D01*
X88852560Y-61100000D01*
X88852560Y-62100000D01*
X88896838Y-62335317D01*
X89035910Y-62551441D01*
X89248110Y-62696431D01*
X89500000Y-62747440D01*
X91500000Y-62747440D01*
X91735317Y-62703162D01*
X91951441Y-62564090D01*
X92096431Y-62351890D01*
X92147440Y-62100000D01*
X92147440Y-61100000D01*
X98852560Y-61100000D01*
X98852560Y-62100000D01*
X98896838Y-62335317D01*
X99035910Y-62551441D01*
X99248110Y-62696431D01*
X99500000Y-62747440D01*
X101500000Y-62747440D01*
X101735317Y-62703162D01*
X101951441Y-62564090D01*
X102096431Y-62351890D01*
X102147440Y-62100000D01*
X102147440Y-61100000D01*
X102103162Y-60864683D01*
X101964090Y-60648559D01*
X101751890Y-60503569D01*
X101500000Y-60452560D01*
X99500000Y-60452560D01*
X99264683Y-60496838D01*
X99048559Y-60635910D01*
X98903569Y-60848110D01*
X98852560Y-61100000D01*
X92147440Y-61100000D01*
X92103162Y-60864683D01*
X91964090Y-60648559D01*
X91751890Y-60503569D01*
X91500000Y-60452560D01*
X89500000Y-60452560D01*
X89264683Y-60496838D01*
X89048559Y-60635910D01*
X88903569Y-60848110D01*
X88852560Y-61100000D01*
X82147440Y-61100000D01*
X82103162Y-60864683D01*
X81964090Y-60648559D01*
X81751890Y-60503569D01*
X81500000Y-60452560D01*
X79500000Y-60452560D01*
X79264683Y-60496838D01*
X79048559Y-60635910D01*
X78903569Y-60848110D01*
X78852560Y-61100000D01*
X72147440Y-61100000D01*
X72103162Y-60864683D01*
X71964090Y-60648559D01*
X71751890Y-60503569D01*
X71500000Y-60452560D01*
X69500000Y-60452560D01*
X69264683Y-60496838D01*
X69048559Y-60635910D01*
X68903569Y-60848110D01*
X68852560Y-61100000D01*
X63779400Y-61100000D01*
X63779400Y-45730086D01*
X70548269Y-45730086D01*
X70750854Y-46220380D01*
X71125647Y-46595827D01*
X71615587Y-46799268D01*
X72146086Y-46799731D01*
X72636380Y-46597146D01*
X73011827Y-46222353D01*
X73152094Y-45884554D01*
X73290854Y-46220380D01*
X73665647Y-46595827D01*
X74155587Y-46799268D01*
X74686086Y-46799731D01*
X75176380Y-46597146D01*
X75551827Y-46222353D01*
X75755268Y-45732413D01*
X75755270Y-45730086D01*
X80168269Y-45730086D01*
X80370854Y-46220380D01*
X80745647Y-46595827D01*
X81235587Y-46799268D01*
X81766086Y-46799731D01*
X82256380Y-46597146D01*
X82631827Y-46222353D01*
X82772094Y-45884554D01*
X82910854Y-46220380D01*
X83285647Y-46595827D01*
X83775587Y-46799268D01*
X84306086Y-46799731D01*
X84796380Y-46597146D01*
X85171827Y-46222353D01*
X85375268Y-45732413D01*
X85375270Y-45730086D01*
X89788269Y-45730086D01*
X89990854Y-46220380D01*
X90365647Y-46595827D01*
X90855587Y-46799268D01*
X91386086Y-46799731D01*
X91876380Y-46597146D01*
X92251827Y-46222353D01*
X92392094Y-45884554D01*
X92530854Y-46220380D01*
X92905647Y-46595827D01*
X93395587Y-46799268D01*
X93926086Y-46799731D01*
X94416380Y-46597146D01*
X94791827Y-46222353D01*
X94995268Y-45732413D01*
X94995270Y-45730086D01*
X99408269Y-45730086D01*
X99610854Y-46220380D01*
X99985647Y-46595827D01*
X100475587Y-46799268D01*
X101006086Y-46799731D01*
X101496380Y-46597146D01*
X101871827Y-46222353D01*
X102012094Y-45884554D01*
X102150854Y-46220380D01*
X102525647Y-46595827D01*
X103015587Y-46799268D01*
X103546086Y-46799731D01*
X104036380Y-46597146D01*
X104411827Y-46222353D01*
X104615268Y-45732413D01*
X104615731Y-45201914D01*
X104413146Y-44711620D01*
X104038353Y-44336173D01*
X103548413Y-44132732D01*
X103017914Y-44132269D01*
X102527620Y-44334854D01*
X102152173Y-44709647D01*
X102011906Y-45047446D01*
X101873146Y-44711620D01*
X101498353Y-44336173D01*
X101008413Y-44132732D01*
X100477914Y-44132269D01*
X99987620Y-44334854D01*
X99612173Y-44709647D01*
X99408732Y-45199587D01*
X99408269Y-45730086D01*
X94995270Y-45730086D01*
X94995731Y-45201914D01*
X94793146Y-44711620D01*
X94418353Y-44336173D01*
X93928413Y-44132732D01*
X93397914Y-44132269D01*
X92907620Y-44334854D01*
X92532173Y-44709647D01*
X92391906Y-45047446D01*
X92253146Y-44711620D01*
X91878353Y-44336173D01*
X91388413Y-44132732D01*
X90857914Y-44132269D01*
X90367620Y-44334854D01*
X89992173Y-44709647D01*
X89788732Y-45199587D01*
X89788269Y-45730086D01*
X85375270Y-45730086D01*
X85375731Y-45201914D01*
X85173146Y-44711620D01*
X84798353Y-44336173D01*
X84308413Y-44132732D01*
X83777914Y-44132269D01*
X83287620Y-44334854D01*
X82912173Y-44709647D01*
X82771906Y-45047446D01*
X82633146Y-44711620D01*
X82258353Y-44336173D01*
X81768413Y-44132732D01*
X81237914Y-44132269D01*
X80747620Y-44334854D01*
X80372173Y-44709647D01*
X80168732Y-45199587D01*
X80168269Y-45730086D01*
X75755270Y-45730086D01*
X75755731Y-45201914D01*
X75553146Y-44711620D01*
X75178353Y-44336173D01*
X74688413Y-44132732D01*
X74157914Y-44132269D01*
X73667620Y-44334854D01*
X73292173Y-44709647D01*
X73151906Y-45047446D01*
X73013146Y-44711620D01*
X72638353Y-44336173D01*
X72148413Y-44132732D01*
X71617914Y-44132269D01*
X71127620Y-44334854D01*
X70752173Y-44709647D01*
X70548732Y-45199587D01*
X70548269Y-45730086D01*
X63779400Y-45730086D01*
X63779400Y-43773354D01*
X64486397Y-44481586D01*
X65821834Y-45036108D01*
X67267823Y-45037370D01*
X68604225Y-44485180D01*
X69627586Y-43463603D01*
X70182108Y-42128166D01*
X70183370Y-40682177D01*
X69772378Y-39687500D01*
X70536060Y-39687500D01*
X70536060Y-41084500D01*
X70580338Y-41319817D01*
X70719410Y-41535941D01*
X70931610Y-41680931D01*
X71183500Y-41731940D01*
X72580500Y-41731940D01*
X72815817Y-41687662D01*
X73031941Y-41548590D01*
X73176931Y-41336390D01*
X73227940Y-41084500D01*
X73227940Y-40988116D01*
X73290854Y-41140380D01*
X73665647Y-41515827D01*
X74155587Y-41719268D01*
X74686086Y-41719731D01*
X75176380Y-41517146D01*
X75551827Y-41142353D01*
X75755268Y-40652413D01*
X75755731Y-40121914D01*
X75576236Y-39687500D01*
X80156060Y-39687500D01*
X80156060Y-41084500D01*
X80200338Y-41319817D01*
X80339410Y-41535941D01*
X80551610Y-41680931D01*
X80803500Y-41731940D01*
X82200500Y-41731940D01*
X82435817Y-41687662D01*
X82651941Y-41548590D01*
X82796931Y-41336390D01*
X82847940Y-41084500D01*
X82847940Y-40988116D01*
X82910854Y-41140380D01*
X83285647Y-41515827D01*
X83775587Y-41719268D01*
X84306086Y-41719731D01*
X84796380Y-41517146D01*
X85171827Y-41142353D01*
X85375268Y-40652413D01*
X85375731Y-40121914D01*
X85196236Y-39687500D01*
X89776060Y-39687500D01*
X89776060Y-41084500D01*
X89820338Y-41319817D01*
X89959410Y-41535941D01*
X90171610Y-41680931D01*
X90423500Y-41731940D01*
X91820500Y-41731940D01*
X92055817Y-41687662D01*
X92271941Y-41548590D01*
X92416931Y-41336390D01*
X92467940Y-41084500D01*
X92467940Y-40988116D01*
X92530854Y-41140380D01*
X92905647Y-41515827D01*
X93395587Y-41719268D01*
X93926086Y-41719731D01*
X94416380Y-41517146D01*
X94791827Y-41142353D01*
X94995268Y-40652413D01*
X94995731Y-40121914D01*
X94816236Y-39687500D01*
X99396060Y-39687500D01*
X99396060Y-41084500D01*
X99440338Y-41319817D01*
X99579410Y-41535941D01*
X99791610Y-41680931D01*
X100043500Y-41731940D01*
X101440500Y-41731940D01*
X101675817Y-41687662D01*
X101891941Y-41548590D01*
X102036931Y-41336390D01*
X102087940Y-41084500D01*
X102087940Y-40988116D01*
X102150854Y-41140380D01*
X102525647Y-41515827D01*
X103015587Y-41719268D01*
X103546086Y-41719731D01*
X104036380Y-41517146D01*
X104411827Y-41142353D01*
X104615268Y-40652413D01*
X104615731Y-40121914D01*
X104413146Y-39631620D01*
X104038353Y-39256173D01*
X103548413Y-39052732D01*
X103017914Y-39052269D01*
X102527620Y-39254854D01*
X102152173Y-39629647D01*
X102087940Y-39784337D01*
X102087940Y-39687500D01*
X102043662Y-39452183D01*
X101904590Y-39236059D01*
X101692390Y-39091069D01*
X101440500Y-39040060D01*
X100043500Y-39040060D01*
X99808183Y-39084338D01*
X99592059Y-39223410D01*
X99447069Y-39435610D01*
X99396060Y-39687500D01*
X94816236Y-39687500D01*
X94793146Y-39631620D01*
X94418353Y-39256173D01*
X93928413Y-39052732D01*
X93397914Y-39052269D01*
X92907620Y-39254854D01*
X92532173Y-39629647D01*
X92467940Y-39784337D01*
X92467940Y-39687500D01*
X92423662Y-39452183D01*
X92284590Y-39236059D01*
X92072390Y-39091069D01*
X91820500Y-39040060D01*
X90423500Y-39040060D01*
X90188183Y-39084338D01*
X89972059Y-39223410D01*
X89827069Y-39435610D01*
X89776060Y-39687500D01*
X85196236Y-39687500D01*
X85173146Y-39631620D01*
X84798353Y-39256173D01*
X84308413Y-39052732D01*
X83777914Y-39052269D01*
X83287620Y-39254854D01*
X82912173Y-39629647D01*
X82847940Y-39784337D01*
X82847940Y-39687500D01*
X82803662Y-39452183D01*
X82664590Y-39236059D01*
X82452390Y-39091069D01*
X82200500Y-39040060D01*
X80803500Y-39040060D01*
X80568183Y-39084338D01*
X80352059Y-39223410D01*
X80207069Y-39435610D01*
X80156060Y-39687500D01*
X75576236Y-39687500D01*
X75553146Y-39631620D01*
X75178353Y-39256173D01*
X74688413Y-39052732D01*
X74157914Y-39052269D01*
X73667620Y-39254854D01*
X73292173Y-39629647D01*
X73227940Y-39784337D01*
X73227940Y-39687500D01*
X73183662Y-39452183D01*
X73044590Y-39236059D01*
X72832390Y-39091069D01*
X72580500Y-39040060D01*
X71183500Y-39040060D01*
X70948183Y-39084338D01*
X70732059Y-39223410D01*
X70587069Y-39435610D01*
X70536060Y-39687500D01*
X69772378Y-39687500D01*
X69631180Y-39345775D01*
X68920047Y-38633400D01*
X106779794Y-38633400D01*
X108585000Y-40438606D01*
X108585000Y-40438606D01*
G37*
X108585000Y-40438606D02*
X108585000Y-63193394D01*
X103579394Y-68199000D01*
X73152000Y-68199000D01*
X73102590Y-68209006D01*
X73062197Y-68236197D01*
X70522197Y-70776197D01*
X70494334Y-70818211D01*
X70485000Y-70866000D01*
X70485000Y-83349371D01*
X70368528Y-83629866D01*
X70363101Y-83635293D01*
X70257800Y-83381071D01*
X70022188Y-83319417D01*
X69267605Y-84074000D01*
X69281748Y-84088143D01*
X69102143Y-84267748D01*
X69088000Y-84253605D01*
X68333417Y-85008188D01*
X68395071Y-85243800D01*
X68660997Y-85337397D01*
X68019394Y-85979000D01*
X65584606Y-85979000D01*
X63943692Y-84338086D01*
X65214269Y-84338086D01*
X65416854Y-84828380D01*
X65791647Y-85203827D01*
X66281587Y-85407268D01*
X66812086Y-85407731D01*
X67302380Y-85205146D01*
X67677827Y-84830353D01*
X67811314Y-84508882D01*
X67918200Y-84766929D01*
X68153812Y-84828583D01*
X68908395Y-84074000D01*
X68153812Y-83319417D01*
X67918200Y-83381071D01*
X67819917Y-83660312D01*
X67679146Y-83319620D01*
X67499652Y-83139812D01*
X68333417Y-83139812D01*
X69088000Y-83894395D01*
X69842583Y-83139812D01*
X69780929Y-82904200D01*
X69280520Y-82728073D01*
X68750801Y-82756852D01*
X68395071Y-82904200D01*
X68333417Y-83139812D01*
X67499652Y-83139812D01*
X67304353Y-82944173D01*
X66814413Y-82740732D01*
X66283914Y-82740269D01*
X65793620Y-82942854D01*
X65418173Y-83317647D01*
X65214732Y-83807587D01*
X65214269Y-84338086D01*
X63943692Y-84338086D01*
X63779400Y-84173794D01*
X63779400Y-64385750D01*
X66365000Y-64385750D01*
X66365000Y-64726310D01*
X66461673Y-64959699D01*
X66640302Y-65138327D01*
X66873691Y-65235000D01*
X67714250Y-65235000D01*
X67873000Y-65076250D01*
X67873000Y-64227000D01*
X68127000Y-64227000D01*
X68127000Y-65076250D01*
X68285750Y-65235000D01*
X69126309Y-65235000D01*
X69359698Y-65138327D01*
X69538327Y-64959699D01*
X69635000Y-64726310D01*
X69635000Y-64385750D01*
X69476250Y-64227000D01*
X68127000Y-64227000D01*
X67873000Y-64227000D01*
X66523750Y-64227000D01*
X66365000Y-64385750D01*
X63779400Y-64385750D01*
X63779400Y-63473690D01*
X66365000Y-63473690D01*
X66365000Y-63814250D01*
X66523750Y-63973000D01*
X67873000Y-63973000D01*
X67873000Y-63123750D01*
X68127000Y-63123750D01*
X68127000Y-63973000D01*
X69476250Y-63973000D01*
X69635000Y-63814250D01*
X69635000Y-63600000D01*
X71352560Y-63600000D01*
X71352560Y-64600000D01*
X71396838Y-64835317D01*
X71535910Y-65051441D01*
X71748110Y-65196431D01*
X72000000Y-65247440D01*
X74000000Y-65247440D01*
X74235317Y-65203162D01*
X74451441Y-65064090D01*
X74596431Y-64851890D01*
X74647440Y-64600000D01*
X74647440Y-64385750D01*
X76365000Y-64385750D01*
X76365000Y-64726310D01*
X76461673Y-64959699D01*
X76640302Y-65138327D01*
X76873691Y-65235000D01*
X77714250Y-65235000D01*
X77873000Y-65076250D01*
X77873000Y-64227000D01*
X78127000Y-64227000D01*
X78127000Y-65076250D01*
X78285750Y-65235000D01*
X79126309Y-65235000D01*
X79359698Y-65138327D01*
X79538327Y-64959699D01*
X79635000Y-64726310D01*
X79635000Y-64385750D01*
X79476250Y-64227000D01*
X78127000Y-64227000D01*
X77873000Y-64227000D01*
X76523750Y-64227000D01*
X76365000Y-64385750D01*
X74647440Y-64385750D01*
X74647440Y-63600000D01*
X74623674Y-63473690D01*
X76365000Y-63473690D01*
X76365000Y-63814250D01*
X76523750Y-63973000D01*
X77873000Y-63973000D01*
X77873000Y-63123750D01*
X78127000Y-63123750D01*
X78127000Y-63973000D01*
X79476250Y-63973000D01*
X79635000Y-63814250D01*
X79635000Y-63600000D01*
X81352560Y-63600000D01*
X81352560Y-64600000D01*
X81396838Y-64835317D01*
X81535910Y-65051441D01*
X81748110Y-65196431D01*
X82000000Y-65247440D01*
X84000000Y-65247440D01*
X84235317Y-65203162D01*
X84451441Y-65064090D01*
X84596431Y-64851890D01*
X84647440Y-64600000D01*
X84647440Y-64385750D01*
X86365000Y-64385750D01*
X86365000Y-64726310D01*
X86461673Y-64959699D01*
X86640302Y-65138327D01*
X86873691Y-65235000D01*
X87714250Y-65235000D01*
X87873000Y-65076250D01*
X87873000Y-64227000D01*
X88127000Y-64227000D01*
X88127000Y-65076250D01*
X88285750Y-65235000D01*
X89126309Y-65235000D01*
X89359698Y-65138327D01*
X89538327Y-64959699D01*
X89635000Y-64726310D01*
X89635000Y-64385750D01*
X89476250Y-64227000D01*
X88127000Y-64227000D01*
X87873000Y-64227000D01*
X86523750Y-64227000D01*
X86365000Y-64385750D01*
X84647440Y-64385750D01*
X84647440Y-63600000D01*
X84623674Y-63473690D01*
X86365000Y-63473690D01*
X86365000Y-63814250D01*
X86523750Y-63973000D01*
X87873000Y-63973000D01*
X87873000Y-63123750D01*
X88127000Y-63123750D01*
X88127000Y-63973000D01*
X89476250Y-63973000D01*
X89635000Y-63814250D01*
X89635000Y-63600000D01*
X91352560Y-63600000D01*
X91352560Y-64600000D01*
X91396838Y-64835317D01*
X91535910Y-65051441D01*
X91748110Y-65196431D01*
X92000000Y-65247440D01*
X94000000Y-65247440D01*
X94235317Y-65203162D01*
X94451441Y-65064090D01*
X94596431Y-64851890D01*
X94647440Y-64600000D01*
X94647440Y-64385750D01*
X96365000Y-64385750D01*
X96365000Y-64726310D01*
X96461673Y-64959699D01*
X96640302Y-65138327D01*
X96873691Y-65235000D01*
X97714250Y-65235000D01*
X97873000Y-65076250D01*
X97873000Y-64227000D01*
X98127000Y-64227000D01*
X98127000Y-65076250D01*
X98285750Y-65235000D01*
X99126309Y-65235000D01*
X99359698Y-65138327D01*
X99538327Y-64959699D01*
X99635000Y-64726310D01*
X99635000Y-64385750D01*
X99476250Y-64227000D01*
X98127000Y-64227000D01*
X97873000Y-64227000D01*
X96523750Y-64227000D01*
X96365000Y-64385750D01*
X94647440Y-64385750D01*
X94647440Y-63600000D01*
X94623674Y-63473690D01*
X96365000Y-63473690D01*
X96365000Y-63814250D01*
X96523750Y-63973000D01*
X97873000Y-63973000D01*
X97873000Y-63123750D01*
X98127000Y-63123750D01*
X98127000Y-63973000D01*
X99476250Y-63973000D01*
X99635000Y-63814250D01*
X99635000Y-63600000D01*
X101352560Y-63600000D01*
X101352560Y-64600000D01*
X101396838Y-64835317D01*
X101535910Y-65051441D01*
X101748110Y-65196431D01*
X102000000Y-65247440D01*
X104000000Y-65247440D01*
X104235317Y-65203162D01*
X104451441Y-65064090D01*
X104596431Y-64851890D01*
X104647440Y-64600000D01*
X104647440Y-63600000D01*
X104603162Y-63364683D01*
X104464090Y-63148559D01*
X104251890Y-63003569D01*
X104000000Y-62952560D01*
X102000000Y-62952560D01*
X101764683Y-62996838D01*
X101548559Y-63135910D01*
X101403569Y-63348110D01*
X101352560Y-63600000D01*
X99635000Y-63600000D01*
X99635000Y-63473690D01*
X99538327Y-63240301D01*
X99359698Y-63061673D01*
X99126309Y-62965000D01*
X98285750Y-62965000D01*
X98127000Y-63123750D01*
X97873000Y-63123750D01*
X97714250Y-62965000D01*
X96873691Y-62965000D01*
X96640302Y-63061673D01*
X96461673Y-63240301D01*
X96365000Y-63473690D01*
X94623674Y-63473690D01*
X94603162Y-63364683D01*
X94464090Y-63148559D01*
X94251890Y-63003569D01*
X94000000Y-62952560D01*
X92000000Y-62952560D01*
X91764683Y-62996838D01*
X91548559Y-63135910D01*
X91403569Y-63348110D01*
X91352560Y-63600000D01*
X89635000Y-63600000D01*
X89635000Y-63473690D01*
X89538327Y-63240301D01*
X89359698Y-63061673D01*
X89126309Y-62965000D01*
X88285750Y-62965000D01*
X88127000Y-63123750D01*
X87873000Y-63123750D01*
X87714250Y-62965000D01*
X86873691Y-62965000D01*
X86640302Y-63061673D01*
X86461673Y-63240301D01*
X86365000Y-63473690D01*
X84623674Y-63473690D01*
X84603162Y-63364683D01*
X84464090Y-63148559D01*
X84251890Y-63003569D01*
X84000000Y-62952560D01*
X82000000Y-62952560D01*
X81764683Y-62996838D01*
X81548559Y-63135910D01*
X81403569Y-63348110D01*
X81352560Y-63600000D01*
X79635000Y-63600000D01*
X79635000Y-63473690D01*
X79538327Y-63240301D01*
X79359698Y-63061673D01*
X79126309Y-62965000D01*
X78285750Y-62965000D01*
X78127000Y-63123750D01*
X77873000Y-63123750D01*
X77714250Y-62965000D01*
X76873691Y-62965000D01*
X76640302Y-63061673D01*
X76461673Y-63240301D01*
X76365000Y-63473690D01*
X74623674Y-63473690D01*
X74603162Y-63364683D01*
X74464090Y-63148559D01*
X74251890Y-63003569D01*
X74000000Y-62952560D01*
X72000000Y-62952560D01*
X71764683Y-62996838D01*
X71548559Y-63135910D01*
X71403569Y-63348110D01*
X71352560Y-63600000D01*
X69635000Y-63600000D01*
X69635000Y-63473690D01*
X69538327Y-63240301D01*
X69359698Y-63061673D01*
X69126309Y-62965000D01*
X68285750Y-62965000D01*
X68127000Y-63123750D01*
X67873000Y-63123750D01*
X67714250Y-62965000D01*
X66873691Y-62965000D01*
X66640302Y-63061673D01*
X66461673Y-63240301D01*
X66365000Y-63473690D01*
X63779400Y-63473690D01*
X63779400Y-61100000D01*
X68852560Y-61100000D01*
X68852560Y-62100000D01*
X68896838Y-62335317D01*
X69035910Y-62551441D01*
X69248110Y-62696431D01*
X69500000Y-62747440D01*
X71500000Y-62747440D01*
X71735317Y-62703162D01*
X71951441Y-62564090D01*
X72096431Y-62351890D01*
X72147440Y-62100000D01*
X72147440Y-61100000D01*
X78852560Y-61100000D01*
X78852560Y-62100000D01*
X78896838Y-62335317D01*
X79035910Y-62551441D01*
X79248110Y-62696431D01*
X79500000Y-62747440D01*
X81500000Y-62747440D01*
X81735317Y-62703162D01*
X81951441Y-62564090D01*
X82096431Y-62351890D01*
X82147440Y-62100000D01*
X82147440Y-61100000D01*
X88852560Y-61100000D01*
X88852560Y-62100000D01*
X88896838Y-62335317D01*
X89035910Y-62551441D01*
X89248110Y-62696431D01*
X89500000Y-62747440D01*
X91500000Y-62747440D01*
X91735317Y-62703162D01*
X91951441Y-62564090D01*
X92096431Y-62351890D01*
X92147440Y-62100000D01*
X92147440Y-61100000D01*
X98852560Y-61100000D01*
X98852560Y-62100000D01*
X98896838Y-62335317D01*
X99035910Y-62551441D01*
X99248110Y-62696431D01*
X99500000Y-62747440D01*
X101500000Y-62747440D01*
X101735317Y-62703162D01*
X101951441Y-62564090D01*
X102096431Y-62351890D01*
X102147440Y-62100000D01*
X102147440Y-61100000D01*
X102103162Y-60864683D01*
X101964090Y-60648559D01*
X101751890Y-60503569D01*
X101500000Y-60452560D01*
X99500000Y-60452560D01*
X99264683Y-60496838D01*
X99048559Y-60635910D01*
X98903569Y-60848110D01*
X98852560Y-61100000D01*
X92147440Y-61100000D01*
X92103162Y-60864683D01*
X91964090Y-60648559D01*
X91751890Y-60503569D01*
X91500000Y-60452560D01*
X89500000Y-60452560D01*
X89264683Y-60496838D01*
X89048559Y-60635910D01*
X88903569Y-60848110D01*
X88852560Y-61100000D01*
X82147440Y-61100000D01*
X82103162Y-60864683D01*
X81964090Y-60648559D01*
X81751890Y-60503569D01*
X81500000Y-60452560D01*
X79500000Y-60452560D01*
X79264683Y-60496838D01*
X79048559Y-60635910D01*
X78903569Y-60848110D01*
X78852560Y-61100000D01*
X72147440Y-61100000D01*
X72103162Y-60864683D01*
X71964090Y-60648559D01*
X71751890Y-60503569D01*
X71500000Y-60452560D01*
X69500000Y-60452560D01*
X69264683Y-60496838D01*
X69048559Y-60635910D01*
X68903569Y-60848110D01*
X68852560Y-61100000D01*
X63779400Y-61100000D01*
X63779400Y-45730086D01*
X70548269Y-45730086D01*
X70750854Y-46220380D01*
X71125647Y-46595827D01*
X71615587Y-46799268D01*
X72146086Y-46799731D01*
X72636380Y-46597146D01*
X73011827Y-46222353D01*
X73152094Y-45884554D01*
X73290854Y-46220380D01*
X73665647Y-46595827D01*
X74155587Y-46799268D01*
X74686086Y-46799731D01*
X75176380Y-46597146D01*
X75551827Y-46222353D01*
X75755268Y-45732413D01*
X75755270Y-45730086D01*
X80168269Y-45730086D01*
X80370854Y-46220380D01*
X80745647Y-46595827D01*
X81235587Y-46799268D01*
X81766086Y-46799731D01*
X82256380Y-46597146D01*
X82631827Y-46222353D01*
X82772094Y-45884554D01*
X82910854Y-46220380D01*
X83285647Y-46595827D01*
X83775587Y-46799268D01*
X84306086Y-46799731D01*
X84796380Y-46597146D01*
X85171827Y-46222353D01*
X85375268Y-45732413D01*
X85375270Y-45730086D01*
X89788269Y-45730086D01*
X89990854Y-46220380D01*
X90365647Y-46595827D01*
X90855587Y-46799268D01*
X91386086Y-46799731D01*
X91876380Y-46597146D01*
X92251827Y-46222353D01*
X92392094Y-45884554D01*
X92530854Y-46220380D01*
X92905647Y-46595827D01*
X93395587Y-46799268D01*
X93926086Y-46799731D01*
X94416380Y-46597146D01*
X94791827Y-46222353D01*
X94995268Y-45732413D01*
X94995270Y-45730086D01*
X99408269Y-45730086D01*
X99610854Y-46220380D01*
X99985647Y-46595827D01*
X100475587Y-46799268D01*
X101006086Y-46799731D01*
X101496380Y-46597146D01*
X101871827Y-46222353D01*
X102012094Y-45884554D01*
X102150854Y-46220380D01*
X102525647Y-46595827D01*
X103015587Y-46799268D01*
X103546086Y-46799731D01*
X104036380Y-46597146D01*
X104411827Y-46222353D01*
X104615268Y-45732413D01*
X104615731Y-45201914D01*
X104413146Y-44711620D01*
X104038353Y-44336173D01*
X103548413Y-44132732D01*
X103017914Y-44132269D01*
X102527620Y-44334854D01*
X102152173Y-44709647D01*
X102011906Y-45047446D01*
X101873146Y-44711620D01*
X101498353Y-44336173D01*
X101008413Y-44132732D01*
X100477914Y-44132269D01*
X99987620Y-44334854D01*
X99612173Y-44709647D01*
X99408732Y-45199587D01*
X99408269Y-45730086D01*
X94995270Y-45730086D01*
X94995731Y-45201914D01*
X94793146Y-44711620D01*
X94418353Y-44336173D01*
X93928413Y-44132732D01*
X93397914Y-44132269D01*
X92907620Y-44334854D01*
X92532173Y-44709647D01*
X92391906Y-45047446D01*
X92253146Y-44711620D01*
X91878353Y-44336173D01*
X91388413Y-44132732D01*
X90857914Y-44132269D01*
X90367620Y-44334854D01*
X89992173Y-44709647D01*
X89788732Y-45199587D01*
X89788269Y-45730086D01*
X85375270Y-45730086D01*
X85375731Y-45201914D01*
X85173146Y-44711620D01*
X84798353Y-44336173D01*
X84308413Y-44132732D01*
X83777914Y-44132269D01*
X83287620Y-44334854D01*
X82912173Y-44709647D01*
X82771906Y-45047446D01*
X82633146Y-44711620D01*
X82258353Y-44336173D01*
X81768413Y-44132732D01*
X81237914Y-44132269D01*
X80747620Y-44334854D01*
X80372173Y-44709647D01*
X80168732Y-45199587D01*
X80168269Y-45730086D01*
X75755270Y-45730086D01*
X75755731Y-45201914D01*
X75553146Y-44711620D01*
X75178353Y-44336173D01*
X74688413Y-44132732D01*
X74157914Y-44132269D01*
X73667620Y-44334854D01*
X73292173Y-44709647D01*
X73151906Y-45047446D01*
X73013146Y-44711620D01*
X72638353Y-44336173D01*
X72148413Y-44132732D01*
X71617914Y-44132269D01*
X71127620Y-44334854D01*
X70752173Y-44709647D01*
X70548732Y-45199587D01*
X70548269Y-45730086D01*
X63779400Y-45730086D01*
X63779400Y-43773354D01*
X64486397Y-44481586D01*
X65821834Y-45036108D01*
X67267823Y-45037370D01*
X68604225Y-44485180D01*
X69627586Y-43463603D01*
X70182108Y-42128166D01*
X70183370Y-40682177D01*
X69772378Y-39687500D01*
X70536060Y-39687500D01*
X70536060Y-41084500D01*
X70580338Y-41319817D01*
X70719410Y-41535941D01*
X70931610Y-41680931D01*
X71183500Y-41731940D01*
X72580500Y-41731940D01*
X72815817Y-41687662D01*
X73031941Y-41548590D01*
X73176931Y-41336390D01*
X73227940Y-41084500D01*
X73227940Y-40988116D01*
X73290854Y-41140380D01*
X73665647Y-41515827D01*
X74155587Y-41719268D01*
X74686086Y-41719731D01*
X75176380Y-41517146D01*
X75551827Y-41142353D01*
X75755268Y-40652413D01*
X75755731Y-40121914D01*
X75576236Y-39687500D01*
X80156060Y-39687500D01*
X80156060Y-41084500D01*
X80200338Y-41319817D01*
X80339410Y-41535941D01*
X80551610Y-41680931D01*
X80803500Y-41731940D01*
X82200500Y-41731940D01*
X82435817Y-41687662D01*
X82651941Y-41548590D01*
X82796931Y-41336390D01*
X82847940Y-41084500D01*
X82847940Y-40988116D01*
X82910854Y-41140380D01*
X83285647Y-41515827D01*
X83775587Y-41719268D01*
X84306086Y-41719731D01*
X84796380Y-41517146D01*
X85171827Y-41142353D01*
X85375268Y-40652413D01*
X85375731Y-40121914D01*
X85196236Y-39687500D01*
X89776060Y-39687500D01*
X89776060Y-41084500D01*
X89820338Y-41319817D01*
X89959410Y-41535941D01*
X90171610Y-41680931D01*
X90423500Y-41731940D01*
X91820500Y-41731940D01*
X92055817Y-41687662D01*
X92271941Y-41548590D01*
X92416931Y-41336390D01*
X92467940Y-41084500D01*
X92467940Y-40988116D01*
X92530854Y-41140380D01*
X92905647Y-41515827D01*
X93395587Y-41719268D01*
X93926086Y-41719731D01*
X94416380Y-41517146D01*
X94791827Y-41142353D01*
X94995268Y-40652413D01*
X94995731Y-40121914D01*
X94816236Y-39687500D01*
X99396060Y-39687500D01*
X99396060Y-41084500D01*
X99440338Y-41319817D01*
X99579410Y-41535941D01*
X99791610Y-41680931D01*
X100043500Y-41731940D01*
X101440500Y-41731940D01*
X101675817Y-41687662D01*
X101891941Y-41548590D01*
X102036931Y-41336390D01*
X102087940Y-41084500D01*
X102087940Y-40988116D01*
X102150854Y-41140380D01*
X102525647Y-41515827D01*
X103015587Y-41719268D01*
X103546086Y-41719731D01*
X104036380Y-41517146D01*
X104411827Y-41142353D01*
X104615268Y-40652413D01*
X104615731Y-40121914D01*
X104413146Y-39631620D01*
X104038353Y-39256173D01*
X103548413Y-39052732D01*
X103017914Y-39052269D01*
X102527620Y-39254854D01*
X102152173Y-39629647D01*
X102087940Y-39784337D01*
X102087940Y-39687500D01*
X102043662Y-39452183D01*
X101904590Y-39236059D01*
X101692390Y-39091069D01*
X101440500Y-39040060D01*
X100043500Y-39040060D01*
X99808183Y-39084338D01*
X99592059Y-39223410D01*
X99447069Y-39435610D01*
X99396060Y-39687500D01*
X94816236Y-39687500D01*
X94793146Y-39631620D01*
X94418353Y-39256173D01*
X93928413Y-39052732D01*
X93397914Y-39052269D01*
X92907620Y-39254854D01*
X92532173Y-39629647D01*
X92467940Y-39784337D01*
X92467940Y-39687500D01*
X92423662Y-39452183D01*
X92284590Y-39236059D01*
X92072390Y-39091069D01*
X91820500Y-39040060D01*
X90423500Y-39040060D01*
X90188183Y-39084338D01*
X89972059Y-39223410D01*
X89827069Y-39435610D01*
X89776060Y-39687500D01*
X85196236Y-39687500D01*
X85173146Y-39631620D01*
X84798353Y-39256173D01*
X84308413Y-39052732D01*
X83777914Y-39052269D01*
X83287620Y-39254854D01*
X82912173Y-39629647D01*
X82847940Y-39784337D01*
X82847940Y-39687500D01*
X82803662Y-39452183D01*
X82664590Y-39236059D01*
X82452390Y-39091069D01*
X82200500Y-39040060D01*
X80803500Y-39040060D01*
X80568183Y-39084338D01*
X80352059Y-39223410D01*
X80207069Y-39435610D01*
X80156060Y-39687500D01*
X75576236Y-39687500D01*
X75553146Y-39631620D01*
X75178353Y-39256173D01*
X74688413Y-39052732D01*
X74157914Y-39052269D01*
X73667620Y-39254854D01*
X73292173Y-39629647D01*
X73227940Y-39784337D01*
X73227940Y-39687500D01*
X73183662Y-39452183D01*
X73044590Y-39236059D01*
X72832390Y-39091069D01*
X72580500Y-39040060D01*
X71183500Y-39040060D01*
X70948183Y-39084338D01*
X70732059Y-39223410D01*
X70587069Y-39435610D01*
X70536060Y-39687500D01*
X69772378Y-39687500D01*
X69631180Y-39345775D01*
X68920047Y-38633400D01*
X106779794Y-38633400D01*
X108585000Y-40438606D01*
G36*
X150494878Y-40438484D02*
X150373134Y-93041892D01*
X135416824Y-106004027D01*
X135386038Y-106043949D01*
X135373000Y-106100000D01*
X135373000Y-132044456D01*
X131839526Y-135311459D01*
X131889500Y-135190810D01*
X131889500Y-134651750D01*
X131730750Y-134493000D01*
X130683000Y-134493000D01*
X130683000Y-135540750D01*
X130841750Y-135699500D01*
X131380809Y-135699500D01*
X131451506Y-135670216D01*
X130966550Y-136118600D01*
X68919354Y-136118600D01*
X69627586Y-135411603D01*
X70040455Y-134417305D01*
X70040269Y-134630086D01*
X70242854Y-135120380D01*
X70617647Y-135495827D01*
X71107587Y-135699268D01*
X71638086Y-135699731D01*
X72128380Y-135497146D01*
X72503827Y-135122353D01*
X72644094Y-134784554D01*
X72782854Y-135120380D01*
X73157647Y-135495827D01*
X73647587Y-135699268D01*
X74178086Y-135699731D01*
X74668380Y-135497146D01*
X75043827Y-135122353D01*
X75184094Y-134784554D01*
X75322854Y-135120380D01*
X75697647Y-135495827D01*
X76187587Y-135699268D01*
X76718086Y-135699731D01*
X77208380Y-135497146D01*
X77583827Y-135122353D01*
X77660500Y-134937704D01*
X77660500Y-135190810D01*
X77757173Y-135424199D01*
X77935802Y-135602827D01*
X78169191Y-135699500D01*
X78708250Y-135699500D01*
X78867000Y-135540750D01*
X78867000Y-134493000D01*
X79121000Y-134493000D01*
X79121000Y-135540750D01*
X79279750Y-135699500D01*
X79818809Y-135699500D01*
X80052198Y-135602827D01*
X80230827Y-135424199D01*
X80327500Y-135190810D01*
X80327500Y-134651750D01*
X80305836Y-134630086D01*
X83502269Y-134630086D01*
X83704854Y-135120380D01*
X84079647Y-135495827D01*
X84569587Y-135699268D01*
X85100086Y-135699731D01*
X85590380Y-135497146D01*
X85965827Y-135122353D01*
X86106094Y-134784554D01*
X86244854Y-135120380D01*
X86619647Y-135495827D01*
X87109587Y-135699268D01*
X87640086Y-135699731D01*
X88130380Y-135497146D01*
X88505827Y-135122353D01*
X88646094Y-134784554D01*
X88784854Y-135120380D01*
X89159647Y-135495827D01*
X89649587Y-135699268D01*
X90180086Y-135699731D01*
X90670380Y-135497146D01*
X91045827Y-135122353D01*
X91122500Y-134937704D01*
X91122500Y-135190810D01*
X91219173Y-135424199D01*
X91397802Y-135602827D01*
X91631191Y-135699500D01*
X92170250Y-135699500D01*
X92329000Y-135540750D01*
X92329000Y-134493000D01*
X92583000Y-134493000D01*
X92583000Y-135540750D01*
X92741750Y-135699500D01*
X93280809Y-135699500D01*
X93514198Y-135602827D01*
X93692827Y-135424199D01*
X93789500Y-135190810D01*
X93789500Y-134651750D01*
X93767836Y-134630086D01*
X96202269Y-134630086D01*
X96404854Y-135120380D01*
X96779647Y-135495827D01*
X97269587Y-135699268D01*
X97800086Y-135699731D01*
X98290380Y-135497146D01*
X98665827Y-135122353D01*
X98806094Y-134784554D01*
X98944854Y-135120380D01*
X99319647Y-135495827D01*
X99809587Y-135699268D01*
X100340086Y-135699731D01*
X100830380Y-135497146D01*
X101205827Y-135122353D01*
X101346094Y-134784554D01*
X101484854Y-135120380D01*
X101859647Y-135495827D01*
X102349587Y-135699268D01*
X102880086Y-135699731D01*
X103370380Y-135497146D01*
X103745827Y-135122353D01*
X103822500Y-134937704D01*
X103822500Y-135190810D01*
X103919173Y-135424199D01*
X104097802Y-135602827D01*
X104331191Y-135699500D01*
X104870250Y-135699500D01*
X105029000Y-135540750D01*
X105029000Y-134493000D01*
X105283000Y-134493000D01*
X105283000Y-135540750D01*
X105441750Y-135699500D01*
X105980809Y-135699500D01*
X106214198Y-135602827D01*
X106392827Y-135424199D01*
X106489500Y-135190810D01*
X106489500Y-134651750D01*
X106467836Y-134630086D01*
X108902269Y-134630086D01*
X109104854Y-135120380D01*
X109479647Y-135495827D01*
X109969587Y-135699268D01*
X110500086Y-135699731D01*
X110990380Y-135497146D01*
X111365827Y-135122353D01*
X111506094Y-134784554D01*
X111644854Y-135120380D01*
X112019647Y-135495827D01*
X112509587Y-135699268D01*
X113040086Y-135699731D01*
X113530380Y-135497146D01*
X113905827Y-135122353D01*
X114046094Y-134784554D01*
X114184854Y-135120380D01*
X114559647Y-135495827D01*
X115049587Y-135699268D01*
X115580086Y-135699731D01*
X116070380Y-135497146D01*
X116445827Y-135122353D01*
X116522500Y-134937704D01*
X116522500Y-135190810D01*
X116619173Y-135424199D01*
X116797802Y-135602827D01*
X117031191Y-135699500D01*
X117570250Y-135699500D01*
X117729000Y-135540750D01*
X117729000Y-134493000D01*
X117983000Y-134493000D01*
X117983000Y-135540750D01*
X118141750Y-135699500D01*
X118680809Y-135699500D01*
X118914198Y-135602827D01*
X119092827Y-135424199D01*
X119189500Y-135190810D01*
X119189500Y-134651750D01*
X119167836Y-134630086D01*
X121602269Y-134630086D01*
X121804854Y-135120380D01*
X122179647Y-135495827D01*
X122669587Y-135699268D01*
X123200086Y-135699731D01*
X123690380Y-135497146D01*
X124065827Y-135122353D01*
X124206094Y-134784554D01*
X124344854Y-135120380D01*
X124719647Y-135495827D01*
X125209587Y-135699268D01*
X125740086Y-135699731D01*
X126230380Y-135497146D01*
X126605827Y-135122353D01*
X126746094Y-134784554D01*
X126884854Y-135120380D01*
X127259647Y-135495827D01*
X127749587Y-135699268D01*
X128280086Y-135699731D01*
X128770380Y-135497146D01*
X129145827Y-135122353D01*
X129222500Y-134937704D01*
X129222500Y-135190810D01*
X129319173Y-135424199D01*
X129497802Y-135602827D01*
X129731191Y-135699500D01*
X130270250Y-135699500D01*
X130429000Y-135540750D01*
X130429000Y-134493000D01*
X130409000Y-134493000D01*
X130409000Y-134239000D01*
X130429000Y-134239000D01*
X130429000Y-133191250D01*
X130683000Y-133191250D01*
X130683000Y-134239000D01*
X131730750Y-134239000D01*
X131889500Y-134080250D01*
X131889500Y-133541190D01*
X131792827Y-133307801D01*
X131614198Y-133129173D01*
X131380809Y-133032500D01*
X130841750Y-133032500D01*
X130683000Y-133191250D01*
X130429000Y-133191250D01*
X130270250Y-133032500D01*
X129731191Y-133032500D01*
X129497802Y-133129173D01*
X129319173Y-133307801D01*
X129222500Y-133541190D01*
X129222500Y-133793991D01*
X129147146Y-133611620D01*
X128772353Y-133236173D01*
X128282413Y-133032732D01*
X127751914Y-133032269D01*
X127261620Y-133234854D01*
X126886173Y-133609647D01*
X126745906Y-133947446D01*
X126607146Y-133611620D01*
X126232353Y-133236173D01*
X125742413Y-133032732D01*
X125211914Y-133032269D01*
X124721620Y-133234854D01*
X124346173Y-133609647D01*
X124205906Y-133947446D01*
X124067146Y-133611620D01*
X123692353Y-133236173D01*
X123202413Y-133032732D01*
X122671914Y-133032269D01*
X122181620Y-133234854D01*
X121806173Y-133609647D01*
X121602732Y-134099587D01*
X121602269Y-134630086D01*
X119167836Y-134630086D01*
X119030750Y-134493000D01*
X117983000Y-134493000D01*
X117729000Y-134493000D01*
X117709000Y-134493000D01*
X117709000Y-134239000D01*
X117729000Y-134239000D01*
X117729000Y-133191250D01*
X117983000Y-133191250D01*
X117983000Y-134239000D01*
X119030750Y-134239000D01*
X119189500Y-134080250D01*
X119189500Y-133541190D01*
X119092827Y-133307801D01*
X118914198Y-133129173D01*
X118680809Y-133032500D01*
X118141750Y-133032500D01*
X117983000Y-133191250D01*
X117729000Y-133191250D01*
X117570250Y-133032500D01*
X117031191Y-133032500D01*
X116797802Y-133129173D01*
X116619173Y-133307801D01*
X116522500Y-133541190D01*
X116522500Y-133793991D01*
X116447146Y-133611620D01*
X116072353Y-133236173D01*
X115582413Y-133032732D01*
X115051914Y-133032269D01*
X114561620Y-133234854D01*
X114186173Y-133609647D01*
X114045906Y-133947446D01*
X113907146Y-133611620D01*
X113532353Y-133236173D01*
X113042413Y-133032732D01*
X112511914Y-133032269D01*
X112021620Y-133234854D01*
X111646173Y-133609647D01*
X111505906Y-133947446D01*
X111367146Y-133611620D01*
X110992353Y-133236173D01*
X110502413Y-133032732D01*
X109971914Y-133032269D01*
X109481620Y-133234854D01*
X109106173Y-133609647D01*
X108902732Y-134099587D01*
X108902269Y-134630086D01*
X106467836Y-134630086D01*
X106330750Y-134493000D01*
X105283000Y-134493000D01*
X105029000Y-134493000D01*
X105009000Y-134493000D01*
X105009000Y-134239000D01*
X105029000Y-134239000D01*
X105029000Y-133191250D01*
X105283000Y-133191250D01*
X105283000Y-134239000D01*
X106330750Y-134239000D01*
X106489500Y-134080250D01*
X106489500Y-133541190D01*
X106392827Y-133307801D01*
X106214198Y-133129173D01*
X105980809Y-133032500D01*
X105441750Y-133032500D01*
X105283000Y-133191250D01*
X105029000Y-133191250D01*
X104870250Y-133032500D01*
X104331191Y-133032500D01*
X104097802Y-133129173D01*
X103919173Y-133307801D01*
X103822500Y-133541190D01*
X103822500Y-133793991D01*
X103747146Y-133611620D01*
X103372353Y-133236173D01*
X102882413Y-133032732D01*
X102351914Y-133032269D01*
X101861620Y-133234854D01*
X101486173Y-133609647D01*
X101345906Y-133947446D01*
X101207146Y-133611620D01*
X100832353Y-133236173D01*
X100342413Y-133032732D01*
X99811914Y-133032269D01*
X99321620Y-133234854D01*
X98946173Y-133609647D01*
X98805906Y-133947446D01*
X98667146Y-133611620D01*
X98292353Y-133236173D01*
X97802413Y-133032732D01*
X97271914Y-133032269D01*
X96781620Y-133234854D01*
X96406173Y-133609647D01*
X96202732Y-134099587D01*
X96202269Y-134630086D01*
X93767836Y-134630086D01*
X93630750Y-134493000D01*
X92583000Y-134493000D01*
X92329000Y-134493000D01*
X92309000Y-134493000D01*
X92309000Y-134239000D01*
X92329000Y-134239000D01*
X92329000Y-133191250D01*
X92583000Y-133191250D01*
X92583000Y-134239000D01*
X93630750Y-134239000D01*
X93789500Y-134080250D01*
X93789500Y-133541190D01*
X93692827Y-133307801D01*
X93514198Y-133129173D01*
X93280809Y-133032500D01*
X92741750Y-133032500D01*
X92583000Y-133191250D01*
X92329000Y-133191250D01*
X92170250Y-133032500D01*
X91631191Y-133032500D01*
X91397802Y-133129173D01*
X91219173Y-133307801D01*
X91122500Y-133541190D01*
X91122500Y-133793991D01*
X91047146Y-133611620D01*
X90672353Y-133236173D01*
X90182413Y-133032732D01*
X89651914Y-133032269D01*
X89161620Y-133234854D01*
X88786173Y-133609647D01*
X88645906Y-133947446D01*
X88507146Y-133611620D01*
X88132353Y-133236173D01*
X87642413Y-133032732D01*
X87111914Y-133032269D01*
X86621620Y-133234854D01*
X86246173Y-133609647D01*
X86105906Y-133947446D01*
X85967146Y-133611620D01*
X85592353Y-133236173D01*
X85102413Y-133032732D01*
X84571914Y-133032269D01*
X84081620Y-133234854D01*
X83706173Y-133609647D01*
X83502732Y-134099587D01*
X83502269Y-134630086D01*
X80305836Y-134630086D01*
X80168750Y-134493000D01*
X79121000Y-134493000D01*
X78867000Y-134493000D01*
X78847000Y-134493000D01*
X78847000Y-134239000D01*
X78867000Y-134239000D01*
X78867000Y-133191250D01*
X79121000Y-133191250D01*
X79121000Y-134239000D01*
X80168750Y-134239000D01*
X80327500Y-134080250D01*
X80327500Y-133541190D01*
X80230827Y-133307801D01*
X80052198Y-133129173D01*
X79818809Y-133032500D01*
X79279750Y-133032500D01*
X79121000Y-133191250D01*
X78867000Y-133191250D01*
X78708250Y-133032500D01*
X78169191Y-133032500D01*
X77935802Y-133129173D01*
X77757173Y-133307801D01*
X77660500Y-133541190D01*
X77660500Y-133793991D01*
X77585146Y-133611620D01*
X77210353Y-133236173D01*
X76720413Y-133032732D01*
X76189914Y-133032269D01*
X75699620Y-133234854D01*
X75324173Y-133609647D01*
X75183906Y-133947446D01*
X75045146Y-133611620D01*
X74670353Y-133236173D01*
X74180413Y-133032732D01*
X73649914Y-133032269D01*
X73159620Y-133234854D01*
X72784173Y-133609647D01*
X72643906Y-133947446D01*
X72505146Y-133611620D01*
X72130353Y-133236173D01*
X72110600Y-133227971D01*
X72110600Y-126289110D01*
X72860242Y-125539468D01*
X73111784Y-125539687D01*
X73508689Y-125375689D01*
X73812622Y-125072286D01*
X73977313Y-124675668D01*
X73977687Y-124246216D01*
X73813689Y-123849311D01*
X73510286Y-123545378D01*
X73113668Y-123380687D01*
X72684216Y-123380313D01*
X72287311Y-123544311D01*
X71983378Y-123847714D01*
X71818687Y-124244332D01*
X71818466Y-124497824D01*
X70853145Y-125463145D01*
X70693470Y-125702115D01*
X70637400Y-125984000D01*
X70637400Y-133227507D01*
X70619620Y-133234854D01*
X70244173Y-133609647D01*
X70182385Y-133758448D01*
X70183370Y-132630177D01*
X69631180Y-131293775D01*
X68609603Y-130270414D01*
X67274166Y-129715892D01*
X65828177Y-129714630D01*
X64491775Y-130266820D01*
X63779400Y-130977953D01*
X63779400Y-119951500D01*
X79426060Y-119951500D01*
X79426060Y-121348500D01*
X79470338Y-121583817D01*
X79609410Y-121799941D01*
X79821610Y-121944931D01*
X80073500Y-121995940D01*
X81470500Y-121995940D01*
X81705817Y-121951662D01*
X81921941Y-121812590D01*
X82066931Y-121600390D01*
X82117940Y-121348500D01*
X82117940Y-121252116D01*
X82180854Y-121404380D01*
X82555647Y-121779827D01*
X83045587Y-121983268D01*
X83576086Y-121983731D01*
X84066380Y-121781146D01*
X84441827Y-121406353D01*
X84582094Y-121068554D01*
X84720854Y-121404380D01*
X85095647Y-121779827D01*
X85585587Y-121983268D01*
X86116086Y-121983731D01*
X86606380Y-121781146D01*
X86981827Y-121406353D01*
X87122094Y-121068554D01*
X87260854Y-121404380D01*
X87635647Y-121779827D01*
X88125587Y-121983268D01*
X88656086Y-121983731D01*
X89146380Y-121781146D01*
X89343681Y-121584188D01*
X90177417Y-121584188D01*
X90239071Y-121819800D01*
X90739480Y-121995927D01*
X91269199Y-121967148D01*
X91624929Y-121819800D01*
X91686583Y-121584188D01*
X90932000Y-120829605D01*
X90177417Y-121584188D01*
X89343681Y-121584188D01*
X89521827Y-121406353D01*
X89655314Y-121084882D01*
X89762200Y-121342929D01*
X89997812Y-121404583D01*
X90752395Y-120650000D01*
X91111605Y-120650000D01*
X91866188Y-121404583D01*
X92101800Y-121342929D01*
X92277927Y-120842520D01*
X92249148Y-120312801D01*
X92101800Y-119957071D01*
X91866188Y-119895417D01*
X91111605Y-120650000D01*
X90752395Y-120650000D01*
X89997812Y-119895417D01*
X89762200Y-119957071D01*
X89663917Y-120236312D01*
X89523146Y-119895620D01*
X89343652Y-119715812D01*
X90177417Y-119715812D01*
X90932000Y-120470395D01*
X91686583Y-119715812D01*
X91624929Y-119480200D01*
X91124520Y-119304073D01*
X90594801Y-119332852D01*
X90239071Y-119480200D01*
X90177417Y-119715812D01*
X89343652Y-119715812D01*
X89148353Y-119520173D01*
X88658413Y-119316732D01*
X88127914Y-119316269D01*
X87637620Y-119518854D01*
X87262173Y-119893647D01*
X87121906Y-120231446D01*
X86983146Y-119895620D01*
X86608353Y-119520173D01*
X86118413Y-119316732D01*
X85587914Y-119316269D01*
X85097620Y-119518854D01*
X84722173Y-119893647D01*
X84581906Y-120231446D01*
X84443146Y-119895620D01*
X84068353Y-119520173D01*
X83578413Y-119316732D01*
X83047914Y-119316269D01*
X82557620Y-119518854D01*
X82182173Y-119893647D01*
X82117940Y-120048337D01*
X82117940Y-119951500D01*
X82073662Y-119716183D01*
X81934590Y-119500059D01*
X81722390Y-119355069D01*
X81470500Y-119304060D01*
X80073500Y-119304060D01*
X79838183Y-119348338D01*
X79622059Y-119487410D01*
X79477069Y-119699610D01*
X79426060Y-119951500D01*
X63779400Y-119951500D01*
X63779400Y-111897086D01*
X71691269Y-111897086D01*
X71893854Y-112387380D01*
X72268647Y-112762827D01*
X72606446Y-112903094D01*
X72270620Y-113041854D01*
X71895173Y-113416647D01*
X71691732Y-113906587D01*
X71691269Y-114437086D01*
X71893854Y-114927380D01*
X72268647Y-115302827D01*
X72606446Y-115443094D01*
X72270620Y-115581854D01*
X71895173Y-115956647D01*
X71691732Y-116446587D01*
X71691269Y-116977086D01*
X71893854Y-117467380D01*
X72268647Y-117842827D01*
X72758587Y-118046268D01*
X73289086Y-118046731D01*
X73779380Y-117844146D01*
X74154827Y-117469353D01*
X74358268Y-116979413D01*
X74358731Y-116448914D01*
X74156146Y-115958620D01*
X73781353Y-115583173D01*
X73443554Y-115442906D01*
X73779380Y-115304146D01*
X74154827Y-114929353D01*
X74358268Y-114439413D01*
X74358731Y-113908914D01*
X74156146Y-113418620D01*
X73781353Y-113043173D01*
X73443554Y-112902906D01*
X73779380Y-112764146D01*
X74154827Y-112389353D01*
X74358268Y-111899413D01*
X74358731Y-111368914D01*
X74156146Y-110878620D01*
X73781353Y-110503173D01*
X73596704Y-110426500D01*
X73849810Y-110426500D01*
X74083199Y-110329827D01*
X74261827Y-110151198D01*
X74358500Y-109917809D01*
X74358500Y-109378750D01*
X74199750Y-109220000D01*
X73152000Y-109220000D01*
X73152000Y-109240000D01*
X72898000Y-109240000D01*
X72898000Y-109220000D01*
X71850250Y-109220000D01*
X71691500Y-109378750D01*
X71691500Y-109917809D01*
X71788173Y-110151198D01*
X71966801Y-110329827D01*
X72200190Y-110426500D01*
X72452991Y-110426500D01*
X72270620Y-110501854D01*
X71895173Y-110876647D01*
X71691732Y-111366587D01*
X71691269Y-111897086D01*
X63779400Y-111897086D01*
X63779400Y-108268191D01*
X71691500Y-108268191D01*
X71691500Y-108807250D01*
X71850250Y-108966000D01*
X72898000Y-108966000D01*
X72898000Y-107918250D01*
X73152000Y-107918250D01*
X73152000Y-108966000D01*
X74199750Y-108966000D01*
X74358500Y-108807250D01*
X74358500Y-108268191D01*
X74261827Y-108034802D01*
X74083199Y-107856173D01*
X73849810Y-107759500D01*
X73310750Y-107759500D01*
X73152000Y-107918250D01*
X72898000Y-107918250D01*
X72739250Y-107759500D01*
X72200190Y-107759500D01*
X71966801Y-107856173D01*
X71788173Y-108034802D01*
X71691500Y-108268191D01*
X63779400Y-108268191D01*
X63779400Y-99599750D01*
X65722500Y-99599750D01*
X65722500Y-100138810D01*
X65819173Y-100372199D01*
X65997802Y-100550827D01*
X66231191Y-100647500D01*
X66770250Y-100647500D01*
X66929000Y-100488750D01*
X66929000Y-99441000D01*
X65881250Y-99441000D01*
X65722500Y-99599750D01*
X63779400Y-99599750D01*
X63779400Y-98489190D01*
X65722500Y-98489190D01*
X65722500Y-99028250D01*
X65881250Y-99187000D01*
X66929000Y-99187000D01*
X66929000Y-98139250D01*
X67183000Y-98139250D01*
X67183000Y-99187000D01*
X67203000Y-99187000D01*
X67203000Y-99441000D01*
X67183000Y-99441000D01*
X67183000Y-100488750D01*
X67341750Y-100647500D01*
X67880809Y-100647500D01*
X68114198Y-100550827D01*
X68292827Y-100372199D01*
X68389500Y-100138810D01*
X68389500Y-99886009D01*
X68464854Y-100068380D01*
X68839647Y-100443827D01*
X69329587Y-100647268D01*
X69860086Y-100647731D01*
X70350380Y-100445146D01*
X70725827Y-100070353D01*
X70866094Y-99732554D01*
X71004854Y-100068380D01*
X71379647Y-100443827D01*
X71869587Y-100647268D01*
X72400086Y-100647731D01*
X72890380Y-100445146D01*
X73265827Y-100070353D01*
X73406094Y-99732554D01*
X73544854Y-100068380D01*
X73919647Y-100443827D01*
X74409587Y-100647268D01*
X74940086Y-100647731D01*
X75430380Y-100445146D01*
X75805827Y-100070353D01*
X75946094Y-99732554D01*
X76084854Y-100068380D01*
X76459647Y-100443827D01*
X76949587Y-100647268D01*
X77480086Y-100647731D01*
X77970380Y-100445146D01*
X78345827Y-100070353D01*
X78486094Y-99732554D01*
X78624854Y-100068380D01*
X78999647Y-100443827D01*
X79489587Y-100647268D01*
X80020086Y-100647731D01*
X80289400Y-100536453D01*
X80289400Y-100584000D01*
X80345470Y-100865885D01*
X80505145Y-101104855D01*
X86131400Y-106731110D01*
X86131400Y-110103860D01*
X85991413Y-110045732D01*
X85460914Y-110045269D01*
X84970620Y-110247854D01*
X84595173Y-110622647D01*
X84454906Y-110960446D01*
X84316146Y-110624620D01*
X83941353Y-110249173D01*
X83451413Y-110045732D01*
X82920914Y-110045269D01*
X82430620Y-110247854D01*
X82055173Y-110622647D01*
X81914906Y-110960446D01*
X81776146Y-110624620D01*
X81401353Y-110249173D01*
X80911413Y-110045732D01*
X80380914Y-110045269D01*
X79890620Y-110247854D01*
X79515173Y-110622647D01*
X79450940Y-110777337D01*
X79450940Y-110680500D01*
X79406662Y-110445183D01*
X79267590Y-110229059D01*
X79055390Y-110084069D01*
X78803500Y-110033060D01*
X77406500Y-110033060D01*
X77171183Y-110077338D01*
X76955059Y-110216410D01*
X76810069Y-110428610D01*
X76759060Y-110680500D01*
X76759060Y-112077500D01*
X76803338Y-112312817D01*
X76942410Y-112528941D01*
X77154610Y-112673931D01*
X77406500Y-112724940D01*
X78803500Y-112724940D01*
X79038817Y-112680662D01*
X79254941Y-112541590D01*
X79399931Y-112329390D01*
X79450940Y-112077500D01*
X79450940Y-111981116D01*
X79513854Y-112133380D01*
X79888647Y-112508827D01*
X80378587Y-112712268D01*
X80909086Y-112712731D01*
X81399380Y-112510146D01*
X81774827Y-112135353D01*
X81915094Y-111797554D01*
X82053854Y-112133380D01*
X82428647Y-112508827D01*
X82918587Y-112712268D01*
X83449086Y-112712731D01*
X83939380Y-112510146D01*
X84314827Y-112135353D01*
X84455094Y-111797554D01*
X84593854Y-112133380D01*
X84968647Y-112508827D01*
X85458587Y-112712268D01*
X85989086Y-112712731D01*
X86131400Y-112653928D01*
X86131400Y-113108688D01*
X86042687Y-113322332D01*
X86042313Y-113751784D01*
X86174376Y-114071400D01*
X79783998Y-114071400D01*
X79606286Y-113893378D01*
X79209668Y-113728687D01*
X78780216Y-113728313D01*
X78383311Y-113892311D01*
X78079378Y-114195714D01*
X77914687Y-114592332D01*
X77914313Y-115021784D01*
X78078311Y-115418689D01*
X78381714Y-115722622D01*
X78778332Y-115887313D01*
X79207784Y-115887687D01*
X79604689Y-115723689D01*
X79784091Y-115544600D01*
X107795861Y-115544600D01*
X107796311Y-115545689D01*
X108099714Y-115849622D01*
X108496332Y-116014313D01*
X108925784Y-116014687D01*
X109322689Y-115850689D01*
X109626622Y-115547286D01*
X109791313Y-115150668D01*
X109791687Y-114721216D01*
X109627689Y-114324311D01*
X109324286Y-114020378D01*
X108927668Y-113855687D01*
X108498216Y-113855313D01*
X108101311Y-114019311D01*
X108049131Y-114071400D01*
X103870114Y-114071400D01*
X103949313Y-113880668D01*
X103949687Y-113451216D01*
X103785689Y-113054311D01*
X103482286Y-112750378D01*
X103085668Y-112585687D01*
X102656216Y-112585313D01*
X102259311Y-112749311D01*
X102079909Y-112928400D01*
X101016110Y-112928400D01*
X100800067Y-112712357D01*
X101229086Y-112712731D01*
X101719380Y-112510146D01*
X102094827Y-112135353D01*
X102298268Y-111645413D01*
X102298731Y-111114914D01*
X102096146Y-110624620D01*
X101721353Y-110249173D01*
X101231413Y-110045732D01*
X100700914Y-110045269D01*
X100210620Y-110247854D01*
X99835173Y-110622647D01*
X99694906Y-110960446D01*
X99556146Y-110624620D01*
X99181353Y-110249173D01*
X98691413Y-110045732D01*
X98260354Y-110045356D01*
X101562242Y-106743468D01*
X101813784Y-106743687D01*
X102210689Y-106579689D01*
X102514622Y-106276286D01*
X102544741Y-106203750D01*
X108648500Y-106203750D01*
X108648500Y-106742809D01*
X108745173Y-106976198D01*
X108923801Y-107154827D01*
X109157190Y-107251500D01*
X109696250Y-107251500D01*
X109855000Y-107092750D01*
X109855000Y-106045000D01*
X110109000Y-106045000D01*
X110109000Y-107092750D01*
X110267750Y-107251500D01*
X110806810Y-107251500D01*
X111040199Y-107154827D01*
X111218827Y-106976198D01*
X111315500Y-106742809D01*
X111315500Y-106203750D01*
X111156750Y-106045000D01*
X110109000Y-106045000D01*
X109855000Y-106045000D01*
X108807250Y-106045000D01*
X108648500Y-106203750D01*
X102544741Y-106203750D01*
X102679313Y-105879668D01*
X102679687Y-105450216D01*
X102532168Y-105093191D01*
X108648500Y-105093191D01*
X108648500Y-105632250D01*
X108807250Y-105791000D01*
X109855000Y-105791000D01*
X109855000Y-105771000D01*
X110109000Y-105771000D01*
X110109000Y-105791000D01*
X111156750Y-105791000D01*
X111315500Y-105632250D01*
X111315500Y-105093191D01*
X111262609Y-104965500D01*
X116256060Y-104965500D01*
X116256060Y-106362500D01*
X116300338Y-106597817D01*
X116439410Y-106813941D01*
X116651610Y-106958931D01*
X116865400Y-107002225D01*
X116865400Y-111760000D01*
X116921470Y-112041885D01*
X117030554Y-112205140D01*
X117030313Y-112481784D01*
X117194311Y-112878689D01*
X117497714Y-113182622D01*
X117894332Y-113347313D01*
X118323784Y-113347687D01*
X118720689Y-113183689D01*
X119024622Y-112880286D01*
X119189313Y-112483668D01*
X119189687Y-112054216D01*
X119025689Y-111657311D01*
X118722286Y-111353378D01*
X118338600Y-111194057D01*
X118338600Y-107002771D01*
X118535817Y-106965662D01*
X118751941Y-106826590D01*
X118896931Y-106614390D01*
X118947940Y-106362500D01*
X118947940Y-106235500D01*
X128702060Y-106235500D01*
X128702060Y-107632500D01*
X128746338Y-107867817D01*
X128885410Y-108083941D01*
X129097610Y-108228931D01*
X129349500Y-108279940D01*
X130746500Y-108279940D01*
X130981817Y-108235662D01*
X131197941Y-108096590D01*
X131342931Y-107884390D01*
X131393940Y-107632500D01*
X131393940Y-107137770D01*
X137172855Y-101358855D01*
X137284136Y-101192311D01*
X137332530Y-101119885D01*
X137388600Y-100838000D01*
X137388600Y-88927998D01*
X137566622Y-88750286D01*
X137731313Y-88353668D01*
X137731687Y-87924216D01*
X137567689Y-87527311D01*
X137388600Y-87347909D01*
X137388600Y-77751998D01*
X137566622Y-77574286D01*
X137731313Y-77177668D01*
X137731687Y-76748216D01*
X137567689Y-76351311D01*
X137388600Y-76171909D01*
X137388600Y-67083998D01*
X137566622Y-66906286D01*
X137731313Y-66509668D01*
X137731687Y-66080216D01*
X137567689Y-65683311D01*
X137388600Y-65503909D01*
X137388600Y-56415998D01*
X137566622Y-56238286D01*
X137731313Y-55841668D01*
X137731687Y-55412216D01*
X137567689Y-55015311D01*
X137388600Y-54835909D01*
X137388600Y-45747998D01*
X137566622Y-45570286D01*
X137731313Y-45173668D01*
X137731687Y-44744216D01*
X137567689Y-44347311D01*
X137264286Y-44043378D01*
X136867668Y-43878687D01*
X136438216Y-43878313D01*
X136041311Y-44042311D01*
X135737378Y-44345714D01*
X135572687Y-44742332D01*
X135572313Y-45171784D01*
X135736311Y-45568689D01*
X135915400Y-45748091D01*
X135915400Y-54836002D01*
X135737378Y-55013714D01*
X135572687Y-55410332D01*
X135572313Y-55839784D01*
X135736311Y-56236689D01*
X135915400Y-56416091D01*
X135915400Y-65504002D01*
X135737378Y-65681714D01*
X135572687Y-66078332D01*
X135572313Y-66507784D01*
X135736311Y-66904689D01*
X135915400Y-67084091D01*
X135915400Y-76172002D01*
X135737378Y-76349714D01*
X135572687Y-76746332D01*
X135572313Y-77175784D01*
X135736311Y-77572689D01*
X135915400Y-77752091D01*
X135915400Y-87348002D01*
X135737378Y-87525714D01*
X135572687Y-87922332D01*
X135572313Y-88351784D01*
X135736311Y-88748689D01*
X135915400Y-88928091D01*
X135915400Y-100532890D01*
X130841078Y-105607212D01*
X130746500Y-105588060D01*
X130682360Y-105588060D01*
X130740929Y-105563800D01*
X130802583Y-105328188D01*
X130048000Y-104573605D01*
X129293417Y-105328188D01*
X129355071Y-105563800D01*
X129423998Y-105588060D01*
X129349500Y-105588060D01*
X129114183Y-105632338D01*
X128898059Y-105771410D01*
X128753069Y-105983610D01*
X128702060Y-106235500D01*
X118947940Y-106235500D01*
X118947940Y-104965500D01*
X118903662Y-104730183D01*
X118764590Y-104514059D01*
X118552390Y-104369069D01*
X118300500Y-104318060D01*
X118204116Y-104318060D01*
X118356380Y-104255146D01*
X118410139Y-104201480D01*
X128702073Y-104201480D01*
X128730852Y-104731199D01*
X128878200Y-105086929D01*
X129113812Y-105148583D01*
X129868395Y-104394000D01*
X130227605Y-104394000D01*
X130982188Y-105148583D01*
X131217800Y-105086929D01*
X131393927Y-104586520D01*
X131365148Y-104056801D01*
X131217800Y-103701071D01*
X130982188Y-103639417D01*
X130227605Y-104394000D01*
X129868395Y-104394000D01*
X129113812Y-103639417D01*
X128878200Y-103701071D01*
X128702073Y-104201480D01*
X118410139Y-104201480D01*
X118731827Y-103880353D01*
X118935268Y-103390413D01*
X118935731Y-102859914D01*
X118733146Y-102369620D01*
X118358353Y-101994173D01*
X118020554Y-101853906D01*
X118356380Y-101715146D01*
X118731827Y-101340353D01*
X118935268Y-100850413D01*
X118935731Y-100319914D01*
X118733146Y-99829620D01*
X118358353Y-99454173D01*
X117868413Y-99250732D01*
X117337914Y-99250269D01*
X116847620Y-99452854D01*
X116472173Y-99827647D01*
X116268732Y-100317587D01*
X116268269Y-100848086D01*
X116470854Y-101338380D01*
X116845647Y-101713827D01*
X117183446Y-101854094D01*
X116847620Y-101992854D01*
X116472173Y-102367647D01*
X116268732Y-102857587D01*
X116268269Y-103388086D01*
X116470854Y-103878380D01*
X116845647Y-104253827D01*
X117000337Y-104318060D01*
X116903500Y-104318060D01*
X116668183Y-104362338D01*
X116452059Y-104501410D01*
X116307069Y-104713610D01*
X116256060Y-104965500D01*
X111262609Y-104965500D01*
X111218827Y-104859802D01*
X111040199Y-104681173D01*
X110806810Y-104584500D01*
X110586327Y-104584500D01*
X110674929Y-104547800D01*
X110736583Y-104312188D01*
X109982000Y-103557605D01*
X109227417Y-104312188D01*
X109289071Y-104547800D01*
X109393342Y-104584500D01*
X109157190Y-104584500D01*
X108923801Y-104681173D01*
X108745173Y-104859802D01*
X108648500Y-105093191D01*
X102532168Y-105093191D01*
X102515689Y-105053311D01*
X102212286Y-104749378D01*
X101815668Y-104584687D01*
X101386216Y-104584313D01*
X100989311Y-104748311D01*
X100685378Y-105051714D01*
X100520687Y-105448332D01*
X100520466Y-105701824D01*
X96169180Y-110053110D01*
X96151413Y-110045732D01*
X95620914Y-110045269D01*
X95130620Y-110247854D01*
X94755173Y-110622647D01*
X94614906Y-110960446D01*
X94476146Y-110624620D01*
X94101353Y-110249173D01*
X93611413Y-110045732D01*
X93080914Y-110045269D01*
X92590620Y-110247854D01*
X92215173Y-110622647D01*
X92074906Y-110960446D01*
X91936146Y-110624620D01*
X91561353Y-110249173D01*
X91071413Y-110045732D01*
X90540914Y-110045269D01*
X90050620Y-110247854D01*
X89675173Y-110622647D01*
X89534906Y-110960446D01*
X89396146Y-110624620D01*
X89021353Y-110249173D01*
X88531413Y-110045732D01*
X88000914Y-110045269D01*
X87604600Y-110209022D01*
X87604600Y-106426000D01*
X87548530Y-106144115D01*
X87388855Y-105905145D01*
X82131067Y-100647357D01*
X82560086Y-100647731D01*
X83050380Y-100445146D01*
X83425827Y-100070353D01*
X83566094Y-99732554D01*
X83704854Y-100068380D01*
X84079647Y-100443827D01*
X84569587Y-100647268D01*
X85100086Y-100647731D01*
X85590380Y-100445146D01*
X85965827Y-100070353D01*
X86106094Y-99732554D01*
X86244854Y-100068380D01*
X86619647Y-100443827D01*
X87109587Y-100647268D01*
X87640086Y-100647731D01*
X88130380Y-100445146D01*
X88505827Y-100070353D01*
X88646094Y-99732554D01*
X88784854Y-100068380D01*
X89159647Y-100443827D01*
X89649587Y-100647268D01*
X90180086Y-100647731D01*
X90670380Y-100445146D01*
X91045827Y-100070353D01*
X91186094Y-99732554D01*
X91324854Y-100068380D01*
X91699647Y-100443827D01*
X92189587Y-100647268D01*
X92720086Y-100647731D01*
X93210380Y-100445146D01*
X93585827Y-100070353D01*
X93726094Y-99732554D01*
X93864854Y-100068380D01*
X94239647Y-100443827D01*
X94285858Y-100463016D01*
X94315470Y-100611885D01*
X94475145Y-100850855D01*
X95694532Y-102070242D01*
X95694313Y-102321784D01*
X95858311Y-102718689D01*
X96161714Y-103022622D01*
X96558332Y-103187313D01*
X96987784Y-103187687D01*
X96993125Y-103185480D01*
X108636073Y-103185480D01*
X108664852Y-103715199D01*
X108812200Y-104070929D01*
X109047812Y-104132583D01*
X109802395Y-103378000D01*
X110161605Y-103378000D01*
X110916188Y-104132583D01*
X111151800Y-104070929D01*
X111327927Y-103570520D01*
X111299148Y-103040801D01*
X111151800Y-102685071D01*
X110916188Y-102623417D01*
X110161605Y-103378000D01*
X109802395Y-103378000D01*
X109047812Y-102623417D01*
X108812200Y-102685071D01*
X108636073Y-103185480D01*
X96993125Y-103185480D01*
X97384689Y-103023689D01*
X97688622Y-102720286D01*
X97853313Y-102323668D01*
X97853687Y-101894216D01*
X97689689Y-101497311D01*
X97386286Y-101193378D01*
X96989668Y-101028687D01*
X96736176Y-101028466D01*
X95951793Y-100244083D01*
X96125827Y-100070353D01*
X96266094Y-99732554D01*
X96404854Y-100068380D01*
X96779647Y-100443827D01*
X97269587Y-100647268D01*
X97800086Y-100647731D01*
X98290380Y-100445146D01*
X98665827Y-100070353D01*
X98730060Y-99915663D01*
X98730060Y-100012500D01*
X98774338Y-100247817D01*
X98913410Y-100463941D01*
X99125610Y-100608931D01*
X99377500Y-100659940D01*
X100774500Y-100659940D01*
X101009817Y-100615662D01*
X101225941Y-100476590D01*
X101370931Y-100264390D01*
X101421940Y-100012500D01*
X101421940Y-98615500D01*
X101377662Y-98380183D01*
X101238590Y-98164059D01*
X101026390Y-98019069D01*
X100774500Y-97968060D01*
X100678116Y-97968060D01*
X100830380Y-97905146D01*
X101205827Y-97530353D01*
X101409268Y-97040413D01*
X101409731Y-96509914D01*
X101207146Y-96019620D01*
X100832353Y-95644173D01*
X100494554Y-95503906D01*
X100830380Y-95365146D01*
X101205827Y-94990353D01*
X101409268Y-94500413D01*
X101409731Y-93969914D01*
X101207146Y-93479620D01*
X100832353Y-93104173D01*
X100510882Y-92970686D01*
X100768929Y-92863800D01*
X100830583Y-92628188D01*
X100076000Y-91873605D01*
X99321417Y-92628188D01*
X99383071Y-92863800D01*
X99662312Y-92962083D01*
X99321620Y-93102854D01*
X98946173Y-93477647D01*
X98742732Y-93967587D01*
X98742269Y-94498086D01*
X98944854Y-94988380D01*
X99319647Y-95363827D01*
X99657446Y-95504094D01*
X99321620Y-95642854D01*
X98946173Y-96017647D01*
X98742732Y-96507587D01*
X98742269Y-97038086D01*
X98944854Y-97528380D01*
X99319647Y-97903827D01*
X99474337Y-97968060D01*
X99377500Y-97968060D01*
X99142183Y-98012338D01*
X98926059Y-98151410D01*
X98781069Y-98363610D01*
X98730060Y-98615500D01*
X98730060Y-98711884D01*
X98667146Y-98559620D01*
X98292353Y-98184173D01*
X97802413Y-97980732D01*
X97271914Y-97980269D01*
X96781620Y-98182854D01*
X96406173Y-98557647D01*
X96265906Y-98895446D01*
X96127146Y-98559620D01*
X95752353Y-98184173D01*
X95262413Y-97980732D01*
X94731914Y-97980269D01*
X94241620Y-98182854D01*
X93866173Y-98557647D01*
X93725906Y-98895446D01*
X93587146Y-98559620D01*
X93212353Y-98184173D01*
X92722413Y-97980732D01*
X92191914Y-97980269D01*
X91701620Y-98182854D01*
X91326173Y-98557647D01*
X91185906Y-98895446D01*
X91047146Y-98559620D01*
X90672353Y-98184173D01*
X90182413Y-97980732D01*
X89651914Y-97980269D01*
X89161620Y-98182854D01*
X88786173Y-98557647D01*
X88645906Y-98895446D01*
X88507146Y-98559620D01*
X88132353Y-98184173D01*
X87642413Y-97980732D01*
X87111914Y-97980269D01*
X86621620Y-98182854D01*
X86246173Y-98557647D01*
X86105906Y-98895446D01*
X85967146Y-98559620D01*
X85592353Y-98184173D01*
X85102413Y-97980732D01*
X84571914Y-97980269D01*
X84081620Y-98182854D01*
X83706173Y-98557647D01*
X83565906Y-98895446D01*
X83427146Y-98559620D01*
X83052353Y-98184173D01*
X82562413Y-97980732D01*
X82031914Y-97980269D01*
X81762600Y-98091547D01*
X81762600Y-97536000D01*
X81706530Y-97254115D01*
X81597446Y-97090860D01*
X81597687Y-96814216D01*
X81433689Y-96417311D01*
X81130286Y-96113378D01*
X80733668Y-95948687D01*
X80304216Y-95948313D01*
X79907311Y-96112311D01*
X79603378Y-96415714D01*
X79438687Y-96812332D01*
X79438313Y-97241784D01*
X79602311Y-97638689D01*
X79905714Y-97942622D01*
X79997440Y-97980710D01*
X79491914Y-97980269D01*
X79001620Y-98182854D01*
X78626173Y-98557647D01*
X78485906Y-98895446D01*
X78347146Y-98559620D01*
X77972353Y-98184173D01*
X77482413Y-97980732D01*
X76951914Y-97980269D01*
X76461620Y-98182854D01*
X76086173Y-98557647D01*
X75945906Y-98895446D01*
X75807146Y-98559620D01*
X75432353Y-98184173D01*
X74942413Y-97980732D01*
X74411914Y-97980269D01*
X73921620Y-98182854D01*
X73546173Y-98557647D01*
X73405906Y-98895446D01*
X73267146Y-98559620D01*
X72892353Y-98184173D01*
X72402413Y-97980732D01*
X71871914Y-97980269D01*
X71381620Y-98182854D01*
X71006173Y-98557647D01*
X70865906Y-98895446D01*
X70727146Y-98559620D01*
X70352353Y-98184173D01*
X69862413Y-97980732D01*
X69331914Y-97980269D01*
X68841620Y-98182854D01*
X68466173Y-98557647D01*
X68389500Y-98742296D01*
X68389500Y-98489190D01*
X68292827Y-98255801D01*
X68114198Y-98077173D01*
X67880809Y-97980500D01*
X67341750Y-97980500D01*
X67183000Y-98139250D01*
X66929000Y-98139250D01*
X66770250Y-97980500D01*
X66231191Y-97980500D01*
X65997802Y-98077173D01*
X65819173Y-98255801D01*
X65722500Y-98489190D01*
X63779400Y-98489190D01*
X63779400Y-90578206D01*
X65584606Y-88773000D01*
X68072000Y-88773000D01*
X68121410Y-88762994D01*
X68161803Y-88735803D01*
X71450948Y-85446658D01*
X76949145Y-90944855D01*
X77188115Y-91104530D01*
X77470000Y-91160600D01*
X98850051Y-91160600D01*
X98730073Y-91501480D01*
X98758852Y-92031199D01*
X98906200Y-92386929D01*
X99141812Y-92448583D01*
X99896395Y-91694000D01*
X99882253Y-91679858D01*
X100061858Y-91500253D01*
X100076000Y-91514395D01*
X100090143Y-91500253D01*
X100269748Y-91679858D01*
X100255605Y-91694000D01*
X101010188Y-92448583D01*
X101245800Y-92386929D01*
X101313336Y-92195046D01*
X105943400Y-96825110D01*
X105943400Y-97536000D01*
X105999470Y-97817885D01*
X106159145Y-98056855D01*
X108656110Y-100553820D01*
X108648732Y-100571587D01*
X108648269Y-101102086D01*
X108850854Y-101592380D01*
X109225647Y-101967827D01*
X109547118Y-102101314D01*
X109289071Y-102208200D01*
X109227417Y-102443812D01*
X109982000Y-103198395D01*
X110736583Y-102443812D01*
X110674929Y-102208200D01*
X110395688Y-102109917D01*
X110736380Y-101969146D01*
X111111827Y-101594353D01*
X111315268Y-101104413D01*
X111315731Y-100573914D01*
X111113146Y-100083620D01*
X110738353Y-99708173D01*
X110400554Y-99567906D01*
X110736380Y-99429146D01*
X111111827Y-99054353D01*
X111315268Y-98564413D01*
X111315731Y-98033914D01*
X111113146Y-97543620D01*
X110738353Y-97168173D01*
X110583663Y-97103940D01*
X110680500Y-97103940D01*
X110915817Y-97059662D01*
X111131941Y-96920590D01*
X111276931Y-96708390D01*
X111327940Y-96456500D01*
X111327940Y-95059500D01*
X111283662Y-94824183D01*
X111144590Y-94608059D01*
X110932390Y-94463069D01*
X110680500Y-94412060D01*
X110584116Y-94412060D01*
X110736380Y-94349146D01*
X111111827Y-93974353D01*
X111315268Y-93484413D01*
X111315731Y-92953914D01*
X111113146Y-92463620D01*
X110738353Y-92088173D01*
X110400554Y-91947906D01*
X110736380Y-91809146D01*
X111111827Y-91434353D01*
X111120029Y-91414600D01*
X113994890Y-91414600D01*
X117081145Y-94500855D01*
X117320115Y-94660530D01*
X117602000Y-94716600D01*
X123321507Y-94716600D01*
X123328854Y-94734380D01*
X123703647Y-95109827D01*
X123858337Y-95174060D01*
X123761500Y-95174060D01*
X123526183Y-95218338D01*
X123310059Y-95357410D01*
X123165069Y-95569610D01*
X123114060Y-95821500D01*
X123114060Y-97218500D01*
X123158338Y-97453817D01*
X123297410Y-97669941D01*
X123509610Y-97814931D01*
X123761500Y-97865940D01*
X125158500Y-97865940D01*
X125393817Y-97821662D01*
X125609941Y-97682590D01*
X125754931Y-97470390D01*
X125801088Y-97242460D01*
X126011885Y-97200530D01*
X126250855Y-97040855D01*
X127266855Y-96024855D01*
X127426530Y-95785885D01*
X127482600Y-95504000D01*
X127482600Y-86878086D01*
X128714269Y-86878086D01*
X128916854Y-87368380D01*
X129291647Y-87743827D01*
X129629446Y-87884094D01*
X129293620Y-88022854D01*
X128918173Y-88397647D01*
X128714732Y-88887587D01*
X128714269Y-89418086D01*
X128916854Y-89908380D01*
X129291647Y-90283827D01*
X129629446Y-90424094D01*
X129293620Y-90562854D01*
X128918173Y-90937647D01*
X128714732Y-91427587D01*
X128714269Y-91958086D01*
X128916854Y-92448380D01*
X129291647Y-92823827D01*
X129629446Y-92964094D01*
X129293620Y-93102854D01*
X128918173Y-93477647D01*
X128714732Y-93967587D01*
X128714269Y-94498086D01*
X128916854Y-94988380D01*
X129291647Y-95363827D01*
X129629446Y-95504094D01*
X129293620Y-95642854D01*
X128918173Y-96017647D01*
X128714732Y-96507587D01*
X128714269Y-97038086D01*
X128916854Y-97528380D01*
X129291647Y-97903827D01*
X129629446Y-98044094D01*
X129293620Y-98182854D01*
X128918173Y-98557647D01*
X128714732Y-99047587D01*
X128714269Y-99578086D01*
X128916854Y-100068380D01*
X129291647Y-100443827D01*
X129629446Y-100584094D01*
X129293620Y-100722854D01*
X128918173Y-101097647D01*
X128714732Y-101587587D01*
X128714269Y-102118086D01*
X128916854Y-102608380D01*
X129291647Y-102983827D01*
X129613118Y-103117314D01*
X129355071Y-103224200D01*
X129293417Y-103459812D01*
X130048000Y-104214395D01*
X130802583Y-103459812D01*
X130740929Y-103224200D01*
X130461688Y-103125917D01*
X130802380Y-102985146D01*
X131177827Y-102610353D01*
X131381268Y-102120413D01*
X131381731Y-101589914D01*
X131179146Y-101099620D01*
X130804353Y-100724173D01*
X130466554Y-100583906D01*
X130802380Y-100445146D01*
X131177827Y-100070353D01*
X131381268Y-99580413D01*
X131381731Y-99049914D01*
X131179146Y-98559620D01*
X130804353Y-98184173D01*
X130466554Y-98043906D01*
X130802380Y-97905146D01*
X131177827Y-97530353D01*
X131381268Y-97040413D01*
X131381731Y-96509914D01*
X131179146Y-96019620D01*
X130804353Y-95644173D01*
X130466554Y-95503906D01*
X130802380Y-95365146D01*
X131177827Y-94990353D01*
X131381268Y-94500413D01*
X131381731Y-93969914D01*
X131179146Y-93479620D01*
X130804353Y-93104173D01*
X130466554Y-92963906D01*
X130802380Y-92825146D01*
X131177827Y-92450353D01*
X131381268Y-91960413D01*
X131381731Y-91429914D01*
X131179146Y-90939620D01*
X130804353Y-90564173D01*
X130466554Y-90423906D01*
X130802380Y-90285146D01*
X131177827Y-89910353D01*
X131381268Y-89420413D01*
X131381731Y-88889914D01*
X131179146Y-88399620D01*
X130804353Y-88024173D01*
X130466554Y-87883906D01*
X130802380Y-87745146D01*
X131177827Y-87370353D01*
X131381268Y-86880413D01*
X131381731Y-86349914D01*
X131179146Y-85859620D01*
X130804353Y-85484173D01*
X130314413Y-85280732D01*
X129783914Y-85280269D01*
X129293620Y-85482854D01*
X128918173Y-85857647D01*
X128714732Y-86347587D01*
X128714269Y-86878086D01*
X127482600Y-86878086D01*
X127482600Y-85879998D01*
X127660622Y-85702286D01*
X127825313Y-85305668D01*
X127825687Y-84876216D01*
X127661689Y-84479311D01*
X127358286Y-84175378D01*
X126961668Y-84010687D01*
X126532216Y-84010313D01*
X126135311Y-84174311D01*
X125831378Y-84477714D01*
X125666687Y-84874332D01*
X125666313Y-85303784D01*
X125830311Y-85700689D01*
X126009400Y-85880091D01*
X126009400Y-95198890D01*
X125707021Y-95501269D01*
X125622590Y-95370059D01*
X125410390Y-95225069D01*
X125158500Y-95174060D01*
X125062116Y-95174060D01*
X125214380Y-95111146D01*
X125589827Y-94736353D01*
X125793268Y-94246413D01*
X125793731Y-93715914D01*
X125591146Y-93225620D01*
X125216353Y-92850173D01*
X124878554Y-92709906D01*
X125214380Y-92571146D01*
X125589827Y-92196353D01*
X125793268Y-91706413D01*
X125793731Y-91175914D01*
X125591146Y-90685620D01*
X125216353Y-90310173D01*
X124878554Y-90169906D01*
X125214380Y-90031146D01*
X125589827Y-89656353D01*
X125793268Y-89166413D01*
X125793731Y-88635914D01*
X125591146Y-88145620D01*
X125216353Y-87770173D01*
X124878554Y-87629906D01*
X125214380Y-87491146D01*
X125589827Y-87116353D01*
X125793268Y-86626413D01*
X125793731Y-86095914D01*
X125591146Y-85605620D01*
X125216353Y-85230173D01*
X124726413Y-85026732D01*
X124195914Y-85026269D01*
X123705620Y-85228854D01*
X123330173Y-85603647D01*
X123126732Y-86093587D01*
X123126269Y-86624086D01*
X123328854Y-87114380D01*
X123703647Y-87489827D01*
X124041446Y-87630094D01*
X123705620Y-87768854D01*
X123330173Y-88143647D01*
X123126732Y-88633587D01*
X123126269Y-89164086D01*
X123328854Y-89654380D01*
X123703647Y-90029827D01*
X124041446Y-90170094D01*
X123705620Y-90308854D01*
X123330173Y-90683647D01*
X123126732Y-91173587D01*
X123126269Y-91704086D01*
X123328854Y-92194380D01*
X123703647Y-92569827D01*
X124041446Y-92710094D01*
X123705620Y-92848854D01*
X123330173Y-93223647D01*
X123321971Y-93243400D01*
X117907110Y-93243400D01*
X114820855Y-90157145D01*
X114581885Y-89997470D01*
X114300000Y-89941400D01*
X111120493Y-89941400D01*
X111113146Y-89923620D01*
X110738353Y-89548173D01*
X110400554Y-89407906D01*
X110736380Y-89269146D01*
X111111827Y-88894353D01*
X111315268Y-88404413D01*
X111315731Y-87873914D01*
X111113146Y-87383620D01*
X110738353Y-87008173D01*
X110248413Y-86804732D01*
X109717914Y-86804269D01*
X109227620Y-87006854D01*
X108852173Y-87381647D01*
X108648732Y-87871587D01*
X108648269Y-88402086D01*
X108850854Y-88892380D01*
X109225647Y-89267827D01*
X109563446Y-89408094D01*
X109227620Y-89546854D01*
X108852173Y-89921647D01*
X108648732Y-90411587D01*
X108648269Y-90942086D01*
X108850854Y-91432380D01*
X109225647Y-91807827D01*
X109563446Y-91948094D01*
X109227620Y-92086854D01*
X108852173Y-92461647D01*
X108648732Y-92951587D01*
X108648356Y-93382646D01*
X107670600Y-92404890D01*
X107670600Y-90932000D01*
X107614530Y-90650115D01*
X107454855Y-90411145D01*
X101401890Y-84358180D01*
X101409268Y-84340413D01*
X101409731Y-83809914D01*
X101207146Y-83319620D01*
X100832353Y-82944173D01*
X100342413Y-82740732D01*
X99811914Y-82740269D01*
X99321620Y-82942854D01*
X98946173Y-83317647D01*
X98742732Y-83807587D01*
X98742269Y-84338086D01*
X98944854Y-84828380D01*
X99319647Y-85203827D01*
X99657446Y-85344094D01*
X99321620Y-85482854D01*
X98946173Y-85857647D01*
X98742732Y-86347587D01*
X98742269Y-86878086D01*
X98944854Y-87368380D01*
X99319647Y-87743827D01*
X99657446Y-87884094D01*
X99321620Y-88022854D01*
X98946173Y-88397647D01*
X98742732Y-88887587D01*
X98742269Y-89418086D01*
X98853547Y-89687400D01*
X77775110Y-89687400D01*
X72804841Y-84717131D01*
X72898094Y-84492554D01*
X73036854Y-84828380D01*
X73411647Y-85203827D01*
X73901587Y-85407268D01*
X74432086Y-85407731D01*
X74922380Y-85205146D01*
X75297827Y-84830353D01*
X75438094Y-84492554D01*
X75576854Y-84828380D01*
X75951647Y-85203827D01*
X76441587Y-85407268D01*
X76972086Y-85407731D01*
X77462380Y-85205146D01*
X77837827Y-84830353D01*
X77978094Y-84492554D01*
X78116854Y-84828380D01*
X78491647Y-85203827D01*
X78981587Y-85407268D01*
X79512086Y-85407731D01*
X80002380Y-85205146D01*
X80377827Y-84830353D01*
X80518094Y-84492554D01*
X80656854Y-84828380D01*
X81031647Y-85203827D01*
X81521587Y-85407268D01*
X82052086Y-85407731D01*
X82542380Y-85205146D01*
X82917827Y-84830353D01*
X83058094Y-84492554D01*
X83196854Y-84828380D01*
X83571647Y-85203827D01*
X84061587Y-85407268D01*
X84592086Y-85407731D01*
X85082380Y-85205146D01*
X85457827Y-84830353D01*
X85598094Y-84492554D01*
X85736854Y-84828380D01*
X86111647Y-85203827D01*
X86601587Y-85407268D01*
X87132086Y-85407731D01*
X87622380Y-85205146D01*
X87997827Y-84830353D01*
X88138094Y-84492554D01*
X88276854Y-84828380D01*
X88651647Y-85203827D01*
X89141587Y-85407268D01*
X89672086Y-85407731D01*
X90162380Y-85205146D01*
X90537827Y-84830353D01*
X90678094Y-84492554D01*
X90816854Y-84828380D01*
X91191647Y-85203827D01*
X91681587Y-85407268D01*
X92212086Y-85407731D01*
X92702380Y-85205146D01*
X93077827Y-84830353D01*
X93218094Y-84492554D01*
X93356854Y-84828380D01*
X93731647Y-85203827D01*
X94221587Y-85407268D01*
X94752086Y-85407731D01*
X95242380Y-85205146D01*
X95617827Y-84830353D01*
X95682060Y-84675663D01*
X95682060Y-84772500D01*
X95726338Y-85007817D01*
X95865410Y-85223941D01*
X96077610Y-85368931D01*
X96329500Y-85419940D01*
X97726500Y-85419940D01*
X97961817Y-85375662D01*
X98177941Y-85236590D01*
X98322931Y-85024390D01*
X98373940Y-84772500D01*
X98373940Y-83375500D01*
X98329662Y-83140183D01*
X98190590Y-82924059D01*
X97978390Y-82779069D01*
X97726500Y-82728060D01*
X96329500Y-82728060D01*
X96094183Y-82772338D01*
X95878059Y-82911410D01*
X95733069Y-83123610D01*
X95682060Y-83375500D01*
X95682060Y-83471884D01*
X95619146Y-83319620D01*
X95244353Y-82944173D01*
X94754413Y-82740732D01*
X94223914Y-82740269D01*
X93733620Y-82942854D01*
X93358173Y-83317647D01*
X93217906Y-83655446D01*
X93079146Y-83319620D01*
X92704353Y-82944173D01*
X92214413Y-82740732D01*
X91683914Y-82740269D01*
X91193620Y-82942854D01*
X90818173Y-83317647D01*
X90677906Y-83655446D01*
X90539146Y-83319620D01*
X90164353Y-82944173D01*
X89674413Y-82740732D01*
X89143914Y-82740269D01*
X88653620Y-82942854D01*
X88278173Y-83317647D01*
X88137906Y-83655446D01*
X87999146Y-83319620D01*
X87624353Y-82944173D01*
X87134413Y-82740732D01*
X86603914Y-82740269D01*
X86113620Y-82942854D01*
X85738173Y-83317647D01*
X85597906Y-83655446D01*
X85459146Y-83319620D01*
X85084353Y-82944173D01*
X84594413Y-82740732D01*
X84063914Y-82740269D01*
X83573620Y-82942854D01*
X83198173Y-83317647D01*
X83057906Y-83655446D01*
X82919146Y-83319620D01*
X82544353Y-82944173D01*
X82054413Y-82740732D01*
X81523914Y-82740269D01*
X81033620Y-82942854D01*
X80658173Y-83317647D01*
X80517906Y-83655446D01*
X80379146Y-83319620D01*
X80004353Y-82944173D01*
X79514413Y-82740732D01*
X78983914Y-82740269D01*
X78493620Y-82942854D01*
X78118173Y-83317647D01*
X77977906Y-83655446D01*
X77839146Y-83319620D01*
X77464353Y-82944173D01*
X76974413Y-82740732D01*
X76443914Y-82740269D01*
X75953620Y-82942854D01*
X75578173Y-83317647D01*
X75437906Y-83655446D01*
X75299146Y-83319620D01*
X74924353Y-82944173D01*
X74434413Y-82740732D01*
X73903914Y-82740269D01*
X73413620Y-82942854D01*
X73279000Y-83077240D01*
X73279000Y-72188606D01*
X74474606Y-70993000D01*
X103632000Y-70993000D01*
X103681410Y-70982994D01*
X103721803Y-70955803D01*
X111341803Y-63335803D01*
X111369666Y-63293789D01*
X111379000Y-63246000D01*
X111379000Y-40438606D01*
X113184206Y-38633400D01*
X148689794Y-38633400D01*
X150494878Y-40438484D01*
X150494878Y-40438484D01*
G37*
X150494878Y-40438484D02*
X150373134Y-93041892D01*
X135416824Y-106004027D01*
X135386038Y-106043949D01*
X135373000Y-106100000D01*
X135373000Y-132044456D01*
X131839526Y-135311459D01*
X131889500Y-135190810D01*
X131889500Y-134651750D01*
X131730750Y-134493000D01*
X130683000Y-134493000D01*
X130683000Y-135540750D01*
X130841750Y-135699500D01*
X131380809Y-135699500D01*
X131451506Y-135670216D01*
X130966550Y-136118600D01*
X68919354Y-136118600D01*
X69627586Y-135411603D01*
X70040455Y-134417305D01*
X70040269Y-134630086D01*
X70242854Y-135120380D01*
X70617647Y-135495827D01*
X71107587Y-135699268D01*
X71638086Y-135699731D01*
X72128380Y-135497146D01*
X72503827Y-135122353D01*
X72644094Y-134784554D01*
X72782854Y-135120380D01*
X73157647Y-135495827D01*
X73647587Y-135699268D01*
X74178086Y-135699731D01*
X74668380Y-135497146D01*
X75043827Y-135122353D01*
X75184094Y-134784554D01*
X75322854Y-135120380D01*
X75697647Y-135495827D01*
X76187587Y-135699268D01*
X76718086Y-135699731D01*
X77208380Y-135497146D01*
X77583827Y-135122353D01*
X77660500Y-134937704D01*
X77660500Y-135190810D01*
X77757173Y-135424199D01*
X77935802Y-135602827D01*
X78169191Y-135699500D01*
X78708250Y-135699500D01*
X78867000Y-135540750D01*
X78867000Y-134493000D01*
X79121000Y-134493000D01*
X79121000Y-135540750D01*
X79279750Y-135699500D01*
X79818809Y-135699500D01*
X80052198Y-135602827D01*
X80230827Y-135424199D01*
X80327500Y-135190810D01*
X80327500Y-134651750D01*
X80305836Y-134630086D01*
X83502269Y-134630086D01*
X83704854Y-135120380D01*
X84079647Y-135495827D01*
X84569587Y-135699268D01*
X85100086Y-135699731D01*
X85590380Y-135497146D01*
X85965827Y-135122353D01*
X86106094Y-134784554D01*
X86244854Y-135120380D01*
X86619647Y-135495827D01*
X87109587Y-135699268D01*
X87640086Y-135699731D01*
X88130380Y-135497146D01*
X88505827Y-135122353D01*
X88646094Y-134784554D01*
X88784854Y-135120380D01*
X89159647Y-135495827D01*
X89649587Y-135699268D01*
X90180086Y-135699731D01*
X90670380Y-135497146D01*
X91045827Y-135122353D01*
X91122500Y-134937704D01*
X91122500Y-135190810D01*
X91219173Y-135424199D01*
X91397802Y-135602827D01*
X91631191Y-135699500D01*
X92170250Y-135699500D01*
X92329000Y-135540750D01*
X92329000Y-134493000D01*
X92583000Y-134493000D01*
X92583000Y-135540750D01*
X92741750Y-135699500D01*
X93280809Y-135699500D01*
X93514198Y-135602827D01*
X93692827Y-135424199D01*
X93789500Y-135190810D01*
X93789500Y-134651750D01*
X93767836Y-134630086D01*
X96202269Y-134630086D01*
X96404854Y-135120380D01*
X96779647Y-135495827D01*
X97269587Y-135699268D01*
X97800086Y-135699731D01*
X98290380Y-135497146D01*
X98665827Y-135122353D01*
X98806094Y-134784554D01*
X98944854Y-135120380D01*
X99319647Y-135495827D01*
X99809587Y-135699268D01*
X100340086Y-135699731D01*
X100830380Y-135497146D01*
X101205827Y-135122353D01*
X101346094Y-134784554D01*
X101484854Y-135120380D01*
X101859647Y-135495827D01*
X102349587Y-135699268D01*
X102880086Y-135699731D01*
X103370380Y-135497146D01*
X103745827Y-135122353D01*
X103822500Y-134937704D01*
X103822500Y-135190810D01*
X103919173Y-135424199D01*
X104097802Y-135602827D01*
X104331191Y-135699500D01*
X104870250Y-135699500D01*
X105029000Y-135540750D01*
X105029000Y-134493000D01*
X105283000Y-134493000D01*
X105283000Y-135540750D01*
X105441750Y-135699500D01*
X105980809Y-135699500D01*
X106214198Y-135602827D01*
X106392827Y-135424199D01*
X106489500Y-135190810D01*
X106489500Y-134651750D01*
X106467836Y-134630086D01*
X108902269Y-134630086D01*
X109104854Y-135120380D01*
X109479647Y-135495827D01*
X109969587Y-135699268D01*
X110500086Y-135699731D01*
X110990380Y-135497146D01*
X111365827Y-135122353D01*
X111506094Y-134784554D01*
X111644854Y-135120380D01*
X112019647Y-135495827D01*
X112509587Y-135699268D01*
X113040086Y-135699731D01*
X113530380Y-135497146D01*
X113905827Y-135122353D01*
X114046094Y-134784554D01*
X114184854Y-135120380D01*
X114559647Y-135495827D01*
X115049587Y-135699268D01*
X115580086Y-135699731D01*
X116070380Y-135497146D01*
X116445827Y-135122353D01*
X116522500Y-134937704D01*
X116522500Y-135190810D01*
X116619173Y-135424199D01*
X116797802Y-135602827D01*
X117031191Y-135699500D01*
X117570250Y-135699500D01*
X117729000Y-135540750D01*
X117729000Y-134493000D01*
X117983000Y-134493000D01*
X117983000Y-135540750D01*
X118141750Y-135699500D01*
X118680809Y-135699500D01*
X118914198Y-135602827D01*
X119092827Y-135424199D01*
X119189500Y-135190810D01*
X119189500Y-134651750D01*
X119167836Y-134630086D01*
X121602269Y-134630086D01*
X121804854Y-135120380D01*
X122179647Y-135495827D01*
X122669587Y-135699268D01*
X123200086Y-135699731D01*
X123690380Y-135497146D01*
X124065827Y-135122353D01*
X124206094Y-134784554D01*
X124344854Y-135120380D01*
X124719647Y-135495827D01*
X125209587Y-135699268D01*
X125740086Y-135699731D01*
X126230380Y-135497146D01*
X126605827Y-135122353D01*
X126746094Y-134784554D01*
X126884854Y-135120380D01*
X127259647Y-135495827D01*
X127749587Y-135699268D01*
X128280086Y-135699731D01*
X128770380Y-135497146D01*
X129145827Y-135122353D01*
X129222500Y-134937704D01*
X129222500Y-135190810D01*
X129319173Y-135424199D01*
X129497802Y-135602827D01*
X129731191Y-135699500D01*
X130270250Y-135699500D01*
X130429000Y-135540750D01*
X130429000Y-134493000D01*
X130409000Y-134493000D01*
X130409000Y-134239000D01*
X130429000Y-134239000D01*
X130429000Y-133191250D01*
X130683000Y-133191250D01*
X130683000Y-134239000D01*
X131730750Y-134239000D01*
X131889500Y-134080250D01*
X131889500Y-133541190D01*
X131792827Y-133307801D01*
X131614198Y-133129173D01*
X131380809Y-133032500D01*
X130841750Y-133032500D01*
X130683000Y-133191250D01*
X130429000Y-133191250D01*
X130270250Y-133032500D01*
X129731191Y-133032500D01*
X129497802Y-133129173D01*
X129319173Y-133307801D01*
X129222500Y-133541190D01*
X129222500Y-133793991D01*
X129147146Y-133611620D01*
X128772353Y-133236173D01*
X128282413Y-133032732D01*
X127751914Y-133032269D01*
X127261620Y-133234854D01*
X126886173Y-133609647D01*
X126745906Y-133947446D01*
X126607146Y-133611620D01*
X126232353Y-133236173D01*
X125742413Y-133032732D01*
X125211914Y-133032269D01*
X124721620Y-133234854D01*
X124346173Y-133609647D01*
X124205906Y-133947446D01*
X124067146Y-133611620D01*
X123692353Y-133236173D01*
X123202413Y-133032732D01*
X122671914Y-133032269D01*
X122181620Y-133234854D01*
X121806173Y-133609647D01*
X121602732Y-134099587D01*
X121602269Y-134630086D01*
X119167836Y-134630086D01*
X119030750Y-134493000D01*
X117983000Y-134493000D01*
X117729000Y-134493000D01*
X117709000Y-134493000D01*
X117709000Y-134239000D01*
X117729000Y-134239000D01*
X117729000Y-133191250D01*
X117983000Y-133191250D01*
X117983000Y-134239000D01*
X119030750Y-134239000D01*
X119189500Y-134080250D01*
X119189500Y-133541190D01*
X119092827Y-133307801D01*
X118914198Y-133129173D01*
X118680809Y-133032500D01*
X118141750Y-133032500D01*
X117983000Y-133191250D01*
X117729000Y-133191250D01*
X117570250Y-133032500D01*
X117031191Y-133032500D01*
X116797802Y-133129173D01*
X116619173Y-133307801D01*
X116522500Y-133541190D01*
X116522500Y-133793991D01*
X116447146Y-133611620D01*
X116072353Y-133236173D01*
X115582413Y-133032732D01*
X115051914Y-133032269D01*
X114561620Y-133234854D01*
X114186173Y-133609647D01*
X114045906Y-133947446D01*
X113907146Y-133611620D01*
X113532353Y-133236173D01*
X113042413Y-133032732D01*
X112511914Y-133032269D01*
X112021620Y-133234854D01*
X111646173Y-133609647D01*
X111505906Y-133947446D01*
X111367146Y-133611620D01*
X110992353Y-133236173D01*
X110502413Y-133032732D01*
X109971914Y-133032269D01*
X109481620Y-133234854D01*
X109106173Y-133609647D01*
X108902732Y-134099587D01*
X108902269Y-134630086D01*
X106467836Y-134630086D01*
X106330750Y-134493000D01*
X105283000Y-134493000D01*
X105029000Y-134493000D01*
X105009000Y-134493000D01*
X105009000Y-134239000D01*
X105029000Y-134239000D01*
X105029000Y-133191250D01*
X105283000Y-133191250D01*
X105283000Y-134239000D01*
X106330750Y-134239000D01*
X106489500Y-134080250D01*
X106489500Y-133541190D01*
X106392827Y-133307801D01*
X106214198Y-133129173D01*
X105980809Y-133032500D01*
X105441750Y-133032500D01*
X105283000Y-133191250D01*
X105029000Y-133191250D01*
X104870250Y-133032500D01*
X104331191Y-133032500D01*
X104097802Y-133129173D01*
X103919173Y-133307801D01*
X103822500Y-133541190D01*
X103822500Y-133793991D01*
X103747146Y-133611620D01*
X103372353Y-133236173D01*
X102882413Y-133032732D01*
X102351914Y-133032269D01*
X101861620Y-133234854D01*
X101486173Y-133609647D01*
X101345906Y-133947446D01*
X101207146Y-133611620D01*
X100832353Y-133236173D01*
X100342413Y-133032732D01*
X99811914Y-133032269D01*
X99321620Y-133234854D01*
X98946173Y-133609647D01*
X98805906Y-133947446D01*
X98667146Y-133611620D01*
X98292353Y-133236173D01*
X97802413Y-133032732D01*
X97271914Y-133032269D01*
X96781620Y-133234854D01*
X96406173Y-133609647D01*
X96202732Y-134099587D01*
X96202269Y-134630086D01*
X93767836Y-134630086D01*
X93630750Y-134493000D01*
X92583000Y-134493000D01*
X92329000Y-134493000D01*
X92309000Y-134493000D01*
X92309000Y-134239000D01*
X92329000Y-134239000D01*
X92329000Y-133191250D01*
X92583000Y-133191250D01*
X92583000Y-134239000D01*
X93630750Y-134239000D01*
X93789500Y-134080250D01*
X93789500Y-133541190D01*
X93692827Y-133307801D01*
X93514198Y-133129173D01*
X93280809Y-133032500D01*
X92741750Y-133032500D01*
X92583000Y-133191250D01*
X92329000Y-133191250D01*
X92170250Y-133032500D01*
X91631191Y-133032500D01*
X91397802Y-133129173D01*
X91219173Y-133307801D01*
X91122500Y-133541190D01*
X91122500Y-133793991D01*
X91047146Y-133611620D01*
X90672353Y-133236173D01*
X90182413Y-133032732D01*
X89651914Y-133032269D01*
X89161620Y-133234854D01*
X88786173Y-133609647D01*
X88645906Y-133947446D01*
X88507146Y-133611620D01*
X88132353Y-133236173D01*
X87642413Y-133032732D01*
X87111914Y-133032269D01*
X86621620Y-133234854D01*
X86246173Y-133609647D01*
X86105906Y-133947446D01*
X85967146Y-133611620D01*
X85592353Y-133236173D01*
X85102413Y-133032732D01*
X84571914Y-133032269D01*
X84081620Y-133234854D01*
X83706173Y-133609647D01*
X83502732Y-134099587D01*
X83502269Y-134630086D01*
X80305836Y-134630086D01*
X80168750Y-134493000D01*
X79121000Y-134493000D01*
X78867000Y-134493000D01*
X78847000Y-134493000D01*
X78847000Y-134239000D01*
X78867000Y-134239000D01*
X78867000Y-133191250D01*
X79121000Y-133191250D01*
X79121000Y-134239000D01*
X80168750Y-134239000D01*
X80327500Y-134080250D01*
X80327500Y-133541190D01*
X80230827Y-133307801D01*
X80052198Y-133129173D01*
X79818809Y-133032500D01*
X79279750Y-133032500D01*
X79121000Y-133191250D01*
X78867000Y-133191250D01*
X78708250Y-133032500D01*
X78169191Y-133032500D01*
X77935802Y-133129173D01*
X77757173Y-133307801D01*
X77660500Y-133541190D01*
X77660500Y-133793991D01*
X77585146Y-133611620D01*
X77210353Y-133236173D01*
X76720413Y-133032732D01*
X76189914Y-133032269D01*
X75699620Y-133234854D01*
X75324173Y-133609647D01*
X75183906Y-133947446D01*
X75045146Y-133611620D01*
X74670353Y-133236173D01*
X74180413Y-133032732D01*
X73649914Y-133032269D01*
X73159620Y-133234854D01*
X72784173Y-133609647D01*
X72643906Y-133947446D01*
X72505146Y-133611620D01*
X72130353Y-133236173D01*
X72110600Y-133227971D01*
X72110600Y-126289110D01*
X72860242Y-125539468D01*
X73111784Y-125539687D01*
X73508689Y-125375689D01*
X73812622Y-125072286D01*
X73977313Y-124675668D01*
X73977687Y-124246216D01*
X73813689Y-123849311D01*
X73510286Y-123545378D01*
X73113668Y-123380687D01*
X72684216Y-123380313D01*
X72287311Y-123544311D01*
X71983378Y-123847714D01*
X71818687Y-124244332D01*
X71818466Y-124497824D01*
X70853145Y-125463145D01*
X70693470Y-125702115D01*
X70637400Y-125984000D01*
X70637400Y-133227507D01*
X70619620Y-133234854D01*
X70244173Y-133609647D01*
X70182385Y-133758448D01*
X70183370Y-132630177D01*
X69631180Y-131293775D01*
X68609603Y-130270414D01*
X67274166Y-129715892D01*
X65828177Y-129714630D01*
X64491775Y-130266820D01*
X63779400Y-130977953D01*
X63779400Y-119951500D01*
X79426060Y-119951500D01*
X79426060Y-121348500D01*
X79470338Y-121583817D01*
X79609410Y-121799941D01*
X79821610Y-121944931D01*
X80073500Y-121995940D01*
X81470500Y-121995940D01*
X81705817Y-121951662D01*
X81921941Y-121812590D01*
X82066931Y-121600390D01*
X82117940Y-121348500D01*
X82117940Y-121252116D01*
X82180854Y-121404380D01*
X82555647Y-121779827D01*
X83045587Y-121983268D01*
X83576086Y-121983731D01*
X84066380Y-121781146D01*
X84441827Y-121406353D01*
X84582094Y-121068554D01*
X84720854Y-121404380D01*
X85095647Y-121779827D01*
X85585587Y-121983268D01*
X86116086Y-121983731D01*
X86606380Y-121781146D01*
X86981827Y-121406353D01*
X87122094Y-121068554D01*
X87260854Y-121404380D01*
X87635647Y-121779827D01*
X88125587Y-121983268D01*
X88656086Y-121983731D01*
X89146380Y-121781146D01*
X89343681Y-121584188D01*
X90177417Y-121584188D01*
X90239071Y-121819800D01*
X90739480Y-121995927D01*
X91269199Y-121967148D01*
X91624929Y-121819800D01*
X91686583Y-121584188D01*
X90932000Y-120829605D01*
X90177417Y-121584188D01*
X89343681Y-121584188D01*
X89521827Y-121406353D01*
X89655314Y-121084882D01*
X89762200Y-121342929D01*
X89997812Y-121404583D01*
X90752395Y-120650000D01*
X91111605Y-120650000D01*
X91866188Y-121404583D01*
X92101800Y-121342929D01*
X92277927Y-120842520D01*
X92249148Y-120312801D01*
X92101800Y-119957071D01*
X91866188Y-119895417D01*
X91111605Y-120650000D01*
X90752395Y-120650000D01*
X89997812Y-119895417D01*
X89762200Y-119957071D01*
X89663917Y-120236312D01*
X89523146Y-119895620D01*
X89343652Y-119715812D01*
X90177417Y-119715812D01*
X90932000Y-120470395D01*
X91686583Y-119715812D01*
X91624929Y-119480200D01*
X91124520Y-119304073D01*
X90594801Y-119332852D01*
X90239071Y-119480200D01*
X90177417Y-119715812D01*
X89343652Y-119715812D01*
X89148353Y-119520173D01*
X88658413Y-119316732D01*
X88127914Y-119316269D01*
X87637620Y-119518854D01*
X87262173Y-119893647D01*
X87121906Y-120231446D01*
X86983146Y-119895620D01*
X86608353Y-119520173D01*
X86118413Y-119316732D01*
X85587914Y-119316269D01*
X85097620Y-119518854D01*
X84722173Y-119893647D01*
X84581906Y-120231446D01*
X84443146Y-119895620D01*
X84068353Y-119520173D01*
X83578413Y-119316732D01*
X83047914Y-119316269D01*
X82557620Y-119518854D01*
X82182173Y-119893647D01*
X82117940Y-120048337D01*
X82117940Y-119951500D01*
X82073662Y-119716183D01*
X81934590Y-119500059D01*
X81722390Y-119355069D01*
X81470500Y-119304060D01*
X80073500Y-119304060D01*
X79838183Y-119348338D01*
X79622059Y-119487410D01*
X79477069Y-119699610D01*
X79426060Y-119951500D01*
X63779400Y-119951500D01*
X63779400Y-111897086D01*
X71691269Y-111897086D01*
X71893854Y-112387380D01*
X72268647Y-112762827D01*
X72606446Y-112903094D01*
X72270620Y-113041854D01*
X71895173Y-113416647D01*
X71691732Y-113906587D01*
X71691269Y-114437086D01*
X71893854Y-114927380D01*
X72268647Y-115302827D01*
X72606446Y-115443094D01*
X72270620Y-115581854D01*
X71895173Y-115956647D01*
X71691732Y-116446587D01*
X71691269Y-116977086D01*
X71893854Y-117467380D01*
X72268647Y-117842827D01*
X72758587Y-118046268D01*
X73289086Y-118046731D01*
X73779380Y-117844146D01*
X74154827Y-117469353D01*
X74358268Y-116979413D01*
X74358731Y-116448914D01*
X74156146Y-115958620D01*
X73781353Y-115583173D01*
X73443554Y-115442906D01*
X73779380Y-115304146D01*
X74154827Y-114929353D01*
X74358268Y-114439413D01*
X74358731Y-113908914D01*
X74156146Y-113418620D01*
X73781353Y-113043173D01*
X73443554Y-112902906D01*
X73779380Y-112764146D01*
X74154827Y-112389353D01*
X74358268Y-111899413D01*
X74358731Y-111368914D01*
X74156146Y-110878620D01*
X73781353Y-110503173D01*
X73596704Y-110426500D01*
X73849810Y-110426500D01*
X74083199Y-110329827D01*
X74261827Y-110151198D01*
X74358500Y-109917809D01*
X74358500Y-109378750D01*
X74199750Y-109220000D01*
X73152000Y-109220000D01*
X73152000Y-109240000D01*
X72898000Y-109240000D01*
X72898000Y-109220000D01*
X71850250Y-109220000D01*
X71691500Y-109378750D01*
X71691500Y-109917809D01*
X71788173Y-110151198D01*
X71966801Y-110329827D01*
X72200190Y-110426500D01*
X72452991Y-110426500D01*
X72270620Y-110501854D01*
X71895173Y-110876647D01*
X71691732Y-111366587D01*
X71691269Y-111897086D01*
X63779400Y-111897086D01*
X63779400Y-108268191D01*
X71691500Y-108268191D01*
X71691500Y-108807250D01*
X71850250Y-108966000D01*
X72898000Y-108966000D01*
X72898000Y-107918250D01*
X73152000Y-107918250D01*
X73152000Y-108966000D01*
X74199750Y-108966000D01*
X74358500Y-108807250D01*
X74358500Y-108268191D01*
X74261827Y-108034802D01*
X74083199Y-107856173D01*
X73849810Y-107759500D01*
X73310750Y-107759500D01*
X73152000Y-107918250D01*
X72898000Y-107918250D01*
X72739250Y-107759500D01*
X72200190Y-107759500D01*
X71966801Y-107856173D01*
X71788173Y-108034802D01*
X71691500Y-108268191D01*
X63779400Y-108268191D01*
X63779400Y-99599750D01*
X65722500Y-99599750D01*
X65722500Y-100138810D01*
X65819173Y-100372199D01*
X65997802Y-100550827D01*
X66231191Y-100647500D01*
X66770250Y-100647500D01*
X66929000Y-100488750D01*
X66929000Y-99441000D01*
X65881250Y-99441000D01*
X65722500Y-99599750D01*
X63779400Y-99599750D01*
X63779400Y-98489190D01*
X65722500Y-98489190D01*
X65722500Y-99028250D01*
X65881250Y-99187000D01*
X66929000Y-99187000D01*
X66929000Y-98139250D01*
X67183000Y-98139250D01*
X67183000Y-99187000D01*
X67203000Y-99187000D01*
X67203000Y-99441000D01*
X67183000Y-99441000D01*
X67183000Y-100488750D01*
X67341750Y-100647500D01*
X67880809Y-100647500D01*
X68114198Y-100550827D01*
X68292827Y-100372199D01*
X68389500Y-100138810D01*
X68389500Y-99886009D01*
X68464854Y-100068380D01*
X68839647Y-100443827D01*
X69329587Y-100647268D01*
X69860086Y-100647731D01*
X70350380Y-100445146D01*
X70725827Y-100070353D01*
X70866094Y-99732554D01*
X71004854Y-100068380D01*
X71379647Y-100443827D01*
X71869587Y-100647268D01*
X72400086Y-100647731D01*
X72890380Y-100445146D01*
X73265827Y-100070353D01*
X73406094Y-99732554D01*
X73544854Y-100068380D01*
X73919647Y-100443827D01*
X74409587Y-100647268D01*
X74940086Y-100647731D01*
X75430380Y-100445146D01*
X75805827Y-100070353D01*
X75946094Y-99732554D01*
X76084854Y-100068380D01*
X76459647Y-100443827D01*
X76949587Y-100647268D01*
X77480086Y-100647731D01*
X77970380Y-100445146D01*
X78345827Y-100070353D01*
X78486094Y-99732554D01*
X78624854Y-100068380D01*
X78999647Y-100443827D01*
X79489587Y-100647268D01*
X80020086Y-100647731D01*
X80289400Y-100536453D01*
X80289400Y-100584000D01*
X80345470Y-100865885D01*
X80505145Y-101104855D01*
X86131400Y-106731110D01*
X86131400Y-110103860D01*
X85991413Y-110045732D01*
X85460914Y-110045269D01*
X84970620Y-110247854D01*
X84595173Y-110622647D01*
X84454906Y-110960446D01*
X84316146Y-110624620D01*
X83941353Y-110249173D01*
X83451413Y-110045732D01*
X82920914Y-110045269D01*
X82430620Y-110247854D01*
X82055173Y-110622647D01*
X81914906Y-110960446D01*
X81776146Y-110624620D01*
X81401353Y-110249173D01*
X80911413Y-110045732D01*
X80380914Y-110045269D01*
X79890620Y-110247854D01*
X79515173Y-110622647D01*
X79450940Y-110777337D01*
X79450940Y-110680500D01*
X79406662Y-110445183D01*
X79267590Y-110229059D01*
X79055390Y-110084069D01*
X78803500Y-110033060D01*
X77406500Y-110033060D01*
X77171183Y-110077338D01*
X76955059Y-110216410D01*
X76810069Y-110428610D01*
X76759060Y-110680500D01*
X76759060Y-112077500D01*
X76803338Y-112312817D01*
X76942410Y-112528941D01*
X77154610Y-112673931D01*
X77406500Y-112724940D01*
X78803500Y-112724940D01*
X79038817Y-112680662D01*
X79254941Y-112541590D01*
X79399931Y-112329390D01*
X79450940Y-112077500D01*
X79450940Y-111981116D01*
X79513854Y-112133380D01*
X79888647Y-112508827D01*
X80378587Y-112712268D01*
X80909086Y-112712731D01*
X81399380Y-112510146D01*
X81774827Y-112135353D01*
X81915094Y-111797554D01*
X82053854Y-112133380D01*
X82428647Y-112508827D01*
X82918587Y-112712268D01*
X83449086Y-112712731D01*
X83939380Y-112510146D01*
X84314827Y-112135353D01*
X84455094Y-111797554D01*
X84593854Y-112133380D01*
X84968647Y-112508827D01*
X85458587Y-112712268D01*
X85989086Y-112712731D01*
X86131400Y-112653928D01*
X86131400Y-113108688D01*
X86042687Y-113322332D01*
X86042313Y-113751784D01*
X86174376Y-114071400D01*
X79783998Y-114071400D01*
X79606286Y-113893378D01*
X79209668Y-113728687D01*
X78780216Y-113728313D01*
X78383311Y-113892311D01*
X78079378Y-114195714D01*
X77914687Y-114592332D01*
X77914313Y-115021784D01*
X78078311Y-115418689D01*
X78381714Y-115722622D01*
X78778332Y-115887313D01*
X79207784Y-115887687D01*
X79604689Y-115723689D01*
X79784091Y-115544600D01*
X107795861Y-115544600D01*
X107796311Y-115545689D01*
X108099714Y-115849622D01*
X108496332Y-116014313D01*
X108925784Y-116014687D01*
X109322689Y-115850689D01*
X109626622Y-115547286D01*
X109791313Y-115150668D01*
X109791687Y-114721216D01*
X109627689Y-114324311D01*
X109324286Y-114020378D01*
X108927668Y-113855687D01*
X108498216Y-113855313D01*
X108101311Y-114019311D01*
X108049131Y-114071400D01*
X103870114Y-114071400D01*
X103949313Y-113880668D01*
X103949687Y-113451216D01*
X103785689Y-113054311D01*
X103482286Y-112750378D01*
X103085668Y-112585687D01*
X102656216Y-112585313D01*
X102259311Y-112749311D01*
X102079909Y-112928400D01*
X101016110Y-112928400D01*
X100800067Y-112712357D01*
X101229086Y-112712731D01*
X101719380Y-112510146D01*
X102094827Y-112135353D01*
X102298268Y-111645413D01*
X102298731Y-111114914D01*
X102096146Y-110624620D01*
X101721353Y-110249173D01*
X101231413Y-110045732D01*
X100700914Y-110045269D01*
X100210620Y-110247854D01*
X99835173Y-110622647D01*
X99694906Y-110960446D01*
X99556146Y-110624620D01*
X99181353Y-110249173D01*
X98691413Y-110045732D01*
X98260354Y-110045356D01*
X101562242Y-106743468D01*
X101813784Y-106743687D01*
X102210689Y-106579689D01*
X102514622Y-106276286D01*
X102544741Y-106203750D01*
X108648500Y-106203750D01*
X108648500Y-106742809D01*
X108745173Y-106976198D01*
X108923801Y-107154827D01*
X109157190Y-107251500D01*
X109696250Y-107251500D01*
X109855000Y-107092750D01*
X109855000Y-106045000D01*
X110109000Y-106045000D01*
X110109000Y-107092750D01*
X110267750Y-107251500D01*
X110806810Y-107251500D01*
X111040199Y-107154827D01*
X111218827Y-106976198D01*
X111315500Y-106742809D01*
X111315500Y-106203750D01*
X111156750Y-106045000D01*
X110109000Y-106045000D01*
X109855000Y-106045000D01*
X108807250Y-106045000D01*
X108648500Y-106203750D01*
X102544741Y-106203750D01*
X102679313Y-105879668D01*
X102679687Y-105450216D01*
X102532168Y-105093191D01*
X108648500Y-105093191D01*
X108648500Y-105632250D01*
X108807250Y-105791000D01*
X109855000Y-105791000D01*
X109855000Y-105771000D01*
X110109000Y-105771000D01*
X110109000Y-105791000D01*
X111156750Y-105791000D01*
X111315500Y-105632250D01*
X111315500Y-105093191D01*
X111262609Y-104965500D01*
X116256060Y-104965500D01*
X116256060Y-106362500D01*
X116300338Y-106597817D01*
X116439410Y-106813941D01*
X116651610Y-106958931D01*
X116865400Y-107002225D01*
X116865400Y-111760000D01*
X116921470Y-112041885D01*
X117030554Y-112205140D01*
X117030313Y-112481784D01*
X117194311Y-112878689D01*
X117497714Y-113182622D01*
X117894332Y-113347313D01*
X118323784Y-113347687D01*
X118720689Y-113183689D01*
X119024622Y-112880286D01*
X119189313Y-112483668D01*
X119189687Y-112054216D01*
X119025689Y-111657311D01*
X118722286Y-111353378D01*
X118338600Y-111194057D01*
X118338600Y-107002771D01*
X118535817Y-106965662D01*
X118751941Y-106826590D01*
X118896931Y-106614390D01*
X118947940Y-106362500D01*
X118947940Y-106235500D01*
X128702060Y-106235500D01*
X128702060Y-107632500D01*
X128746338Y-107867817D01*
X128885410Y-108083941D01*
X129097610Y-108228931D01*
X129349500Y-108279940D01*
X130746500Y-108279940D01*
X130981817Y-108235662D01*
X131197941Y-108096590D01*
X131342931Y-107884390D01*
X131393940Y-107632500D01*
X131393940Y-107137770D01*
X137172855Y-101358855D01*
X137284136Y-101192311D01*
X137332530Y-101119885D01*
X137388600Y-100838000D01*
X137388600Y-88927998D01*
X137566622Y-88750286D01*
X137731313Y-88353668D01*
X137731687Y-87924216D01*
X137567689Y-87527311D01*
X137388600Y-87347909D01*
X137388600Y-77751998D01*
X137566622Y-77574286D01*
X137731313Y-77177668D01*
X137731687Y-76748216D01*
X137567689Y-76351311D01*
X137388600Y-76171909D01*
X137388600Y-67083998D01*
X137566622Y-66906286D01*
X137731313Y-66509668D01*
X137731687Y-66080216D01*
X137567689Y-65683311D01*
X137388600Y-65503909D01*
X137388600Y-56415998D01*
X137566622Y-56238286D01*
X137731313Y-55841668D01*
X137731687Y-55412216D01*
X137567689Y-55015311D01*
X137388600Y-54835909D01*
X137388600Y-45747998D01*
X137566622Y-45570286D01*
X137731313Y-45173668D01*
X137731687Y-44744216D01*
X137567689Y-44347311D01*
X137264286Y-44043378D01*
X136867668Y-43878687D01*
X136438216Y-43878313D01*
X136041311Y-44042311D01*
X135737378Y-44345714D01*
X135572687Y-44742332D01*
X135572313Y-45171784D01*
X135736311Y-45568689D01*
X135915400Y-45748091D01*
X135915400Y-54836002D01*
X135737378Y-55013714D01*
X135572687Y-55410332D01*
X135572313Y-55839784D01*
X135736311Y-56236689D01*
X135915400Y-56416091D01*
X135915400Y-65504002D01*
X135737378Y-65681714D01*
X135572687Y-66078332D01*
X135572313Y-66507784D01*
X135736311Y-66904689D01*
X135915400Y-67084091D01*
X135915400Y-76172002D01*
X135737378Y-76349714D01*
X135572687Y-76746332D01*
X135572313Y-77175784D01*
X135736311Y-77572689D01*
X135915400Y-77752091D01*
X135915400Y-87348002D01*
X135737378Y-87525714D01*
X135572687Y-87922332D01*
X135572313Y-88351784D01*
X135736311Y-88748689D01*
X135915400Y-88928091D01*
X135915400Y-100532890D01*
X130841078Y-105607212D01*
X130746500Y-105588060D01*
X130682360Y-105588060D01*
X130740929Y-105563800D01*
X130802583Y-105328188D01*
X130048000Y-104573605D01*
X129293417Y-105328188D01*
X129355071Y-105563800D01*
X129423998Y-105588060D01*
X129349500Y-105588060D01*
X129114183Y-105632338D01*
X128898059Y-105771410D01*
X128753069Y-105983610D01*
X128702060Y-106235500D01*
X118947940Y-106235500D01*
X118947940Y-104965500D01*
X118903662Y-104730183D01*
X118764590Y-104514059D01*
X118552390Y-104369069D01*
X118300500Y-104318060D01*
X118204116Y-104318060D01*
X118356380Y-104255146D01*
X118410139Y-104201480D01*
X128702073Y-104201480D01*
X128730852Y-104731199D01*
X128878200Y-105086929D01*
X129113812Y-105148583D01*
X129868395Y-104394000D01*
X130227605Y-104394000D01*
X130982188Y-105148583D01*
X131217800Y-105086929D01*
X131393927Y-104586520D01*
X131365148Y-104056801D01*
X131217800Y-103701071D01*
X130982188Y-103639417D01*
X130227605Y-104394000D01*
X129868395Y-104394000D01*
X129113812Y-103639417D01*
X128878200Y-103701071D01*
X128702073Y-104201480D01*
X118410139Y-104201480D01*
X118731827Y-103880353D01*
X118935268Y-103390413D01*
X118935731Y-102859914D01*
X118733146Y-102369620D01*
X118358353Y-101994173D01*
X118020554Y-101853906D01*
X118356380Y-101715146D01*
X118731827Y-101340353D01*
X118935268Y-100850413D01*
X118935731Y-100319914D01*
X118733146Y-99829620D01*
X118358353Y-99454173D01*
X117868413Y-99250732D01*
X117337914Y-99250269D01*
X116847620Y-99452854D01*
X116472173Y-99827647D01*
X116268732Y-100317587D01*
X116268269Y-100848086D01*
X116470854Y-101338380D01*
X116845647Y-101713827D01*
X117183446Y-101854094D01*
X116847620Y-101992854D01*
X116472173Y-102367647D01*
X116268732Y-102857587D01*
X116268269Y-103388086D01*
X116470854Y-103878380D01*
X116845647Y-104253827D01*
X117000337Y-104318060D01*
X116903500Y-104318060D01*
X116668183Y-104362338D01*
X116452059Y-104501410D01*
X116307069Y-104713610D01*
X116256060Y-104965500D01*
X111262609Y-104965500D01*
X111218827Y-104859802D01*
X111040199Y-104681173D01*
X110806810Y-104584500D01*
X110586327Y-104584500D01*
X110674929Y-104547800D01*
X110736583Y-104312188D01*
X109982000Y-103557605D01*
X109227417Y-104312188D01*
X109289071Y-104547800D01*
X109393342Y-104584500D01*
X109157190Y-104584500D01*
X108923801Y-104681173D01*
X108745173Y-104859802D01*
X108648500Y-105093191D01*
X102532168Y-105093191D01*
X102515689Y-105053311D01*
X102212286Y-104749378D01*
X101815668Y-104584687D01*
X101386216Y-104584313D01*
X100989311Y-104748311D01*
X100685378Y-105051714D01*
X100520687Y-105448332D01*
X100520466Y-105701824D01*
X96169180Y-110053110D01*
X96151413Y-110045732D01*
X95620914Y-110045269D01*
X95130620Y-110247854D01*
X94755173Y-110622647D01*
X94614906Y-110960446D01*
X94476146Y-110624620D01*
X94101353Y-110249173D01*
X93611413Y-110045732D01*
X93080914Y-110045269D01*
X92590620Y-110247854D01*
X92215173Y-110622647D01*
X92074906Y-110960446D01*
X91936146Y-110624620D01*
X91561353Y-110249173D01*
X91071413Y-110045732D01*
X90540914Y-110045269D01*
X90050620Y-110247854D01*
X89675173Y-110622647D01*
X89534906Y-110960446D01*
X89396146Y-110624620D01*
X89021353Y-110249173D01*
X88531413Y-110045732D01*
X88000914Y-110045269D01*
X87604600Y-110209022D01*
X87604600Y-106426000D01*
X87548530Y-106144115D01*
X87388855Y-105905145D01*
X82131067Y-100647357D01*
X82560086Y-100647731D01*
X83050380Y-100445146D01*
X83425827Y-100070353D01*
X83566094Y-99732554D01*
X83704854Y-100068380D01*
X84079647Y-100443827D01*
X84569587Y-100647268D01*
X85100086Y-100647731D01*
X85590380Y-100445146D01*
X85965827Y-100070353D01*
X86106094Y-99732554D01*
X86244854Y-100068380D01*
X86619647Y-100443827D01*
X87109587Y-100647268D01*
X87640086Y-100647731D01*
X88130380Y-100445146D01*
X88505827Y-100070353D01*
X88646094Y-99732554D01*
X88784854Y-100068380D01*
X89159647Y-100443827D01*
X89649587Y-100647268D01*
X90180086Y-100647731D01*
X90670380Y-100445146D01*
X91045827Y-100070353D01*
X91186094Y-99732554D01*
X91324854Y-100068380D01*
X91699647Y-100443827D01*
X92189587Y-100647268D01*
X92720086Y-100647731D01*
X93210380Y-100445146D01*
X93585827Y-100070353D01*
X93726094Y-99732554D01*
X93864854Y-100068380D01*
X94239647Y-100443827D01*
X94285858Y-100463016D01*
X94315470Y-100611885D01*
X94475145Y-100850855D01*
X95694532Y-102070242D01*
X95694313Y-102321784D01*
X95858311Y-102718689D01*
X96161714Y-103022622D01*
X96558332Y-103187313D01*
X96987784Y-103187687D01*
X96993125Y-103185480D01*
X108636073Y-103185480D01*
X108664852Y-103715199D01*
X108812200Y-104070929D01*
X109047812Y-104132583D01*
X109802395Y-103378000D01*
X110161605Y-103378000D01*
X110916188Y-104132583D01*
X111151800Y-104070929D01*
X111327927Y-103570520D01*
X111299148Y-103040801D01*
X111151800Y-102685071D01*
X110916188Y-102623417D01*
X110161605Y-103378000D01*
X109802395Y-103378000D01*
X109047812Y-102623417D01*
X108812200Y-102685071D01*
X108636073Y-103185480D01*
X96993125Y-103185480D01*
X97384689Y-103023689D01*
X97688622Y-102720286D01*
X97853313Y-102323668D01*
X97853687Y-101894216D01*
X97689689Y-101497311D01*
X97386286Y-101193378D01*
X96989668Y-101028687D01*
X96736176Y-101028466D01*
X95951793Y-100244083D01*
X96125827Y-100070353D01*
X96266094Y-99732554D01*
X96404854Y-100068380D01*
X96779647Y-100443827D01*
X97269587Y-100647268D01*
X97800086Y-100647731D01*
X98290380Y-100445146D01*
X98665827Y-100070353D01*
X98730060Y-99915663D01*
X98730060Y-100012500D01*
X98774338Y-100247817D01*
X98913410Y-100463941D01*
X99125610Y-100608931D01*
X99377500Y-100659940D01*
X100774500Y-100659940D01*
X101009817Y-100615662D01*
X101225941Y-100476590D01*
X101370931Y-100264390D01*
X101421940Y-100012500D01*
X101421940Y-98615500D01*
X101377662Y-98380183D01*
X101238590Y-98164059D01*
X101026390Y-98019069D01*
X100774500Y-97968060D01*
X100678116Y-97968060D01*
X100830380Y-97905146D01*
X101205827Y-97530353D01*
X101409268Y-97040413D01*
X101409731Y-96509914D01*
X101207146Y-96019620D01*
X100832353Y-95644173D01*
X100494554Y-95503906D01*
X100830380Y-95365146D01*
X101205827Y-94990353D01*
X101409268Y-94500413D01*
X101409731Y-93969914D01*
X101207146Y-93479620D01*
X100832353Y-93104173D01*
X100510882Y-92970686D01*
X100768929Y-92863800D01*
X100830583Y-92628188D01*
X100076000Y-91873605D01*
X99321417Y-92628188D01*
X99383071Y-92863800D01*
X99662312Y-92962083D01*
X99321620Y-93102854D01*
X98946173Y-93477647D01*
X98742732Y-93967587D01*
X98742269Y-94498086D01*
X98944854Y-94988380D01*
X99319647Y-95363827D01*
X99657446Y-95504094D01*
X99321620Y-95642854D01*
X98946173Y-96017647D01*
X98742732Y-96507587D01*
X98742269Y-97038086D01*
X98944854Y-97528380D01*
X99319647Y-97903827D01*
X99474337Y-97968060D01*
X99377500Y-97968060D01*
X99142183Y-98012338D01*
X98926059Y-98151410D01*
X98781069Y-98363610D01*
X98730060Y-98615500D01*
X98730060Y-98711884D01*
X98667146Y-98559620D01*
X98292353Y-98184173D01*
X97802413Y-97980732D01*
X97271914Y-97980269D01*
X96781620Y-98182854D01*
X96406173Y-98557647D01*
X96265906Y-98895446D01*
X96127146Y-98559620D01*
X95752353Y-98184173D01*
X95262413Y-97980732D01*
X94731914Y-97980269D01*
X94241620Y-98182854D01*
X93866173Y-98557647D01*
X93725906Y-98895446D01*
X93587146Y-98559620D01*
X93212353Y-98184173D01*
X92722413Y-97980732D01*
X92191914Y-97980269D01*
X91701620Y-98182854D01*
X91326173Y-98557647D01*
X91185906Y-98895446D01*
X91047146Y-98559620D01*
X90672353Y-98184173D01*
X90182413Y-97980732D01*
X89651914Y-97980269D01*
X89161620Y-98182854D01*
X88786173Y-98557647D01*
X88645906Y-98895446D01*
X88507146Y-98559620D01*
X88132353Y-98184173D01*
X87642413Y-97980732D01*
X87111914Y-97980269D01*
X86621620Y-98182854D01*
X86246173Y-98557647D01*
X86105906Y-98895446D01*
X85967146Y-98559620D01*
X85592353Y-98184173D01*
X85102413Y-97980732D01*
X84571914Y-97980269D01*
X84081620Y-98182854D01*
X83706173Y-98557647D01*
X83565906Y-98895446D01*
X83427146Y-98559620D01*
X83052353Y-98184173D01*
X82562413Y-97980732D01*
X82031914Y-97980269D01*
X81762600Y-98091547D01*
X81762600Y-97536000D01*
X81706530Y-97254115D01*
X81597446Y-97090860D01*
X81597687Y-96814216D01*
X81433689Y-96417311D01*
X81130286Y-96113378D01*
X80733668Y-95948687D01*
X80304216Y-95948313D01*
X79907311Y-96112311D01*
X79603378Y-96415714D01*
X79438687Y-96812332D01*
X79438313Y-97241784D01*
X79602311Y-97638689D01*
X79905714Y-97942622D01*
X79997440Y-97980710D01*
X79491914Y-97980269D01*
X79001620Y-98182854D01*
X78626173Y-98557647D01*
X78485906Y-98895446D01*
X78347146Y-98559620D01*
X77972353Y-98184173D01*
X77482413Y-97980732D01*
X76951914Y-97980269D01*
X76461620Y-98182854D01*
X76086173Y-98557647D01*
X75945906Y-98895446D01*
X75807146Y-98559620D01*
X75432353Y-98184173D01*
X74942413Y-97980732D01*
X74411914Y-97980269D01*
X73921620Y-98182854D01*
X73546173Y-98557647D01*
X73405906Y-98895446D01*
X73267146Y-98559620D01*
X72892353Y-98184173D01*
X72402413Y-97980732D01*
X71871914Y-97980269D01*
X71381620Y-98182854D01*
X71006173Y-98557647D01*
X70865906Y-98895446D01*
X70727146Y-98559620D01*
X70352353Y-98184173D01*
X69862413Y-97980732D01*
X69331914Y-97980269D01*
X68841620Y-98182854D01*
X68466173Y-98557647D01*
X68389500Y-98742296D01*
X68389500Y-98489190D01*
X68292827Y-98255801D01*
X68114198Y-98077173D01*
X67880809Y-97980500D01*
X67341750Y-97980500D01*
X67183000Y-98139250D01*
X66929000Y-98139250D01*
X66770250Y-97980500D01*
X66231191Y-97980500D01*
X65997802Y-98077173D01*
X65819173Y-98255801D01*
X65722500Y-98489190D01*
X63779400Y-98489190D01*
X63779400Y-90578206D01*
X65584606Y-88773000D01*
X68072000Y-88773000D01*
X68121410Y-88762994D01*
X68161803Y-88735803D01*
X71450948Y-85446658D01*
X76949145Y-90944855D01*
X77188115Y-91104530D01*
X77470000Y-91160600D01*
X98850051Y-91160600D01*
X98730073Y-91501480D01*
X98758852Y-92031199D01*
X98906200Y-92386929D01*
X99141812Y-92448583D01*
X99896395Y-91694000D01*
X99882253Y-91679858D01*
X100061858Y-91500253D01*
X100076000Y-91514395D01*
X100090143Y-91500253D01*
X100269748Y-91679858D01*
X100255605Y-91694000D01*
X101010188Y-92448583D01*
X101245800Y-92386929D01*
X101313336Y-92195046D01*
X105943400Y-96825110D01*
X105943400Y-97536000D01*
X105999470Y-97817885D01*
X106159145Y-98056855D01*
X108656110Y-100553820D01*
X108648732Y-100571587D01*
X108648269Y-101102086D01*
X108850854Y-101592380D01*
X109225647Y-101967827D01*
X109547118Y-102101314D01*
X109289071Y-102208200D01*
X109227417Y-102443812D01*
X109982000Y-103198395D01*
X110736583Y-102443812D01*
X110674929Y-102208200D01*
X110395688Y-102109917D01*
X110736380Y-101969146D01*
X111111827Y-101594353D01*
X111315268Y-101104413D01*
X111315731Y-100573914D01*
X111113146Y-100083620D01*
X110738353Y-99708173D01*
X110400554Y-99567906D01*
X110736380Y-99429146D01*
X111111827Y-99054353D01*
X111315268Y-98564413D01*
X111315731Y-98033914D01*
X111113146Y-97543620D01*
X110738353Y-97168173D01*
X110583663Y-97103940D01*
X110680500Y-97103940D01*
X110915817Y-97059662D01*
X111131941Y-96920590D01*
X111276931Y-96708390D01*
X111327940Y-96456500D01*
X111327940Y-95059500D01*
X111283662Y-94824183D01*
X111144590Y-94608059D01*
X110932390Y-94463069D01*
X110680500Y-94412060D01*
X110584116Y-94412060D01*
X110736380Y-94349146D01*
X111111827Y-93974353D01*
X111315268Y-93484413D01*
X111315731Y-92953914D01*
X111113146Y-92463620D01*
X110738353Y-92088173D01*
X110400554Y-91947906D01*
X110736380Y-91809146D01*
X111111827Y-91434353D01*
X111120029Y-91414600D01*
X113994890Y-91414600D01*
X117081145Y-94500855D01*
X117320115Y-94660530D01*
X117602000Y-94716600D01*
X123321507Y-94716600D01*
X123328854Y-94734380D01*
X123703647Y-95109827D01*
X123858337Y-95174060D01*
X123761500Y-95174060D01*
X123526183Y-95218338D01*
X123310059Y-95357410D01*
X123165069Y-95569610D01*
X123114060Y-95821500D01*
X123114060Y-97218500D01*
X123158338Y-97453817D01*
X123297410Y-97669941D01*
X123509610Y-97814931D01*
X123761500Y-97865940D01*
X125158500Y-97865940D01*
X125393817Y-97821662D01*
X125609941Y-97682590D01*
X125754931Y-97470390D01*
X125801088Y-97242460D01*
X126011885Y-97200530D01*
X126250855Y-97040855D01*
X127266855Y-96024855D01*
X127426530Y-95785885D01*
X127482600Y-95504000D01*
X127482600Y-86878086D01*
X128714269Y-86878086D01*
X128916854Y-87368380D01*
X129291647Y-87743827D01*
X129629446Y-87884094D01*
X129293620Y-88022854D01*
X128918173Y-88397647D01*
X128714732Y-88887587D01*
X128714269Y-89418086D01*
X128916854Y-89908380D01*
X129291647Y-90283827D01*
X129629446Y-90424094D01*
X129293620Y-90562854D01*
X128918173Y-90937647D01*
X128714732Y-91427587D01*
X128714269Y-91958086D01*
X128916854Y-92448380D01*
X129291647Y-92823827D01*
X129629446Y-92964094D01*
X129293620Y-93102854D01*
X128918173Y-93477647D01*
X128714732Y-93967587D01*
X128714269Y-94498086D01*
X128916854Y-94988380D01*
X129291647Y-95363827D01*
X129629446Y-95504094D01*
X129293620Y-95642854D01*
X128918173Y-96017647D01*
X128714732Y-96507587D01*
X128714269Y-97038086D01*
X128916854Y-97528380D01*
X129291647Y-97903827D01*
X129629446Y-98044094D01*
X129293620Y-98182854D01*
X128918173Y-98557647D01*
X128714732Y-99047587D01*
X128714269Y-99578086D01*
X128916854Y-100068380D01*
X129291647Y-100443827D01*
X129629446Y-100584094D01*
X129293620Y-100722854D01*
X128918173Y-101097647D01*
X128714732Y-101587587D01*
X128714269Y-102118086D01*
X128916854Y-102608380D01*
X129291647Y-102983827D01*
X129613118Y-103117314D01*
X129355071Y-103224200D01*
X129293417Y-103459812D01*
X130048000Y-104214395D01*
X130802583Y-103459812D01*
X130740929Y-103224200D01*
X130461688Y-103125917D01*
X130802380Y-102985146D01*
X131177827Y-102610353D01*
X131381268Y-102120413D01*
X131381731Y-101589914D01*
X131179146Y-101099620D01*
X130804353Y-100724173D01*
X130466554Y-100583906D01*
X130802380Y-100445146D01*
X131177827Y-100070353D01*
X131381268Y-99580413D01*
X131381731Y-99049914D01*
X131179146Y-98559620D01*
X130804353Y-98184173D01*
X130466554Y-98043906D01*
X130802380Y-97905146D01*
X131177827Y-97530353D01*
X131381268Y-97040413D01*
X131381731Y-96509914D01*
X131179146Y-96019620D01*
X130804353Y-95644173D01*
X130466554Y-95503906D01*
X130802380Y-95365146D01*
X131177827Y-94990353D01*
X131381268Y-94500413D01*
X131381731Y-93969914D01*
X131179146Y-93479620D01*
X130804353Y-93104173D01*
X130466554Y-92963906D01*
X130802380Y-92825146D01*
X131177827Y-92450353D01*
X131381268Y-91960413D01*
X131381731Y-91429914D01*
X131179146Y-90939620D01*
X130804353Y-90564173D01*
X130466554Y-90423906D01*
X130802380Y-90285146D01*
X131177827Y-89910353D01*
X131381268Y-89420413D01*
X131381731Y-88889914D01*
X131179146Y-88399620D01*
X130804353Y-88024173D01*
X130466554Y-87883906D01*
X130802380Y-87745146D01*
X131177827Y-87370353D01*
X131381268Y-86880413D01*
X131381731Y-86349914D01*
X131179146Y-85859620D01*
X130804353Y-85484173D01*
X130314413Y-85280732D01*
X129783914Y-85280269D01*
X129293620Y-85482854D01*
X128918173Y-85857647D01*
X128714732Y-86347587D01*
X128714269Y-86878086D01*
X127482600Y-86878086D01*
X127482600Y-85879998D01*
X127660622Y-85702286D01*
X127825313Y-85305668D01*
X127825687Y-84876216D01*
X127661689Y-84479311D01*
X127358286Y-84175378D01*
X126961668Y-84010687D01*
X126532216Y-84010313D01*
X126135311Y-84174311D01*
X125831378Y-84477714D01*
X125666687Y-84874332D01*
X125666313Y-85303784D01*
X125830311Y-85700689D01*
X126009400Y-85880091D01*
X126009400Y-95198890D01*
X125707021Y-95501269D01*
X125622590Y-95370059D01*
X125410390Y-95225069D01*
X125158500Y-95174060D01*
X125062116Y-95174060D01*
X125214380Y-95111146D01*
X125589827Y-94736353D01*
X125793268Y-94246413D01*
X125793731Y-93715914D01*
X125591146Y-93225620D01*
X125216353Y-92850173D01*
X124878554Y-92709906D01*
X125214380Y-92571146D01*
X125589827Y-92196353D01*
X125793268Y-91706413D01*
X125793731Y-91175914D01*
X125591146Y-90685620D01*
X125216353Y-90310173D01*
X124878554Y-90169906D01*
X125214380Y-90031146D01*
X125589827Y-89656353D01*
X125793268Y-89166413D01*
X125793731Y-88635914D01*
X125591146Y-88145620D01*
X125216353Y-87770173D01*
X124878554Y-87629906D01*
X125214380Y-87491146D01*
X125589827Y-87116353D01*
X125793268Y-86626413D01*
X125793731Y-86095914D01*
X125591146Y-85605620D01*
X125216353Y-85230173D01*
X124726413Y-85026732D01*
X124195914Y-85026269D01*
X123705620Y-85228854D01*
X123330173Y-85603647D01*
X123126732Y-86093587D01*
X123126269Y-86624086D01*
X123328854Y-87114380D01*
X123703647Y-87489827D01*
X124041446Y-87630094D01*
X123705620Y-87768854D01*
X123330173Y-88143647D01*
X123126732Y-88633587D01*
X123126269Y-89164086D01*
X123328854Y-89654380D01*
X123703647Y-90029827D01*
X124041446Y-90170094D01*
X123705620Y-90308854D01*
X123330173Y-90683647D01*
X123126732Y-91173587D01*
X123126269Y-91704086D01*
X123328854Y-92194380D01*
X123703647Y-92569827D01*
X124041446Y-92710094D01*
X123705620Y-92848854D01*
X123330173Y-93223647D01*
X123321971Y-93243400D01*
X117907110Y-93243400D01*
X114820855Y-90157145D01*
X114581885Y-89997470D01*
X114300000Y-89941400D01*
X111120493Y-89941400D01*
X111113146Y-89923620D01*
X110738353Y-89548173D01*
X110400554Y-89407906D01*
X110736380Y-89269146D01*
X111111827Y-88894353D01*
X111315268Y-88404413D01*
X111315731Y-87873914D01*
X111113146Y-87383620D01*
X110738353Y-87008173D01*
X110248413Y-86804732D01*
X109717914Y-86804269D01*
X109227620Y-87006854D01*
X108852173Y-87381647D01*
X108648732Y-87871587D01*
X108648269Y-88402086D01*
X108850854Y-88892380D01*
X109225647Y-89267827D01*
X109563446Y-89408094D01*
X109227620Y-89546854D01*
X108852173Y-89921647D01*
X108648732Y-90411587D01*
X108648269Y-90942086D01*
X108850854Y-91432380D01*
X109225647Y-91807827D01*
X109563446Y-91948094D01*
X109227620Y-92086854D01*
X108852173Y-92461647D01*
X108648732Y-92951587D01*
X108648356Y-93382646D01*
X107670600Y-92404890D01*
X107670600Y-90932000D01*
X107614530Y-90650115D01*
X107454855Y-90411145D01*
X101401890Y-84358180D01*
X101409268Y-84340413D01*
X101409731Y-83809914D01*
X101207146Y-83319620D01*
X100832353Y-82944173D01*
X100342413Y-82740732D01*
X99811914Y-82740269D01*
X99321620Y-82942854D01*
X98946173Y-83317647D01*
X98742732Y-83807587D01*
X98742269Y-84338086D01*
X98944854Y-84828380D01*
X99319647Y-85203827D01*
X99657446Y-85344094D01*
X99321620Y-85482854D01*
X98946173Y-85857647D01*
X98742732Y-86347587D01*
X98742269Y-86878086D01*
X98944854Y-87368380D01*
X99319647Y-87743827D01*
X99657446Y-87884094D01*
X99321620Y-88022854D01*
X98946173Y-88397647D01*
X98742732Y-88887587D01*
X98742269Y-89418086D01*
X98853547Y-89687400D01*
X77775110Y-89687400D01*
X72804841Y-84717131D01*
X72898094Y-84492554D01*
X73036854Y-84828380D01*
X73411647Y-85203827D01*
X73901587Y-85407268D01*
X74432086Y-85407731D01*
X74922380Y-85205146D01*
X75297827Y-84830353D01*
X75438094Y-84492554D01*
X75576854Y-84828380D01*
X75951647Y-85203827D01*
X76441587Y-85407268D01*
X76972086Y-85407731D01*
X77462380Y-85205146D01*
X77837827Y-84830353D01*
X77978094Y-84492554D01*
X78116854Y-84828380D01*
X78491647Y-85203827D01*
X78981587Y-85407268D01*
X79512086Y-85407731D01*
X80002380Y-85205146D01*
X80377827Y-84830353D01*
X80518094Y-84492554D01*
X80656854Y-84828380D01*
X81031647Y-85203827D01*
X81521587Y-85407268D01*
X82052086Y-85407731D01*
X82542380Y-85205146D01*
X82917827Y-84830353D01*
X83058094Y-84492554D01*
X83196854Y-84828380D01*
X83571647Y-85203827D01*
X84061587Y-85407268D01*
X84592086Y-85407731D01*
X85082380Y-85205146D01*
X85457827Y-84830353D01*
X85598094Y-84492554D01*
X85736854Y-84828380D01*
X86111647Y-85203827D01*
X86601587Y-85407268D01*
X87132086Y-85407731D01*
X87622380Y-85205146D01*
X87997827Y-84830353D01*
X88138094Y-84492554D01*
X88276854Y-84828380D01*
X88651647Y-85203827D01*
X89141587Y-85407268D01*
X89672086Y-85407731D01*
X90162380Y-85205146D01*
X90537827Y-84830353D01*
X90678094Y-84492554D01*
X90816854Y-84828380D01*
X91191647Y-85203827D01*
X91681587Y-85407268D01*
X92212086Y-85407731D01*
X92702380Y-85205146D01*
X93077827Y-84830353D01*
X93218094Y-84492554D01*
X93356854Y-84828380D01*
X93731647Y-85203827D01*
X94221587Y-85407268D01*
X94752086Y-85407731D01*
X95242380Y-85205146D01*
X95617827Y-84830353D01*
X95682060Y-84675663D01*
X95682060Y-84772500D01*
X95726338Y-85007817D01*
X95865410Y-85223941D01*
X96077610Y-85368931D01*
X96329500Y-85419940D01*
X97726500Y-85419940D01*
X97961817Y-85375662D01*
X98177941Y-85236590D01*
X98322931Y-85024390D01*
X98373940Y-84772500D01*
X98373940Y-83375500D01*
X98329662Y-83140183D01*
X98190590Y-82924059D01*
X97978390Y-82779069D01*
X97726500Y-82728060D01*
X96329500Y-82728060D01*
X96094183Y-82772338D01*
X95878059Y-82911410D01*
X95733069Y-83123610D01*
X95682060Y-83375500D01*
X95682060Y-83471884D01*
X95619146Y-83319620D01*
X95244353Y-82944173D01*
X94754413Y-82740732D01*
X94223914Y-82740269D01*
X93733620Y-82942854D01*
X93358173Y-83317647D01*
X93217906Y-83655446D01*
X93079146Y-83319620D01*
X92704353Y-82944173D01*
X92214413Y-82740732D01*
X91683914Y-82740269D01*
X91193620Y-82942854D01*
X90818173Y-83317647D01*
X90677906Y-83655446D01*
X90539146Y-83319620D01*
X90164353Y-82944173D01*
X89674413Y-82740732D01*
X89143914Y-82740269D01*
X88653620Y-82942854D01*
X88278173Y-83317647D01*
X88137906Y-83655446D01*
X87999146Y-83319620D01*
X87624353Y-82944173D01*
X87134413Y-82740732D01*
X86603914Y-82740269D01*
X86113620Y-82942854D01*
X85738173Y-83317647D01*
X85597906Y-83655446D01*
X85459146Y-83319620D01*
X85084353Y-82944173D01*
X84594413Y-82740732D01*
X84063914Y-82740269D01*
X83573620Y-82942854D01*
X83198173Y-83317647D01*
X83057906Y-83655446D01*
X82919146Y-83319620D01*
X82544353Y-82944173D01*
X82054413Y-82740732D01*
X81523914Y-82740269D01*
X81033620Y-82942854D01*
X80658173Y-83317647D01*
X80517906Y-83655446D01*
X80379146Y-83319620D01*
X80004353Y-82944173D01*
X79514413Y-82740732D01*
X78983914Y-82740269D01*
X78493620Y-82942854D01*
X78118173Y-83317647D01*
X77977906Y-83655446D01*
X77839146Y-83319620D01*
X77464353Y-82944173D01*
X76974413Y-82740732D01*
X76443914Y-82740269D01*
X75953620Y-82942854D01*
X75578173Y-83317647D01*
X75437906Y-83655446D01*
X75299146Y-83319620D01*
X74924353Y-82944173D01*
X74434413Y-82740732D01*
X73903914Y-82740269D01*
X73413620Y-82942854D01*
X73279000Y-83077240D01*
X73279000Y-72188606D01*
X74474606Y-70993000D01*
X103632000Y-70993000D01*
X103681410Y-70982994D01*
X103721803Y-70955803D01*
X111341803Y-63335803D01*
X111369666Y-63293789D01*
X111379000Y-63246000D01*
X111379000Y-40438606D01*
X113184206Y-38633400D01*
X148689794Y-38633400D01*
X150494878Y-40438484D01*
M02*
