M48
;DRILL file {PCBnew (2011-07-08 BZR 3044)-stable} date 05/04/2017 15:27:15
;FORMAT={-:-/ absolute / metric / decimal}
FMAT,2
METRIC,TZ
T1C0.635
T2C0.813
%
G90
G05
M71
T1
X85.598Y54.864
X86.106Y78.740
X86.614Y76.200
X86.868Y62.230
X98.298Y71.882
X103.378Y55.626
X108.712Y108.712
X112.268Y111.760
X115.316Y101.854
X120.142Y108.712
X123.444Y111.760
X130.810Y108.712
X134.112Y111.760
X141.478Y108.712
X144.780Y111.760
X152.146Y108.712
X155.448Y111.760
T2
X66.040Y41.910
X66.040Y44.450
X66.040Y46.990
X66.040Y49.530
X66.040Y54.610
X66.040Y57.150
X66.040Y59.690
X66.040Y62.230
X66.040Y67.310
X66.040Y69.850
X66.040Y72.390
X66.040Y74.930
X66.040Y80.010
X66.040Y82.550
X66.040Y85.090
X66.040Y87.630
X66.040Y92.710
X66.040Y95.250
X66.040Y97.790
X66.040Y100.330
X66.040Y118.110
X66.040Y120.650
X66.040Y125.730
X66.040Y128.270
X66.040Y130.810
X66.040Y133.350
X74.930Y134.620
X77.470Y134.620
X79.756Y55.880
X79.756Y58.420
X79.756Y60.960
X79.756Y63.500
X79.756Y66.040
X82.550Y134.620
X83.693Y48.133
X85.090Y134.620
X86.233Y48.133
X88.773Y48.133
X89.027Y53.213
X89.027Y55.753
X89.027Y58.293
X89.027Y60.833
X89.027Y63.373
X89.027Y65.913
X89.027Y68.453
X89.027Y70.993
X89.027Y73.533
X89.027Y76.073
X91.313Y48.133
X93.472Y105.156
X94.488Y85.090
X94.742Y92.710
X96.012Y105.156
X97.028Y85.090
X97.282Y92.710
X98.552Y105.156
X99.568Y85.090
X99.822Y92.710
X101.092Y42.164
X101.092Y44.704
X101.092Y47.244
X101.092Y49.784
X101.092Y52.324
X101.092Y54.864
X101.092Y57.404
X101.092Y59.944
X101.092Y62.484
X101.092Y65.024
X101.092Y67.564
X101.092Y70.104
X101.092Y72.644
X101.092Y75.184
X101.092Y105.156
X102.108Y85.090
X103.632Y75.184
X103.632Y105.156
X103.886Y99.568
X104.648Y85.090
X106.172Y75.184
X106.172Y105.156
X106.426Y99.568
X106.934Y134.620
X107.188Y85.090
X108.712Y75.184
X108.712Y105.156
X108.966Y99.568
X109.474Y134.620
X109.728Y85.090
X111.252Y75.184
X111.252Y105.156
X111.506Y99.568
X112.268Y85.090
X113.792Y75.184
X113.792Y105.156
X114.046Y99.568
X116.332Y41.656
X116.332Y44.196
X116.332Y46.736
X116.332Y49.276
X116.332Y51.816
X116.332Y54.356
X116.332Y56.896
X116.332Y59.436
X116.332Y61.976
X116.332Y64.516
X116.332Y67.056
X116.332Y69.596
X116.332Y72.136
X116.332Y75.184
X121.666Y134.620
X124.206Y134.620
X140.208Y41.656
X140.208Y44.196
X140.208Y46.736
X140.208Y49.784
X140.208Y52.324
X140.208Y54.864
X140.208Y57.912
X140.208Y60.452
X140.208Y62.992
X140.208Y66.040
X140.208Y68.580
X140.208Y71.120
X143.510Y134.620
X146.050Y134.620
X154.940Y41.910
X154.940Y44.450
X154.940Y49.530
X154.940Y52.070
X154.940Y57.150
X154.940Y59.690
X154.940Y64.770
X154.940Y67.310
X160.020Y41.910
X160.020Y44.450
X160.020Y49.530
X160.020Y52.070
X160.020Y57.150
X160.020Y59.690
X160.020Y64.770
X160.020Y67.310
T0
M30
