G04 #@! TF.FileFunction,Copper,L1,Top,Signal*
%FSLAX46Y46*%
G04 Gerber Fmt 4.6, Leading zero omitted, Abs format (unit mm)*
G04 Created by KiCad (PCBNEW 4.0.6) date 04/09/17 13:57:38*
%MOMM*%
%LPD*%
G01*
G04 APERTURE LIST*
%ADD10C,0.150000*%
%ADD11R,1.397000X1.397000*%
%ADD12C,1.397000*%
%ADD13R,1.524000X2.032000*%
%ADD14R,2.032000X1.524000*%
%ADD15R,0.889000X1.397000*%
%ADD16R,1.143000X0.508000*%
%ADD17R,1.000760X0.599440*%
%ADD18C,5.999480*%
%ADD19R,1.800000X3.200000*%
%ADD20R,3.200000X1.800000*%
%ADD21R,2.000000X1.000000*%
%ADD22C,0.889000*%
%ADD23C,1.998980*%
%ADD24C,0.203200*%
%ADD25C,1.000760*%
G04 APERTURE END LIST*
D10*
D11*
X160020000Y-57150000D03*
D12*
X160020000Y-54610000D03*
D13*
X138557000Y-55626000D03*
X141859000Y-55626000D03*
X138557000Y-44958000D03*
X141859000Y-44958000D03*
X141859000Y-91186000D03*
X138557000Y-91186000D03*
X141859000Y-80010000D03*
X138557000Y-80010000D03*
X141859000Y-69342000D03*
X138557000Y-69342000D03*
X141859000Y-58674000D03*
X138557000Y-58674000D03*
X141859000Y-48006000D03*
X138557000Y-48006000D03*
X156083000Y-93726000D03*
X152781000Y-93726000D03*
X156083000Y-82550000D03*
X152781000Y-82550000D03*
X156083000Y-71882000D03*
X152781000Y-71882000D03*
X156083000Y-61214000D03*
X152781000Y-61214000D03*
X156083000Y-50546000D03*
X152781000Y-50546000D03*
D14*
X81756000Y-53975000D03*
X81756000Y-57277000D03*
D13*
X84931000Y-51054000D03*
X81629000Y-51054000D03*
D14*
X120904000Y-100203000D03*
X120904000Y-103505000D03*
D13*
X138557000Y-66294000D03*
X141859000Y-66294000D03*
X138557000Y-76962000D03*
X141859000Y-76962000D03*
X138557000Y-88138000D03*
X141859000Y-88138000D03*
X147955000Y-50546000D03*
X144653000Y-50546000D03*
X147955000Y-61214000D03*
X144653000Y-61214000D03*
X147955000Y-71882000D03*
X144653000Y-71882000D03*
X147955000Y-82550000D03*
X144653000Y-82550000D03*
X147955000Y-93726000D03*
X144653000Y-93726000D03*
X95059000Y-51054000D03*
X91757000Y-51054000D03*
D14*
X91884000Y-53975000D03*
X91884000Y-57277000D03*
D13*
X105187000Y-51054000D03*
X101885000Y-51054000D03*
D14*
X102012000Y-53975000D03*
X102012000Y-57277000D03*
D13*
X74803000Y-51054000D03*
X71501000Y-51054000D03*
D14*
X71628000Y-53975000D03*
X71628000Y-57277000D03*
X133604000Y-99187000D03*
X133604000Y-102489000D03*
X80518000Y-125349000D03*
X80518000Y-128651000D03*
X83058000Y-125349000D03*
X83058000Y-128651000D03*
X85598000Y-125349000D03*
X85598000Y-128651000D03*
D15*
X141160500Y-50546000D03*
X139255500Y-50546000D03*
X141160500Y-61214000D03*
X139255500Y-61214000D03*
X141160500Y-71882000D03*
X139255500Y-71882000D03*
X141160500Y-82550000D03*
X139255500Y-82550000D03*
X141160500Y-93726000D03*
X139255500Y-93726000D03*
D11*
X130048000Y-106934000D03*
D12*
X130048000Y-104394000D03*
X130048000Y-101854000D03*
X130048000Y-99314000D03*
X130048000Y-96774000D03*
X130048000Y-94234000D03*
X130048000Y-91694000D03*
X130048000Y-89154000D03*
X130048000Y-86614000D03*
D11*
X100076000Y-99314000D03*
D12*
X100076000Y-96774000D03*
X100076000Y-94234000D03*
X100076000Y-91694000D03*
X100076000Y-89154000D03*
X100076000Y-86614000D03*
X100076000Y-84074000D03*
D11*
X124460000Y-96520000D03*
D12*
X124460000Y-93980000D03*
X124460000Y-91440000D03*
X124460000Y-88900000D03*
X124460000Y-86360000D03*
D11*
X80772000Y-120650000D03*
D12*
X83312000Y-120650000D03*
X85852000Y-120650000D03*
X88392000Y-120650000D03*
X90932000Y-120650000D03*
D11*
X117856000Y-134366000D03*
D12*
X115316000Y-134366000D03*
X112776000Y-134366000D03*
X110236000Y-134366000D03*
D11*
X130556000Y-134366000D03*
D12*
X128016000Y-134366000D03*
X125476000Y-134366000D03*
X122936000Y-134366000D03*
D11*
X105156000Y-134366000D03*
D12*
X102616000Y-134366000D03*
X100076000Y-134366000D03*
X97536000Y-134366000D03*
D11*
X92456000Y-134366000D03*
D12*
X89916000Y-134366000D03*
X87376000Y-134366000D03*
X84836000Y-134366000D03*
D11*
X78994000Y-134366000D03*
D12*
X76454000Y-134366000D03*
X73914000Y-134366000D03*
X71374000Y-134366000D03*
D11*
X109982000Y-105918000D03*
D12*
X109982000Y-103378000D03*
X109982000Y-100838000D03*
X109982000Y-98298000D03*
D11*
X109982000Y-95758000D03*
D12*
X109982000Y-93218000D03*
X109982000Y-90678000D03*
X109982000Y-88138000D03*
D11*
X153162000Y-134366000D03*
D12*
X150622000Y-134366000D03*
X148082000Y-134366000D03*
X145542000Y-134366000D03*
D11*
X73025000Y-109093000D03*
D12*
X73025000Y-111633000D03*
X73025000Y-114173000D03*
X73025000Y-116713000D03*
D11*
X117602000Y-105664000D03*
D12*
X117602000Y-103124000D03*
X117602000Y-100584000D03*
D11*
X71882000Y-40386000D03*
D12*
X74422000Y-40386000D03*
D11*
X137922000Y-134366000D03*
D12*
X140462000Y-134366000D03*
D11*
X81502000Y-40386000D03*
D12*
X84042000Y-40386000D03*
D11*
X160020000Y-90170000D03*
D12*
X160020000Y-92710000D03*
D11*
X91122000Y-40386000D03*
D12*
X93662000Y-40386000D03*
D11*
X160020000Y-78740000D03*
D12*
X160020000Y-76200000D03*
D11*
X100742000Y-40386000D03*
D12*
X103282000Y-40386000D03*
D11*
X67056000Y-99314000D03*
D12*
X69596000Y-99314000D03*
X72136000Y-99314000D03*
X74676000Y-99314000D03*
X77216000Y-99314000D03*
X79756000Y-99314000D03*
X82296000Y-99314000D03*
X84836000Y-99314000D03*
X87376000Y-99314000D03*
X89916000Y-99314000D03*
X92456000Y-99314000D03*
X94996000Y-99314000D03*
X97536000Y-99314000D03*
D11*
X97028000Y-84074000D03*
D12*
X94488000Y-84074000D03*
X91948000Y-84074000D03*
X89408000Y-84074000D03*
X86868000Y-84074000D03*
X84328000Y-84074000D03*
X81788000Y-84074000D03*
X79248000Y-84074000D03*
X76708000Y-84074000D03*
X74168000Y-84074000D03*
X71628000Y-84074000D03*
X69088000Y-84074000D03*
X66548000Y-84074000D03*
D11*
X78105000Y-111379000D03*
D12*
X80645000Y-111379000D03*
X83185000Y-111379000D03*
X85725000Y-111379000D03*
X88265000Y-111379000D03*
X90805000Y-111379000D03*
X93345000Y-111379000D03*
X95885000Y-111379000D03*
X98425000Y-111379000D03*
X100965000Y-111379000D03*
X74422000Y-45466000D03*
X71882000Y-45466000D03*
X103282000Y-45466000D03*
X100742000Y-45466000D03*
X93662000Y-45466000D03*
X91122000Y-45466000D03*
X84042000Y-45466000D03*
X81502000Y-45466000D03*
D16*
X147193000Y-47371000D03*
X147193000Y-46101000D03*
X147193000Y-44831000D03*
X147193000Y-43561000D03*
X153543000Y-43561000D03*
X153543000Y-44831000D03*
X153543000Y-46101000D03*
X153543000Y-47371000D03*
X147193000Y-58039000D03*
X147193000Y-56769000D03*
X147193000Y-55499000D03*
X147193000Y-54229000D03*
X153543000Y-54229000D03*
X153543000Y-55499000D03*
X153543000Y-56769000D03*
X153543000Y-58039000D03*
X147193000Y-68707000D03*
X147193000Y-67437000D03*
X147193000Y-66167000D03*
X147193000Y-64897000D03*
X153543000Y-64897000D03*
X153543000Y-66167000D03*
X153543000Y-67437000D03*
X153543000Y-68707000D03*
X147193000Y-79375000D03*
X147193000Y-78105000D03*
X147193000Y-76835000D03*
X147193000Y-75565000D03*
X153543000Y-75565000D03*
X153543000Y-76835000D03*
X153543000Y-78105000D03*
X153543000Y-79375000D03*
X147193000Y-90043000D03*
X147193000Y-88773000D03*
X147193000Y-87503000D03*
X147193000Y-86233000D03*
X153543000Y-86233000D03*
X153543000Y-87503000D03*
X153543000Y-88773000D03*
X153543000Y-90043000D03*
D17*
X156530040Y-47386240D03*
X156530040Y-46085760D03*
X158429960Y-46736000D03*
X155768040Y-58054240D03*
X155768040Y-56753760D03*
X157667960Y-57404000D03*
X156276040Y-68722240D03*
X156276040Y-67421760D03*
X158175960Y-68072000D03*
X155768040Y-79390240D03*
X155768040Y-78089760D03*
X157667960Y-78740000D03*
X155768040Y-90058240D03*
X155768040Y-88757760D03*
X157667960Y-89408000D03*
D18*
X158496000Y-41402000D03*
X66548000Y-133350000D03*
X66548000Y-41402000D03*
X158496000Y-133350000D03*
D19*
X148000000Y-109100000D03*
X154500000Y-109100000D03*
D20*
X151500000Y-104600000D03*
D19*
X148000000Y-121100000D03*
X154500000Y-121100000D03*
D20*
X151500000Y-116600000D03*
D21*
X78000000Y-64100000D03*
X83000000Y-64100000D03*
X80500000Y-61600000D03*
X88000000Y-64100000D03*
X93000000Y-64100000D03*
X90500000Y-61600000D03*
X98000000Y-64100000D03*
X103000000Y-64100000D03*
X100500000Y-61600000D03*
X68000000Y-64100000D03*
X73000000Y-64100000D03*
X70500000Y-61600000D03*
D22*
X80518000Y-97028000D03*
X87122000Y-113538000D03*
X136652000Y-44958000D03*
X136652000Y-55626000D03*
X136652000Y-66294000D03*
X136652000Y-76962000D03*
X136652000Y-88138000D03*
X118110000Y-112268000D03*
X72898000Y-124460000D03*
X102870000Y-113665000D03*
X135636000Y-91186000D03*
X135128000Y-80010000D03*
X135382000Y-69342000D03*
X135128000Y-48006000D03*
X135382000Y-58674000D03*
X77216000Y-127000000D03*
X144272000Y-53340000D03*
X144272000Y-64262000D03*
X144018000Y-74930000D03*
X144018000Y-85344000D03*
X144272000Y-96520000D03*
D23*
X157226000Y-76708000D03*
X157988000Y-66040000D03*
X157480000Y-54864000D03*
X152654000Y-41148000D03*
D22*
X126746000Y-85090000D03*
X108712000Y-114935000D03*
X78994000Y-114808000D03*
X96774000Y-102108000D03*
X101600000Y-105664000D03*
D24*
X71628000Y-84074000D02*
X71628000Y-65978000D01*
X68250000Y-49098000D02*
X71882000Y-45466000D01*
X68250000Y-61850000D02*
X68250000Y-49098000D01*
X71500000Y-65100000D02*
X68250000Y-61850000D01*
X71500000Y-65850000D02*
X71500000Y-65100000D01*
X71628000Y-65978000D02*
X71500000Y-65850000D01*
X81502000Y-40386000D02*
X81502000Y-40102000D01*
X81502000Y-40102000D02*
X80000000Y-38600000D01*
X73668000Y-38600000D02*
X71882000Y-40386000D01*
X80000000Y-38600000D02*
X73668000Y-38600000D01*
X91122000Y-40386000D02*
X91122000Y-39722000D01*
X91122000Y-39722000D02*
X90000000Y-38600000D01*
X83288000Y-38600000D02*
X81502000Y-40386000D01*
X90000000Y-38600000D02*
X83288000Y-38600000D01*
X100742000Y-40386000D02*
X100742000Y-39842000D01*
X100742000Y-39842000D02*
X99500000Y-38600000D01*
X92908000Y-38600000D02*
X91122000Y-40386000D01*
X99500000Y-38600000D02*
X92908000Y-38600000D01*
X100742000Y-45466000D02*
X100742000Y-40386000D01*
X91122000Y-45466000D02*
X91122000Y-40386000D01*
X71882000Y-45466000D02*
X71882000Y-40386000D01*
X91122000Y-40386000D02*
X91122000Y-40132000D01*
X81502000Y-45466000D02*
X81502000Y-40386000D01*
X133604000Y-102489000D02*
X133604000Y-103886000D01*
X133604000Y-103886000D02*
X130556000Y-106934000D01*
X130048000Y-106934000D02*
X130556000Y-106934000D01*
X131572000Y-103632000D02*
X131064000Y-103124000D01*
X110998000Y-101854000D02*
X109982000Y-100838000D01*
X129286000Y-103124000D02*
X128016000Y-101854000D01*
X131064000Y-103124000D02*
X129286000Y-103124000D01*
X131572000Y-105918000D02*
X131572000Y-103632000D01*
X128016000Y-101854000D02*
X110998000Y-101854000D01*
X130556000Y-106934000D02*
X131572000Y-105918000D01*
X71628000Y-88138000D02*
X71628000Y-84074000D01*
X80518000Y-97028000D02*
X71628000Y-88138000D01*
X88392000Y-114808000D02*
X87122000Y-113538000D01*
X88392000Y-120650000D02*
X88392000Y-114808000D01*
X136652000Y-44958000D02*
X138557000Y-44958000D01*
X138557000Y-55626000D02*
X136652000Y-55626000D01*
X138557000Y-66294000D02*
X136652000Y-66294000D01*
X138557000Y-76962000D02*
X136652000Y-76962000D01*
X138557000Y-88138000D02*
X136652000Y-88138000D01*
X97536000Y-134620000D02*
X99060000Y-136144000D01*
X121158000Y-136144000D02*
X122936000Y-134366000D01*
X110236000Y-134874000D02*
X111506000Y-136144000D01*
X111506000Y-136144000D02*
X121158000Y-136144000D01*
X110236000Y-134366000D02*
X110236000Y-134874000D01*
X95758000Y-136144000D02*
X97536000Y-134366000D01*
X84836000Y-134366000D02*
X84836000Y-134620000D01*
X86360000Y-136144000D02*
X95758000Y-136144000D01*
X84836000Y-134620000D02*
X86360000Y-136144000D01*
X99060000Y-136144000D02*
X108458000Y-136144000D01*
X108458000Y-136144000D02*
X110236000Y-134366000D01*
X97536000Y-134366000D02*
X97536000Y-134620000D01*
X71374000Y-133096000D02*
X65405000Y-127127000D01*
X65405000Y-127127000D02*
X65405000Y-85217000D01*
X65405000Y-85217000D02*
X66548000Y-84074000D01*
X71374000Y-134366000D02*
X71374000Y-133096000D01*
X71374000Y-134620000D02*
X73152000Y-136398000D01*
X73152000Y-136398000D02*
X82804000Y-136398000D01*
X82804000Y-136398000D02*
X84836000Y-134366000D01*
X71374000Y-134366000D02*
X71374000Y-134620000D01*
X118110000Y-112268000D02*
X132080000Y-126238000D01*
X132080000Y-126238000D02*
X132080000Y-135128000D01*
X132080000Y-135128000D02*
X131064000Y-136144000D01*
X131064000Y-136144000D02*
X124714000Y-136144000D01*
X124714000Y-136144000D02*
X122936000Y-134366000D01*
X73025000Y-124333000D02*
X72898000Y-124460000D01*
X73025000Y-116713000D02*
X73025000Y-124333000D01*
X160020000Y-92710000D02*
X157099000Y-92710000D01*
X157099000Y-92710000D02*
X156083000Y-93726000D01*
X160020000Y-51816000D02*
X158750000Y-50546000D01*
X160020000Y-54610000D02*
X160020000Y-51816000D01*
X158750000Y-50546000D02*
X156083000Y-50546000D01*
X160020000Y-58928000D02*
X160020000Y-57150000D01*
X157734000Y-61214000D02*
X160020000Y-58928000D01*
X156083000Y-61214000D02*
X157734000Y-61214000D01*
X160020000Y-76200000D02*
X160020000Y-75819000D01*
X160020000Y-75819000D02*
X156083000Y-71882000D01*
X158750000Y-82550000D02*
X160020000Y-81280000D01*
X160020000Y-81280000D02*
X160020000Y-78740000D01*
X156083000Y-82550000D02*
X158750000Y-82550000D01*
D25*
X137922000Y-134366000D02*
X137922000Y-119178000D01*
X137922000Y-119178000D02*
X148000000Y-109100000D01*
D24*
X84836000Y-99314000D02*
X84836000Y-99441000D01*
X84836000Y-99441000D02*
X85979000Y-100584000D01*
X85979000Y-100584000D02*
X86868000Y-100584000D01*
X86868000Y-100584000D02*
X97155000Y-110871000D01*
X97155000Y-110871000D02*
X97155000Y-112014000D01*
X97155000Y-112014000D02*
X112776000Y-127635000D01*
X112776000Y-127635000D02*
X112776000Y-134366000D01*
D25*
X140462000Y-134366000D02*
X140462000Y-128638000D01*
X140462000Y-128638000D02*
X148000000Y-121100000D01*
D24*
X104394000Y-113665000D02*
X102870000Y-113665000D01*
X125476000Y-134366000D02*
X125095000Y-134366000D01*
X125095000Y-134366000D02*
X104394000Y-113665000D01*
X137160000Y-85598000D02*
X139319000Y-85598000D01*
X139319000Y-85598000D02*
X141859000Y-88138000D01*
X147193000Y-87503000D02*
X142494000Y-87503000D01*
X142494000Y-87503000D02*
X141859000Y-88138000D01*
X97028000Y-84074000D02*
X103124000Y-77978000D01*
X103124000Y-77978000D02*
X129540000Y-77978000D01*
X129540000Y-77978000D02*
X137160000Y-85598000D01*
X73914000Y-134112000D02*
X68834000Y-129032000D01*
X68834000Y-129032000D02*
X68834000Y-100076000D01*
X68834000Y-100076000D02*
X69596000Y-99314000D01*
X73914000Y-134366000D02*
X73914000Y-134112000D01*
X69423280Y-127127000D02*
X69423280Y-102026720D01*
X69423280Y-102026720D02*
X72136000Y-99314000D01*
X76454000Y-134366000D02*
X76454000Y-134157720D01*
X76454000Y-134157720D02*
X69423280Y-127127000D01*
X86868000Y-132588000D02*
X77216000Y-132588000D01*
X77216000Y-132588000D02*
X70012560Y-125384560D01*
X70012560Y-125384560D02*
X70012560Y-103977440D01*
X70012560Y-103977440D02*
X74676000Y-99314000D01*
X87376000Y-134366000D02*
X87376000Y-133096000D01*
X87376000Y-133096000D02*
X86868000Y-132588000D01*
X89916000Y-132842000D02*
X89154000Y-132080000D01*
X89154000Y-132080000D02*
X78994000Y-132080000D01*
X78994000Y-132080000D02*
X70612000Y-123698000D01*
X70612000Y-123698000D02*
X70612000Y-105918000D01*
X70612000Y-105918000D02*
X77216000Y-99314000D01*
X89916000Y-134366000D02*
X89916000Y-132842000D01*
X80772000Y-120650000D02*
X80772000Y-111506000D01*
X80772000Y-120650000D02*
X80772000Y-125095000D01*
X80772000Y-125095000D02*
X80518000Y-125349000D01*
X80772000Y-111506000D02*
X80645000Y-111379000D01*
X83312000Y-120650000D02*
X83312000Y-111506000D01*
X83058000Y-120904000D02*
X83312000Y-120650000D01*
X83312000Y-111506000D02*
X83185000Y-111379000D01*
X83058000Y-125349000D02*
X83058000Y-120904000D01*
X85852000Y-111506000D02*
X85725000Y-111379000D01*
X85598000Y-120904000D02*
X85852000Y-120650000D01*
X85598000Y-125349000D02*
X85598000Y-120904000D01*
X85852000Y-120650000D02*
X85852000Y-111506000D01*
X84328000Y-84074000D02*
X84328000Y-82804000D01*
X140335000Y-43434000D02*
X141859000Y-44958000D01*
X136398000Y-43434000D02*
X140335000Y-43434000D01*
X106273606Y-73558394D02*
X136398000Y-43434000D01*
X93573606Y-73558394D02*
X106273606Y-73558394D01*
X84328000Y-82804000D02*
X93573606Y-73558394D01*
X84328000Y-84074000D02*
X84328000Y-84022000D01*
X147193000Y-44831000D02*
X141986000Y-44831000D01*
X141986000Y-44831000D02*
X141859000Y-44958000D01*
X86868000Y-84074000D02*
X86868000Y-82042000D01*
X140335000Y-54102000D02*
X141859000Y-55626000D01*
X136652000Y-54102000D02*
X140335000Y-54102000D01*
X116738404Y-74015596D02*
X136652000Y-54102000D01*
X94894404Y-74015596D02*
X116738404Y-74015596D01*
X86868000Y-82042000D02*
X94894404Y-74015596D01*
X141859000Y-55626000D02*
X141859000Y-55245000D01*
X141986000Y-55499000D02*
X141859000Y-55626000D01*
X147193000Y-55499000D02*
X141986000Y-55499000D01*
X89408000Y-84074000D02*
X89408000Y-81534000D01*
X140335000Y-64770000D02*
X141859000Y-66294000D01*
X136144000Y-64770000D02*
X140335000Y-64770000D01*
X126441202Y-74472798D02*
X136144000Y-64770000D01*
X96469202Y-74472798D02*
X126441202Y-74472798D01*
X89408000Y-81534000D02*
X96469202Y-74472798D01*
X147193000Y-66167000D02*
X141986000Y-66167000D01*
X141986000Y-66167000D02*
X141859000Y-66294000D01*
X140208000Y-74930000D02*
X101092000Y-74930000D01*
X101092000Y-74930000D02*
X91948000Y-84074000D01*
X141859000Y-76962000D02*
X141859000Y-76581000D01*
X141986000Y-76835000D02*
X141859000Y-76962000D01*
X147193000Y-76835000D02*
X141986000Y-76835000D01*
X141859000Y-76581000D02*
X140208000Y-74930000D01*
X135636000Y-91186000D02*
X138557000Y-91186000D01*
X135128000Y-80010000D02*
X138557000Y-80010000D01*
X135382000Y-69342000D02*
X138557000Y-69342000D01*
X138557000Y-48006000D02*
X135128000Y-48006000D01*
X135382000Y-58674000D02*
X138557000Y-58674000D01*
X90932000Y-125476000D02*
X87757000Y-128651000D01*
X83058000Y-128651000D02*
X80518000Y-128651000D01*
X87757000Y-128651000D02*
X85598000Y-128651000D01*
X90932000Y-120650000D02*
X90932000Y-125476000D01*
X85598000Y-128651000D02*
X83058000Y-128651000D01*
X139255500Y-93789500D02*
X140716000Y-95250000D01*
X140716000Y-95250000D02*
X143129000Y-95250000D01*
X143129000Y-95250000D02*
X144653000Y-93726000D01*
X139255500Y-93726000D02*
X139255500Y-93789500D01*
X139255500Y-91884500D02*
X138557000Y-91186000D01*
X139255500Y-93726000D02*
X139255500Y-91884500D01*
X138557000Y-49847500D02*
X139255500Y-50546000D01*
X138557000Y-48006000D02*
X138557000Y-49847500D01*
X138557000Y-60515500D02*
X139255500Y-61214000D01*
X138557000Y-58674000D02*
X138557000Y-60515500D01*
X138557000Y-71183500D02*
X139255500Y-71882000D01*
X138557000Y-69342000D02*
X138557000Y-71183500D01*
X138557000Y-81851500D02*
X139255500Y-82550000D01*
X138557000Y-80010000D02*
X138557000Y-81851500D01*
X144526000Y-82550000D02*
X143002000Y-84074000D01*
X143002000Y-84074000D02*
X140462000Y-84074000D01*
X140462000Y-84074000D02*
X139255500Y-82867500D01*
X139255500Y-82867500D02*
X139255500Y-82550000D01*
X144653000Y-82550000D02*
X144526000Y-82550000D01*
X144780000Y-71882000D02*
X143256000Y-73406000D01*
X143256000Y-73406000D02*
X140716000Y-73406000D01*
X140716000Y-73406000D02*
X139255500Y-71945500D01*
X139255500Y-71945500D02*
X139255500Y-71882000D01*
X144653000Y-71882000D02*
X144780000Y-71882000D01*
X144653000Y-61341000D02*
X143256000Y-62738000D01*
X143256000Y-62738000D02*
X140716000Y-62738000D01*
X140716000Y-62738000D02*
X139255500Y-61277500D01*
X139255500Y-61277500D02*
X139255500Y-61214000D01*
X144653000Y-61214000D02*
X144653000Y-61341000D01*
X144780000Y-50546000D02*
X143256000Y-52070000D01*
X143256000Y-52070000D02*
X140716000Y-52070000D01*
X140716000Y-52070000D02*
X139255500Y-50609500D01*
X139255500Y-50609500D02*
X139255500Y-50546000D01*
X144653000Y-50546000D02*
X144780000Y-50546000D01*
X78867000Y-128651000D02*
X77216000Y-127000000D01*
X80518000Y-128651000D02*
X78867000Y-128651000D01*
X144653000Y-52959000D02*
X144272000Y-53340000D01*
X144653000Y-50546000D02*
X144653000Y-52959000D01*
X144653000Y-63881000D02*
X144272000Y-64262000D01*
X144653000Y-61214000D02*
X144653000Y-63881000D01*
X144653000Y-74295000D02*
X144018000Y-74930000D01*
X144653000Y-71882000D02*
X144653000Y-74295000D01*
X144653000Y-84709000D02*
X144018000Y-85344000D01*
X144653000Y-82550000D02*
X144653000Y-84709000D01*
X144653000Y-96139000D02*
X144272000Y-96520000D01*
X144653000Y-93726000D02*
X144653000Y-96139000D01*
D25*
X153543000Y-46101000D02*
X156514800Y-46101000D01*
X156514800Y-46101000D02*
X156530040Y-46085760D01*
X153543000Y-56769000D02*
X155752800Y-56769000D01*
X155752800Y-56769000D02*
X155768040Y-56753760D01*
X153543000Y-67437000D02*
X156260800Y-67437000D01*
X156260800Y-67437000D02*
X156276040Y-67421760D01*
X153543000Y-78105000D02*
X155752800Y-78105000D01*
X155752800Y-78105000D02*
X155768040Y-78089760D01*
X155768040Y-88757760D02*
X153558240Y-88757760D01*
X153558240Y-88757760D02*
X153543000Y-88773000D01*
X157226000Y-76708000D02*
X155844240Y-78089760D01*
X155844240Y-78089760D02*
X155768040Y-78089760D01*
X157988000Y-66040000D02*
X156606240Y-67421760D01*
X156606240Y-67421760D02*
X156276040Y-67421760D01*
X157480000Y-54864000D02*
X155768040Y-56575960D01*
X155768040Y-56575960D02*
X155768040Y-56753760D01*
X151384000Y-45720000D02*
X151765000Y-46101000D01*
X151384000Y-42418000D02*
X151384000Y-45720000D01*
X152654000Y-41148000D02*
X151384000Y-42418000D01*
X151765000Y-46101000D02*
X153543000Y-46101000D01*
X155768040Y-88757760D02*
X155768040Y-88325960D01*
X160020000Y-88392000D02*
X160020000Y-90170000D01*
X159258000Y-87630000D02*
X160020000Y-88392000D01*
X156464000Y-87630000D02*
X159258000Y-87630000D01*
X155768040Y-88325960D02*
X156464000Y-87630000D01*
D24*
X151765000Y-46101000D02*
X153543000Y-46101000D01*
X153558240Y-46085760D02*
X153543000Y-46101000D01*
X153558240Y-56753760D02*
X153543000Y-56769000D01*
X153558240Y-67421760D02*
X153543000Y-67437000D01*
X153558240Y-88757760D02*
X153543000Y-88773000D01*
X153558240Y-78089760D02*
X153543000Y-78105000D01*
X155768040Y-78089760D02*
X153558240Y-78089760D01*
X155768040Y-88757760D02*
X155844240Y-88757760D01*
X156352240Y-67421760D02*
X156276040Y-67421760D01*
X156530040Y-46040040D02*
X156530040Y-46085760D01*
X99314000Y-87884000D02*
X92456000Y-94742000D01*
X92456000Y-94742000D02*
X92456000Y-99314000D01*
X109982000Y-88138000D02*
X100838000Y-88138000D01*
X100838000Y-88138000D02*
X100584000Y-87884000D01*
X100584000Y-87884000D02*
X99314000Y-87884000D01*
X102108000Y-101092000D02*
X91694000Y-101092000D01*
X91694000Y-101092000D02*
X89916000Y-99314000D01*
X109982000Y-98298000D02*
X104902000Y-98298000D01*
X104902000Y-98298000D02*
X102108000Y-101092000D01*
X76454000Y-109982000D02*
X74803000Y-111633000D01*
X88265000Y-111379000D02*
X88265000Y-110617000D01*
X87630000Y-109982000D02*
X76454000Y-109982000D01*
X88265000Y-110617000D02*
X87630000Y-109982000D01*
X74803000Y-111633000D02*
X73025000Y-111633000D01*
X94488000Y-84328000D02*
X95504000Y-85344000D01*
X95504000Y-85344000D02*
X100838000Y-85344000D01*
X100838000Y-85344000D02*
X101600000Y-84582000D01*
X101600000Y-84582000D02*
X126238000Y-84582000D01*
X126238000Y-84582000D02*
X126746000Y-85090000D01*
X94488000Y-84074000D02*
X94488000Y-84328000D01*
X78994000Y-114808000D02*
X78105000Y-113919000D01*
X78105000Y-113919000D02*
X78105000Y-111379000D01*
X128016000Y-134366000D02*
X128016000Y-134239000D01*
X128016000Y-134239000D02*
X108712000Y-114935000D01*
X89408000Y-100584000D02*
X99822000Y-110998000D01*
X99822000Y-110998000D02*
X99822000Y-112395000D01*
X99822000Y-112395000D02*
X115316000Y-127889000D01*
X115316000Y-127889000D02*
X115316000Y-134366000D01*
X87376000Y-99314000D02*
X87503000Y-99314000D01*
X87503000Y-99314000D02*
X88773000Y-100584000D01*
X88773000Y-100584000D02*
X89408000Y-100584000D01*
X126746000Y-88900000D02*
X124460000Y-88900000D01*
X130048000Y-86614000D02*
X129032000Y-86614000D01*
X113792000Y-93218000D02*
X109982000Y-93218000D01*
X129032000Y-86614000D02*
X126746000Y-88900000D01*
X106172000Y-93218000D02*
X100076000Y-99314000D01*
X109982000Y-93218000D02*
X106172000Y-93218000D01*
X124460000Y-88900000D02*
X118110000Y-88900000D01*
X118110000Y-88900000D02*
X113792000Y-93218000D01*
X130048000Y-94234000D02*
X124714000Y-94234000D01*
X124714000Y-94234000D02*
X124460000Y-93980000D01*
X106680000Y-90678000D02*
X101854000Y-95504000D01*
X101854000Y-95504000D02*
X99314000Y-95504000D01*
X99314000Y-95504000D02*
X97536000Y-97282000D01*
X97536000Y-97282000D02*
X97536000Y-99314000D01*
X109982000Y-90678000D02*
X106680000Y-90678000D01*
X116840000Y-91440000D02*
X112522000Y-95758000D01*
X124714000Y-91694000D02*
X124460000Y-91440000D01*
X112522000Y-95758000D02*
X109982000Y-95758000D01*
X130048000Y-91694000D02*
X124714000Y-91694000D01*
X124460000Y-91440000D02*
X116840000Y-91440000D01*
X74422000Y-45466000D02*
X74422000Y-40386000D01*
X74422000Y-50673000D02*
X74803000Y-51054000D01*
X74422000Y-45466000D02*
X74422000Y-50673000D01*
X74803000Y-53213000D02*
X75438000Y-53848000D01*
X75438000Y-53848000D02*
X75438000Y-79502000D01*
X75438000Y-79502000D02*
X74168000Y-80772000D01*
X74168000Y-80772000D02*
X74168000Y-84074000D01*
X74803000Y-51054000D02*
X74803000Y-53213000D01*
X79248000Y-84074000D02*
X79248000Y-82602000D01*
X95059000Y-66791000D02*
X95059000Y-51054000D01*
X79248000Y-82602000D02*
X95059000Y-66791000D01*
X93662000Y-49657000D02*
X95059000Y-51054000D01*
X93662000Y-45466000D02*
X93662000Y-49657000D01*
X93662000Y-45466000D02*
X93662000Y-40386000D01*
X131064000Y-100838000D02*
X130048000Y-101854000D01*
X131826000Y-108204000D02*
X135382000Y-104648000D01*
X135382000Y-104648000D02*
X135382000Y-101346000D01*
X135382000Y-101346000D02*
X134874000Y-100838000D01*
X134874000Y-100838000D02*
X131064000Y-100838000D01*
X96774000Y-102108000D02*
X102870000Y-108204000D01*
X102870000Y-108204000D02*
X131826000Y-108204000D01*
X135890000Y-98044000D02*
X135890000Y-105156000D01*
X135890000Y-105156000D02*
X129667000Y-111379000D01*
X129667000Y-111379000D02*
X100965000Y-111379000D01*
X130048000Y-96774000D02*
X134620000Y-96774000D01*
X134620000Y-96774000D02*
X135890000Y-98044000D01*
X107696000Y-99568000D02*
X116586000Y-99568000D01*
X116586000Y-99568000D02*
X117602000Y-100584000D01*
X101600000Y-105664000D02*
X107696000Y-99568000D01*
X81788000Y-84074000D02*
X81788000Y-84062000D01*
X81788000Y-84062000D02*
X100000000Y-65850000D01*
X100000000Y-65850000D02*
X103500000Y-65850000D01*
X103500000Y-65850000D02*
X104500000Y-64850000D01*
X104500000Y-64850000D02*
X104500000Y-51741000D01*
X104500000Y-51741000D02*
X105187000Y-51054000D01*
X105187000Y-51054000D02*
X105187000Y-47371000D01*
X103282000Y-45466000D02*
X103282000Y-40386000D01*
X105187000Y-47371000D02*
X103282000Y-45466000D01*
X76708000Y-84074000D02*
X76708000Y-81392000D01*
X84500000Y-73600000D02*
X84500000Y-51485000D01*
X76708000Y-81392000D02*
X84500000Y-73600000D01*
X84500000Y-51485000D02*
X84931000Y-51054000D01*
X84042000Y-45466000D02*
X84042000Y-40386000D01*
X84042000Y-45466000D02*
X84042000Y-50165000D01*
X84042000Y-50165000D02*
X84931000Y-51054000D01*
X71628000Y-107950000D02*
X87376000Y-107950000D01*
X87376000Y-107950000D02*
X90805000Y-111379000D01*
X73025000Y-114173000D02*
X72517000Y-114173000D01*
X72517000Y-114173000D02*
X71120000Y-112776000D01*
X71120000Y-112776000D02*
X71120000Y-108458000D01*
X71120000Y-108458000D02*
X71628000Y-107950000D01*
X79883000Y-99314000D02*
X81280000Y-100711000D01*
X81280000Y-100711000D02*
X81915000Y-100711000D01*
X81915000Y-100711000D02*
X91948000Y-110744000D01*
X91948000Y-110744000D02*
X91948000Y-111760000D01*
X91948000Y-111760000D02*
X100076000Y-119888000D01*
X100076000Y-119888000D02*
X100076000Y-134366000D01*
X79756000Y-99314000D02*
X79883000Y-99314000D01*
X102616000Y-120015000D02*
X102616000Y-134366000D01*
X82296000Y-99314000D02*
X83693000Y-100711000D01*
X83693000Y-100711000D02*
X84455000Y-100711000D01*
X84455000Y-100711000D02*
X94615000Y-110871000D01*
X94615000Y-110871000D02*
X94615000Y-112014000D01*
X94615000Y-112014000D02*
X102616000Y-120015000D01*
X145161000Y-46101000D02*
X143256000Y-48006000D01*
X143256000Y-48006000D02*
X141859000Y-48006000D01*
X147193000Y-46101000D02*
X145161000Y-46101000D01*
X141859000Y-49847500D02*
X141160500Y-50546000D01*
X141859000Y-48006000D02*
X141859000Y-49847500D01*
X141859000Y-60515500D02*
X141160500Y-61214000D01*
X141859000Y-58674000D02*
X141859000Y-60515500D01*
X144653000Y-56769000D02*
X142748000Y-58674000D01*
X142748000Y-58674000D02*
X141859000Y-58674000D01*
X147193000Y-56769000D02*
X144653000Y-56769000D01*
X143256000Y-69342000D02*
X141859000Y-69342000D01*
X147193000Y-67437000D02*
X145161000Y-67437000D01*
X141859000Y-71183500D02*
X141160500Y-71882000D01*
X141859000Y-69342000D02*
X141859000Y-71183500D01*
X145161000Y-67437000D02*
X143256000Y-69342000D01*
X141859000Y-80010000D02*
X141859000Y-81851500D01*
X144653000Y-78105000D02*
X142748000Y-80010000D01*
X142748000Y-80010000D02*
X141859000Y-80010000D01*
X147193000Y-78105000D02*
X144653000Y-78105000D01*
X141859000Y-81851500D02*
X141160500Y-82550000D01*
X141160500Y-93726000D02*
X141160500Y-91884500D01*
X144907000Y-88773000D02*
X147193000Y-88773000D01*
X141859000Y-91186000D02*
X142494000Y-91186000D01*
X142494000Y-91186000D02*
X144907000Y-88773000D01*
X141160500Y-91884500D02*
X141859000Y-91186000D01*
X152654000Y-48260000D02*
X152654000Y-50419000D01*
X152654000Y-50419000D02*
X152781000Y-50546000D01*
X153543000Y-47371000D02*
X152654000Y-48260000D01*
X153558240Y-47386240D02*
X153543000Y-47371000D01*
X156530040Y-47386240D02*
X153558240Y-47386240D01*
X152781000Y-58801000D02*
X153543000Y-58039000D01*
X153558240Y-58054240D02*
X153543000Y-58039000D01*
X155768040Y-58054240D02*
X153558240Y-58054240D01*
X152781000Y-61214000D02*
X152781000Y-58801000D01*
X152781000Y-71882000D02*
X152781000Y-69469000D01*
X152781000Y-69469000D02*
X153543000Y-68707000D01*
X153558240Y-68722240D02*
X153543000Y-68707000D01*
X156276040Y-68722240D02*
X153558240Y-68722240D01*
X152781000Y-82550000D02*
X152781000Y-80137000D01*
X153558240Y-79390240D02*
X153543000Y-79375000D01*
X155768040Y-79390240D02*
X153558240Y-79390240D01*
X152781000Y-80137000D02*
X153543000Y-79375000D01*
X152781000Y-93726000D02*
X152781000Y-90805000D01*
X153558240Y-90058240D02*
X153543000Y-90043000D01*
X155768040Y-90058240D02*
X153558240Y-90058240D01*
X152781000Y-90805000D02*
X153543000Y-90043000D01*
X133604000Y-99187000D02*
X130175000Y-99187000D01*
X130175000Y-99187000D02*
X130048000Y-99314000D01*
X130302000Y-95504000D02*
X131572000Y-94234000D01*
X131572000Y-94234000D02*
X131572000Y-90678000D01*
X131572000Y-90678000D02*
X130048000Y-89154000D01*
X120904000Y-100203000D02*
X124079000Y-100203000D01*
X124079000Y-100203000D02*
X128778000Y-95504000D01*
X128778000Y-95504000D02*
X130302000Y-95504000D01*
X117983000Y-103505000D02*
X117602000Y-103124000D01*
X120904000Y-103505000D02*
X117983000Y-103505000D01*
X81756000Y-51181000D02*
X81629000Y-51054000D01*
X81756000Y-53975000D02*
X81756000Y-51181000D01*
X80500000Y-61600000D02*
X80500000Y-58533000D01*
X80500000Y-58533000D02*
X81756000Y-57277000D01*
X83000000Y-64100000D02*
X80500000Y-61600000D01*
X148844000Y-44450000D02*
X148844000Y-49657000D01*
X148844000Y-49657000D02*
X147955000Y-50546000D01*
X147193000Y-43561000D02*
X147955000Y-43561000D01*
X147955000Y-43561000D02*
X148844000Y-44450000D01*
X148844000Y-55118000D02*
X148844000Y-60325000D01*
X148844000Y-60325000D02*
X147955000Y-61214000D01*
X147193000Y-54229000D02*
X147955000Y-54229000D01*
X147955000Y-54229000D02*
X148844000Y-55118000D01*
X147193000Y-64897000D02*
X147955000Y-64897000D01*
X147955000Y-64897000D02*
X148844000Y-65786000D01*
X148844000Y-65786000D02*
X148844000Y-70993000D01*
X148844000Y-70993000D02*
X147955000Y-71882000D01*
X148844000Y-81661000D02*
X147955000Y-82550000D01*
X147193000Y-75565000D02*
X147955000Y-75565000D01*
X147955000Y-75565000D02*
X148844000Y-76454000D01*
X148844000Y-76454000D02*
X148844000Y-81661000D01*
X149352000Y-87122000D02*
X148463000Y-86233000D01*
X148463000Y-86233000D02*
X147193000Y-86233000D01*
X147955000Y-93726000D02*
X148844000Y-93726000D01*
X148844000Y-93726000D02*
X149352000Y-93218000D01*
X149352000Y-93218000D02*
X149352000Y-87122000D01*
X91884000Y-51181000D02*
X91757000Y-51054000D01*
X91884000Y-53975000D02*
X91884000Y-51181000D01*
X90500000Y-61600000D02*
X90500000Y-58661000D01*
X90500000Y-58661000D02*
X91884000Y-57277000D01*
X93000000Y-64100000D02*
X90500000Y-61600000D01*
X102012000Y-51181000D02*
X101885000Y-51054000D01*
X102012000Y-53975000D02*
X102012000Y-51181000D01*
X100500000Y-61600000D02*
X100500000Y-58789000D01*
X100500000Y-58789000D02*
X102012000Y-57277000D01*
X103000000Y-64100000D02*
X100500000Y-61600000D01*
X71628000Y-51181000D02*
X71501000Y-51054000D01*
X71628000Y-53975000D02*
X71628000Y-51181000D01*
X70500000Y-61600000D02*
X70500000Y-58405000D01*
X70500000Y-58405000D02*
X71628000Y-57277000D01*
X73000000Y-64100000D02*
X70500000Y-61600000D01*
M02*
